<?xml version="1.0" standalone="no"?>
 <!DOCTYPE svg PUBLIC "-//W3C//DTD SVG 1.1//EN" 
 "http://www.w3.org/Graphics/SVG/1.1/DTD/svg11.dtd"> 
<svg
  xmlns:svg="http://www.w3.org/2000/svg"
  xmlns="http://www.w3.org/2000/svg"
  xmlns:xlink="http://www.w3.org/1999/xlink"
  version="1.1"
  width="29.700220cm" height="21.000720cm" viewBox="0 0 116930 82680">
<title>SVG Picture created as Bakalarska_prace-F_SilkS.svg date 2021/05/25 20:15:34 </title>
  <desc>Picture generated by PCBNEW </desc>
<g style="fill:#000000; fill-opacity:1;stroke:#000000; stroke-opacity:1;
stroke-linecap:round; stroke-linejoin:round;"
 transform="translate(0 0) scale(1 1)">
</g>
<g style="fill:#000000; fill-opacity:0.0; 
stroke:#000000; stroke-width:-0.000393701; stroke-opacity:1; 
stroke-linecap:round; stroke-linejoin:round;">
</g>
<g style="fill:#000000; fill-opacity:0.0; 
stroke:#000000; stroke-width:59.0551; stroke-opacity:1; 
stroke-linecap:round; stroke-linejoin:round;">
<text x="49000" y="38596.9"
textLength="4032.53" font-size="524.934" lengthAdjust="spacingAndGlyphs"
text-anchor="middle" opacity="0">HEART PULSE</text>
<path d="M47115 38578
L47115 38184
" />
<path d="M47115 38371
L47340 38371
" />
<path d="M47340 38578
L47340 38184
" />
<path d="M47528 38371
L47659 38371
" />
<path d="M47715 38578
L47528 38578
L47528 38184
L47715 38184
" />
<path d="M47865 38465
L48053 38465
" />
<path d="M47828 38578
L47959 38184
L48090 38578
" />
<path d="M48446 38578
L48315 38390
" />
<path d="M48221 38578
L48221 38184
L48371 38184
L48409 38203
L48428 38221
L48446 38259
L48446 38315
L48428 38353
L48409 38371
L48371 38390
L48221 38390
" />
<path d="M48559 38184
L48784 38184
" />
<path d="M48671 38578
L48671 38184
" />
<path d="M49215 38578
L49215 38184
L49365 38184
L49403 38203
L49421 38221
L49440 38259
L49440 38315
L49421 38353
L49403 38371
L49365 38390
L49215 38390
" />
<path d="M49609 38184
L49609 38503
L49628 38540
L49646 38559
L49684 38578
L49759 38578
L49796 38559
L49815 38540
L49834 38503
L49834 38184
" />
<path d="M50209 38578
L50021 38578
L50021 38184
" />
<path d="M50321 38559
L50377 38578
L50471 38578
L50509 38559
L50527 38540
L50546 38503
L50546 38465
L50527 38428
L50509 38409
L50471 38390
L50396 38371
L50359 38353
L50340 38334
L50321 38296
L50321 38259
L50340 38221
L50359 38203
L50396 38184
L50490 38184
L50546 38203
" />
<path d="M50715 38371
L50846 38371
" />
<path d="M50902 38578
L50715 38578
L50715 38184
L50902 38184
" />
<text x="54000" y="26596.9"
textLength="3038.9" font-size="524.934" lengthAdjust="spacingAndGlyphs"
text-anchor="middle" opacity="0">TRESHOLD</text>
<path d="M52556 26184
L52781 26184
" />
<path d="M52668 26578
L52668 26184
" />
<path d="M53137 26578
L53006 26390
" />
<path d="M52912 26578
L52912 26184
L53062 26184
L53100 26203
L53118 26221
L53137 26259
L53137 26315
L53118 26353
L53100 26371
L53062 26390
L52912 26390
" />
<path d="M53306 26371
L53437 26371
" />
<path d="M53493 26578
L53306 26578
L53306 26184
L53493 26184
" />
<path d="M53643 26559
L53700 26578
L53793 26578
L53831 26559
L53850 26540
L53868 26503
L53868 26465
L53850 26428
L53831 26409
L53793 26390
L53718 26371
L53681 26353
L53662 26334
L53643 26296
L53643 26259
L53662 26221
L53681 26203
L53718 26184
L53812 26184
L53868 26203
" />
<path d="M54037 26578
L54037 26184
" />
<path d="M54037 26371
L54262 26371
" />
<path d="M54262 26578
L54262 26184
" />
<path d="M54524 26184
L54599 26184
L54637 26203
L54674 26240
L54693 26315
L54693 26446
L54674 26521
L54637 26559
L54599 26578
L54524 26578
L54487 26559
L54449 26521
L54431 26446
L54431 26315
L54449 26240
L54487 26203
L54524 26184
" />
<path d="M55049 26578
L54862 26578
L54862 26184
" />
<path d="M55181 26578
L55181 26184
L55274 26184
L55331 26203
L55368 26240
L55387 26278
L55406 26353
L55406 26409
L55387 26484
L55368 26521
L55331 26559
L55274 26578
L55181 26578
" />
<g transform="rotate(-90 72900 41800)">
<text x="72900" y="41996.9"
textLength="4107.52" font-size="524.934" lengthAdjust="spacingAndGlyphs"
text-anchor="middle" opacity="0">LED CURRENT</text>
</g>
<path d="M73078 43534
L73078 43721
L72684 43721
" />
<path d="M72871 43402
L72871 43271
" />
<path d="M73078 43215
L73078 43402
L72684 43402
L72684 43215
" />
<path d="M73078 43046
L72684 43046
L72684 42952
L72703 42896
L72740 42859
L72778 42840
L72853 42821
L72909 42821
L72984 42840
L73021 42859
L73059 42896
L73078 42952
L73078 43046
" />
<path d="M73040 42128
L73059 42146
L73078 42203
L73078 42240
L73059 42296
L73021 42334
L72984 42353
L72909 42371
L72853 42371
L72778 42353
L72740 42334
L72703 42296
L72684 42240
L72684 42203
L72703 42146
L72721 42128
" />
<path d="M72684 41959
L73003 41959
L73040 41940
L73059 41921
L73078 41884
L73078 41809
L73059 41771
L73040 41753
L73003 41734
L72684 41734
" />
<path d="M73078 41321
L72890 41453
" />
<path d="M73078 41546
L72684 41546
L72684 41396
L72703 41359
L72721 41340
L72759 41321
L72815 41321
L72853 41340
L72871 41359
L72890 41396
L72890 41546
" />
<path d="M73078 40928
L72890 41059
" />
<path d="M73078 41153
L72684 41153
L72684 41003
L72703 40965
L72721 40946
L72759 40928
L72815 40928
L72853 40946
L72871 40965
L72890 41003
L72890 41153
" />
<path d="M72871 40759
L72871 40628
" />
<path d="M73078 40572
L73078 40759
L72684 40759
L72684 40572
" />
<path d="M73078 40403
L72684 40403
L73078 40178
L72684 40178
" />
<path d="M72684 40047
L72684 39822
" />
<path d="M73078 39934
L72684 39934
" />
</g>
<g style="fill:#000000; fill-opacity:0.0; 
stroke:#000000; stroke-width:47.2441; stroke-opacity:1; 
stroke-linecap:round; stroke-linejoin:round;">
<path d="M60400 45947
L60400 46947
" />
<path d="M59400 45947
L59400 46947
" />
<path d="M58400 45947
L58400 46947
" />
<path d="M61415 39691
L61415 45947
" />
<path d="M57384 39691
L57384 45947
" />
<path d="M57384 39691
L61415 39691
" />
<path d="M57384 45947
L61415 45947
" />
<path d="M68289 44668
L68289 44353
" />
<path d="M68447 44511
L68132 44511
" />
<path d="M65104 43809
L65104 43390
" />
<path d="M65120 43902
L65120 43297
" />
<path d="M65135 43973
L65135 43226
" />
<path d="M65151 44032
L65151 43167
" />
<path d="M65167 44083
L65167 43116
" />
<path d="M65183 44129
L65183 43070
" />
<path d="M65198 44172
L65198 43027
" />
<path d="M65214 44211
L65214 42988
" />
<path d="M65230 44247
L65230 42952
" />
<path d="M65246 44281
L65246 42918
" />
<path d="M65261 44313
L65261 42886
" />
<path d="M65277 44344
L65277 42855
" />
<path d="M65293 44373
L65293 42826
" />
<path d="M65309 44400
L65309 42799
" />
<path d="M65324 44427
L65324 42772
" />
<path d="M65340 44452
L65340 42747
" />
<path d="M65356 44477
L65356 42722
" />
<path d="M65372 44500
L65372 42699
" />
<path d="M65387 44523
L65387 42676
" />
<path d="M65403 44544
L65403 42655
" />
<path d="M65419 44566
L65419 42633
" />
<path d="M65435 44586
L65435 42613
" />
<path d="M65450 44606
L65450 42593
" />
<path d="M65466 44625
L65466 42574
" />
<path d="M65482 44643
L65482 42556
" />
<path d="M65498 44661
L65498 42538
" />
<path d="M65513 44679
L65513 42520
" />
<path d="M65529 44696
L65529 42503
" />
<path d="M65545 44712
L65545 42487
" />
<path d="M65561 44728
L65561 42471
" />
<path d="M65576 44744
L65576 42455
" />
<path d="M65592 44759
L65592 42440
" />
<path d="M65608 44774
L65608 42425
" />
<path d="M65624 43190
L65624 42411
" />
<path d="M65624 44788
L65624 44009
" />
<path d="M65639 43190
L65639 42397
" />
<path d="M65639 44802
L65639 44009
" />
<path d="M65655 43190
L65655 42383
" />
<path d="M65655 44816
L65655 44009
" />
<path d="M65671 43190
L65671 42370
" />
<path d="M65671 44829
L65671 44009
" />
<path d="M65687 43190
L65687 42357
" />
<path d="M65687 44842
L65687 44009
" />
<path d="M65702 43190
L65702 42344
" />
<path d="M65702 44855
L65702 44009
" />
<path d="M65718 43190
L65718 42332
" />
<path d="M65718 44867
L65718 44009
" />
<path d="M65734 43190
L65734 42320
" />
<path d="M65734 44879
L65734 44009
" />
<path d="M65750 43190
L65750 42308
" />
<path d="M65750 44891
L65750 44009
" />
<path d="M65765 43190
L65765 42297
" />
<path d="M65765 44902
L65765 44009
" />
<path d="M65781 43190
L65781 42285
" />
<path d="M65781 44914
L65781 44009
" />
<path d="M65797 43190
L65797 42275
" />
<path d="M65797 44924
L65797 44009
" />
<path d="M65812 43190
L65812 42264
" />
<path d="M65812 44935
L65812 44009
" />
<path d="M65828 43190
L65828 42254
" />
<path d="M65828 44945
L65828 44009
" />
<path d="M65844 43190
L65844 42244
" />
<path d="M65844 44955
L65844 44009
" />
<path d="M65860 43190
L65860 42234
" />
<path d="M65860 44965
L65860 44009
" />
<path d="M65875 43190
L65875 42224
" />
<path d="M65875 44975
L65875 44009
" />
<path d="M65891 43190
L65891 42215
" />
<path d="M65891 44984
L65891 44009
" />
<path d="M65907 43190
L65907 42206
" />
<path d="M65907 44993
L65907 44009
" />
<path d="M65923 43190
L65923 42197
" />
<path d="M65923 45002
L65923 44009
" />
<path d="M65938 43190
L65938 42188
" />
<path d="M65938 45011
L65938 44009
" />
<path d="M65954 43190
L65954 42180
" />
<path d="M65954 45019
L65954 44009
" />
<path d="M65970 43190
L65970 42172
" />
<path d="M65970 45027
L65970 44009
" />
<path d="M65986 43190
L65986 42164
" />
<path d="M65986 45035
L65986 44009
" />
<path d="M66001 43190
L66001 42156
" />
<path d="M66001 45043
L66001 44009
" />
<path d="M66017 43190
L66017 42148
" />
<path d="M66017 45051
L66017 44009
" />
<path d="M66033 43190
L66033 42141
" />
<path d="M66033 45058
L66033 44009
" />
<path d="M66049 43190
L66049 42134
" />
<path d="M66049 45065
L66049 44009
" />
<path d="M66064 43190
L66064 42127
" />
<path d="M66064 45072
L66064 44009
" />
<path d="M66080 43190
L66080 42120
" />
<path d="M66080 45079
L66080 44009
" />
<path d="M66096 43190
L66096 42114
" />
<path d="M66096 45085
L66096 44009
" />
<path d="M66112 43190
L66112 42107
" />
<path d="M66112 45092
L66112 44009
" />
<path d="M66127 43190
L66127 42101
" />
<path d="M66127 45098
L66127 44009
" />
<path d="M66143 43190
L66143 42095
" />
<path d="M66143 45104
L66143 44009
" />
<path d="M66159 43190
L66159 42090
" />
<path d="M66159 45109
L66159 44009
" />
<path d="M66175 43190
L66175 42084
" />
<path d="M66175 45115
L66175 44009
" />
<path d="M66190 43190
L66190 42079
" />
<path d="M66190 45120
L66190 44009
" />
<path d="M66206 43190
L66206 42073
" />
<path d="M66206 45126
L66206 44009
" />
<path d="M66222 43190
L66222 42068
" />
<path d="M66222 45131
L66222 44009
" />
<path d="M66238 43190
L66238 42063
" />
<path d="M66238 45136
L66238 44009
" />
<path d="M66253 43190
L66253 42059
" />
<path d="M66253 45140
L66253 44009
" />
<path d="M66269 43190
L66269 42054
" />
<path d="M66269 45145
L66269 44009
" />
<path d="M66285 43190
L66285 42050
" />
<path d="M66285 45149
L66285 44009
" />
<path d="M66301 43190
L66301 42046
" />
<path d="M66301 45153
L66301 44009
" />
<path d="M66316 43190
L66316 42042
" />
<path d="M66316 45157
L66316 44009
" />
<path d="M66332 43190
L66332 42038
" />
<path d="M66332 45161
L66332 44009
" />
<path d="M66348 43190
L66348 42034
" />
<path d="M66348 45165
L66348 44009
" />
<path d="M66364 43190
L66364 42031
" />
<path d="M66364 45168
L66364 44009
" />
<path d="M66379 43190
L66379 42027
" />
<path d="M66379 45172
L66379 44009
" />
<path d="M66395 43190
L66395 42024
" />
<path d="M66395 45175
L66395 44009
" />
<path d="M66411 43190
L66411 42021
" />
<path d="M66411 45178
L66411 44009
" />
<path d="M66427 43190
L66427 42018
" />
<path d="M66427 45181
L66427 44009
" />
<path d="M66443 45184
L66443 42015
" />
<path d="M66459 45186
L66459 42013
" />
<path d="M66474 45189
L66474 42010
" />
<path d="M66490 45191
L66490 42008
" />
<path d="M66506 45193
L66506 42006
" />
<path d="M66522 45195
L66522 42004
" />
<path d="M66537 45197
L66537 42002
" />
<path d="M66553 45198
L66553 42001
" />
<path d="M66569 45200
L66569 41999
" />
<path d="M66585 45201
L66585 41998
" />
<path d="M66600 45202
L66600 41997
" />
<path d="M66616 45203
L66616 41996
" />
<path d="M66632 45204
L66632 41995
" />
<path d="M66648 45205
L66648 41994
" />
<path d="M66663 45205
L66663 41994
" />
<path d="M66679 45206
L66679 41993
" />
<path d="M66695 45206
L66695 41993
" />
<path d="M66711 45206
L66711 41993
" />
<circle cx="66711" cy="43600" r="1622.05" /> 
<path d="M49951 31951
L49951 24848
" />
<path d="M32848 31951
L49951 31951
" />
<path d="M32848 24848
L32848 31951
" />
<path d="M33900 25900
L33900 24848
" />
<path d="M47900 25900
L33900 25900
" />
<path d="M47900 25900
L47900 24848
" />
<path d="M33900 30900
L33900 31951
" />
<path d="M48900 30900
L33900 30900
" />
<path d="M48900 30900
L48900 31951
" />
<path d="M49951 24848
L48900 24848
" />
<path d="M47900 24848
L32848 24848
" />
<path d="M48900 25900
L48900 24848
" />
<path d="M47900 25900
L48900 25900
" />
<circle cx="72907.9" cy="36000" r="1031.5" /> 
<path d="M72907 37015
L72907 34984
" />
<path d="M72892 37015
L72892 34984
" />
<path d="M72876 37015
L72876 34984
" />
<path d="M72860 37014
L72860 34985
" />
<path d="M72844 37014
L72844 34985
" />
<path d="M72829 37012
L72829 34987
" />
<path d="M72813 37011
L72813 36409
" />
<path d="M72813 35590
L72813 34988
" />
<path d="M72797 37009
L72797 36409
" />
<path d="M72797 35590
L72797 34990
" />
<path d="M72781 37008
L72781 36409
" />
<path d="M72781 35590
L72781 34991
" />
<path d="M72766 37006
L72766 36409
" />
<path d="M72766 35590
L72766 34993
" />
<path d="M72750 37003
L72750 36409
" />
<path d="M72750 35590
L72750 34996
" />
<path d="M72734 37001
L72734 36409
" />
<path d="M72734 35590
L72734 34998
" />
<path d="M72718 36998
L72718 36409
" />
<path d="M72718 35590
L72718 35001
" />
<path d="M72703 36995
L72703 36409
" />
<path d="M72703 35590
L72703 35004
" />
<path d="M72687 36992
L72687 36409
" />
<path d="M72687 35590
L72687 35007
" />
<path d="M72671 36988
L72671 36409
" />
<path d="M72671 35590
L72671 35011
" />
<path d="M72655 36984
L72655 36409
" />
<path d="M72655 35590
L72655 35015
" />
<path d="M72640 36980
L72640 36409
" />
<path d="M72640 35590
L72640 35019
" />
<path d="M72624 36976
L72624 36409
" />
<path d="M72624 35590
L72624 35023
" />
<path d="M72608 36971
L72608 36409
" />
<path d="M72608 35590
L72608 35028
" />
<path d="M72592 36966
L72592 36409
" />
<path d="M72592 35590
L72592 35033
" />
<path d="M72576 36961
L72576 36409
" />
<path d="M72576 35590
L72576 35038
" />
<path d="M72561 36955
L72561 36409
" />
<path d="M72561 35590
L72561 35044
" />
<path d="M72545 36950
L72545 36409
" />
<path d="M72545 35590
L72545 35049
" />
<path d="M72529 36944
L72529 36409
" />
<path d="M72529 35590
L72529 35055
" />
<path d="M72513 36937
L72513 36409
" />
<path d="M72513 35590
L72513 35062
" />
<path d="M72498 36931
L72498 36409
" />
<path d="M72498 35590
L72498 35068
" />
<path d="M72482 36924
L72482 36409
" />
<path d="M72482 35590
L72482 35075
" />
<path d="M72466 36916
L72466 36409
" />
<path d="M72466 35590
L72466 35083
" />
<path d="M72450 36909
L72450 36409
" />
<path d="M72450 35590
L72450 35090
" />
<path d="M72435 36901
L72435 36409
" />
<path d="M72435 35590
L72435 35098
" />
<path d="M72419 36892
L72419 36409
" />
<path d="M72419 35590
L72419 35107
" />
<path d="M72403 36884
L72403 36409
" />
<path d="M72403 35590
L72403 35115
" />
<path d="M72387 36875
L72387 36409
" />
<path d="M72387 35590
L72387 35124
" />
<path d="M72372 36866
L72372 36409
" />
<path d="M72372 35590
L72372 35133
" />
<path d="M72356 36856
L72356 36409
" />
<path d="M72356 35590
L72356 35143
" />
<path d="M72340 36846
L72340 36409
" />
<path d="M72340 35590
L72340 35153
" />
<path d="M72324 36835
L72324 36409
" />
<path d="M72324 35590
L72324 35164
" />
<path d="M72309 36824
L72309 36409
" />
<path d="M72309 35590
L72309 35175
" />
<path d="M72293 36812
L72293 36409
" />
<path d="M72293 35590
L72293 35187
" />
<path d="M72277 36801
L72277 36409
" />
<path d="M72277 35590
L72277 35198
" />
<path d="M72261 36788
L72261 36409
" />
<path d="M72261 35590
L72261 35211
" />
<path d="M72246 36775
L72246 36409
" />
<path d="M72246 35590
L72246 35224
" />
<path d="M72230 36762
L72230 36409
" />
<path d="M72230 35590
L72230 35237
" />
<path d="M72214 36748
L72214 36409
" />
<path d="M72214 35590
L72214 35251
" />
<path d="M72198 36733
L72198 36409
" />
<path d="M72198 35590
L72198 35266
" />
<path d="M72183 36718
L72183 36409
" />
<path d="M72183 35590
L72183 35281
" />
<path d="M72167 36702
L72167 36409
" />
<path d="M72167 35590
L72167 35297
" />
<path d="M72151 36686
L72151 36409
" />
<path d="M72151 35590
L72151 35313
" />
<path d="M72135 36668
L72135 36409
" />
<path d="M72135 35590
L72135 35331
" />
<path d="M72120 36650
L72120 36409
" />
<path d="M72120 35590
L72120 35349
" />
<path d="M72104 36631
L72104 36409
" />
<path d="M72104 35590
L72104 35368
" />
<path d="M72088 36611
L72088 36409
" />
<path d="M72088 35590
L72088 35388
" />
<path d="M72072 36590
L72072 36409
" />
<path d="M72072 35590
L72072 35409
" />
<path d="M72057 36568
L72057 36409
" />
<path d="M72057 35590
L72057 35431
" />
<path d="M72041 36544
L72041 36409
" />
<path d="M72041 35590
L72041 35455
" />
<path d="M72025 36519
L72025 36409
" />
<path d="M72025 35590
L72025 35480
" />
<path d="M72009 36492
L72009 36409
" />
<path d="M72009 35590
L72009 35507
" />
<path d="M71994 36463
L71994 35536
" />
<path d="M71978 36432
L71978 35567
" />
<path d="M71962 36398
L71962 35601
" />
<path d="M71946 36360
L71946 35639
" />
<path d="M71931 36316
L71931 35683
" />
<path d="M71915 36266
L71915 35733
" />
<path d="M71899 36203
L71899 35796
" />
<path d="M71883 36111
L71883 35888
" />
<path d="M74012 36580
L73815 36580
" />
<path d="M73913 36679
L73913 36482
" />
<path d="M68120 34313
L68317 34313
" />
<path d="M68219 34412
L68219 34215
" />
<path d="M68688 32283
L68911 32283
" />
<path d="M68596 32299
L69003 32299
" />
<path d="M68533 32315
L69066 32315
" />
<path d="M68483 32331
L69116 32331
" />
<path d="M68439 32346
L69160 32346
" />
<path d="M68401 32362
L69198 32362
" />
<path d="M68367 32378
L69232 32378
" />
<path d="M68336 32394
L69263 32394
" />
<path d="M69209 32409
L69292 32409
" />
<path d="M68307 32409
L68390 32409
" />
<path d="M69209 32425
L69319 32425
" />
<path d="M68280 32425
L68390 32425
" />
<path d="M69209 32441
L69344 32441
" />
<path d="M68255 32441
L68390 32441
" />
<path d="M69209 32457
L69368 32457
" />
<path d="M68231 32457
L68390 32457
" />
<path d="M69209 32472
L69390 32472
" />
<path d="M68209 32472
L68390 32472
" />
<path d="M69209 32488
L69411 32488
" />
<path d="M68188 32488
L68390 32488
" />
<path d="M69209 32504
L69431 32504
" />
<path d="M68168 32504
L68390 32504
" />
<path d="M69209 32520
L69450 32520
" />
<path d="M68149 32520
L68390 32520
" />
<path d="M69209 32535
L69468 32535
" />
<path d="M68131 32535
L68390 32535
" />
<path d="M69209 32551
L69486 32551
" />
<path d="M68113 32551
L68390 32551
" />
<path d="M69209 32567
L69502 32567
" />
<path d="M68097 32567
L68390 32567
" />
<path d="M69209 32583
L69518 32583
" />
<path d="M68081 32583
L68390 32583
" />
<path d="M69209 32598
L69533 32598
" />
<path d="M68066 32598
L68390 32598
" />
<path d="M69209 32614
L69548 32614
" />
<path d="M68051 32614
L68390 32614
" />
<path d="M69209 32630
L69562 32630
" />
<path d="M68037 32630
L68390 32630
" />
<path d="M69209 32646
L69575 32646
" />
<path d="M68024 32646
L68390 32646
" />
<path d="M69209 32661
L69588 32661
" />
<path d="M68011 32661
L68390 32661
" />
<path d="M69209 32677
L69601 32677
" />
<path d="M67998 32677
L68390 32677
" />
<path d="M69209 32693
L69612 32693
" />
<path d="M67987 32693
L68390 32693
" />
<path d="M69209 32709
L69624 32709
" />
<path d="M67975 32709
L68390 32709
" />
<path d="M69209 32724
L69635 32724
" />
<path d="M67964 32724
L68390 32724
" />
<path d="M69209 32740
L69646 32740
" />
<path d="M67953 32740
L68390 32740
" />
<path d="M69209 32756
L69656 32756
" />
<path d="M67943 32756
L68390 32756
" />
<path d="M69209 32772
L69666 32772
" />
<path d="M67933 32772
L68390 32772
" />
<path d="M69209 32787
L69675 32787
" />
<path d="M67924 32787
L68390 32787
" />
<path d="M69209 32803
L69684 32803
" />
<path d="M67915 32803
L68390 32803
" />
<path d="M69209 32819
L69692 32819
" />
<path d="M67907 32819
L68390 32819
" />
<path d="M69209 32835
L69701 32835
" />
<path d="M67898 32835
L68390 32835
" />
<path d="M69209 32850
L69709 32850
" />
<path d="M67890 32850
L68390 32850
" />
<path d="M69209 32866
L69716 32866
" />
<path d="M67883 32866
L68390 32866
" />
<path d="M69209 32882
L69724 32882
" />
<path d="M67875 32882
L68390 32882
" />
<path d="M69209 32898
L69731 32898
" />
<path d="M67868 32898
L68390 32898
" />
<path d="M69209 32913
L69737 32913
" />
<path d="M67862 32913
L68390 32913
" />
<path d="M69209 32929
L69744 32929
" />
<path d="M67855 32929
L68390 32929
" />
<path d="M69209 32945
L69750 32945
" />
<path d="M67849 32945
L68390 32945
" />
<path d="M69209 32961
L69755 32961
" />
<path d="M67844 32961
L68390 32961
" />
<path d="M69209 32976
L69761 32976
" />
<path d="M67838 32976
L68390 32976
" />
<path d="M69209 32992
L69766 32992
" />
<path d="M67833 32992
L68390 32992
" />
<path d="M69209 33008
L69771 33008
" />
<path d="M67828 33008
L68390 33008
" />
<path d="M69209 33024
L69776 33024
" />
<path d="M67823 33024
L68390 33024
" />
<path d="M69209 33040
L69780 33040
" />
<path d="M67819 33040
L68390 33040
" />
<path d="M69209 33055
L69784 33055
" />
<path d="M67815 33055
L68390 33055
" />
<path d="M69209 33071
L69788 33071
" />
<path d="M67811 33071
L68390 33071
" />
<path d="M69209 33087
L69792 33087
" />
<path d="M67807 33087
L68390 33087
" />
<path d="M69209 33103
L69795 33103
" />
<path d="M67804 33103
L68390 33103
" />
<path d="M69209 33118
L69798 33118
" />
<path d="M67801 33118
L68390 33118
" />
<path d="M69209 33134
L69801 33134
" />
<path d="M67798 33134
L68390 33134
" />
<path d="M69209 33150
L69803 33150
" />
<path d="M67796 33150
L68390 33150
" />
<path d="M69209 33166
L69806 33166
" />
<path d="M67793 33166
L68390 33166
" />
<path d="M69209 33181
L69808 33181
" />
<path d="M67791 33181
L68390 33181
" />
<path d="M69209 33197
L69809 33197
" />
<path d="M67790 33197
L68390 33197
" />
<path d="M69209 33213
L69811 33213
" />
<path d="M67788 33213
L68390 33213
" />
<path d="M67787 33229
L69812 33229
" />
<path d="M67785 33244
L69814 33244
" />
<path d="M67785 33260
L69814 33260
" />
<path d="M67784 33276
L69815 33276
" />
<path d="M67784 33292
L69815 33292
" />
<path d="M67784 33307
L69815 33307
" />
<circle cx="68800" cy="33307.9" r="1031.5" /> 
<circle cx="56692.1" cy="25200" r="1031.5" /> 
<path d="M56692 24184
L56692 26215
" />
<path d="M56707 24184
L56707 26215
" />
<path d="M56723 24184
L56723 26215
" />
<path d="M56739 24185
L56739 26214
" />
<path d="M56755 24185
L56755 26214
" />
<path d="M56770 24187
L56770 26212
" />
<path d="M56786 24188
L56786 24790
" />
<path d="M56786 25609
L56786 26211
" />
<path d="M56802 24190
L56802 24790
" />
<path d="M56802 25609
L56802 26209
" />
<path d="M56818 24191
L56818 24790
" />
<path d="M56818 25609
L56818 26208
" />
<path d="M56833 24193
L56833 24790
" />
<path d="M56833 25609
L56833 26206
" />
<path d="M56849 24196
L56849 24790
" />
<path d="M56849 25609
L56849 26203
" />
<path d="M56865 24198
L56865 24790
" />
<path d="M56865 25609
L56865 26201
" />
<path d="M56881 24201
L56881 24790
" />
<path d="M56881 25609
L56881 26198
" />
<path d="M56896 24204
L56896 24790
" />
<path d="M56896 25609
L56896 26195
" />
<path d="M56912 24207
L56912 24790
" />
<path d="M56912 25609
L56912 26192
" />
<path d="M56928 24211
L56928 24790
" />
<path d="M56928 25609
L56928 26188
" />
<path d="M56944 24215
L56944 24790
" />
<path d="M56944 25609
L56944 26184
" />
<path d="M56959 24219
L56959 24790
" />
<path d="M56959 25609
L56959 26180
" />
<path d="M56975 24223
L56975 24790
" />
<path d="M56975 25609
L56975 26176
" />
<path d="M56991 24228
L56991 24790
" />
<path d="M56991 25609
L56991 26171
" />
<path d="M57007 24233
L57007 24790
" />
<path d="M57007 25609
L57007 26166
" />
<path d="M57023 24238
L57023 24790
" />
<path d="M57023 25609
L57023 26161
" />
<path d="M57038 24244
L57038 24790
" />
<path d="M57038 25609
L57038 26155
" />
<path d="M57054 24249
L57054 24790
" />
<path d="M57054 25609
L57054 26150
" />
<path d="M57070 24255
L57070 24790
" />
<path d="M57070 25609
L57070 26144
" />
<path d="M57086 24262
L57086 24790
" />
<path d="M57086 25609
L57086 26137
" />
<path d="M57101 24268
L57101 24790
" />
<path d="M57101 25609
L57101 26131
" />
<path d="M57117 24275
L57117 24790
" />
<path d="M57117 25609
L57117 26124
" />
<path d="M57133 24283
L57133 24790
" />
<path d="M57133 25609
L57133 26116
" />
<path d="M57149 24290
L57149 24790
" />
<path d="M57149 25609
L57149 26109
" />
<path d="M57164 24298
L57164 24790
" />
<path d="M57164 25609
L57164 26101
" />
<path d="M57180 24307
L57180 24790
" />
<path d="M57180 25609
L57180 26092
" />
<path d="M57196 24315
L57196 24790
" />
<path d="M57196 25609
L57196 26084
" />
<path d="M57212 24324
L57212 24790
" />
<path d="M57212 25609
L57212 26075
" />
<path d="M57227 24333
L57227 24790
" />
<path d="M57227 25609
L57227 26066
" />
<path d="M57243 24343
L57243 24790
" />
<path d="M57243 25609
L57243 26056
" />
<path d="M57259 24353
L57259 24790
" />
<path d="M57259 25609
L57259 26046
" />
<path d="M57275 24364
L57275 24790
" />
<path d="M57275 25609
L57275 26035
" />
<path d="M57290 24375
L57290 24790
" />
<path d="M57290 25609
L57290 26024
" />
<path d="M57306 24387
L57306 24790
" />
<path d="M57306 25609
L57306 26012
" />
<path d="M57322 24398
L57322 24790
" />
<path d="M57322 25609
L57322 26001
" />
<path d="M57338 24411
L57338 24790
" />
<path d="M57338 25609
L57338 25988
" />
<path d="M57353 24424
L57353 24790
" />
<path d="M57353 25609
L57353 25975
" />
<path d="M57369 24437
L57369 24790
" />
<path d="M57369 25609
L57369 25962
" />
<path d="M57385 24451
L57385 24790
" />
<path d="M57385 25609
L57385 25948
" />
<path d="M57401 24466
L57401 24790
" />
<path d="M57401 25609
L57401 25933
" />
<path d="M57416 24481
L57416 24790
" />
<path d="M57416 25609
L57416 25918
" />
<path d="M57432 24497
L57432 24790
" />
<path d="M57432 25609
L57432 25902
" />
<path d="M57448 24513
L57448 24790
" />
<path d="M57448 25609
L57448 25886
" />
<path d="M57464 24531
L57464 24790
" />
<path d="M57464 25609
L57464 25868
" />
<path d="M57479 24549
L57479 24790
" />
<path d="M57479 25609
L57479 25850
" />
<path d="M57495 24568
L57495 24790
" />
<path d="M57495 25609
L57495 25831
" />
<path d="M57511 24588
L57511 24790
" />
<path d="M57511 25609
L57511 25811
" />
<path d="M57527 24609
L57527 24790
" />
<path d="M57527 25609
L57527 25790
" />
<path d="M57542 24631
L57542 24790
" />
<path d="M57542 25609
L57542 25768
" />
<path d="M57558 24655
L57558 24790
" />
<path d="M57558 25609
L57558 25744
" />
<path d="M57574 24680
L57574 24790
" />
<path d="M57574 25609
L57574 25719
" />
<path d="M57590 24707
L57590 24790
" />
<path d="M57590 25609
L57590 25692
" />
<path d="M57605 24736
L57605 25663
" />
<path d="M57621 24767
L57621 25632
" />
<path d="M57637 24801
L57637 25598
" />
<path d="M57653 24839
L57653 25560
" />
<path d="M57668 24883
L57668 25516
" />
<path d="M57684 24933
L57684 25466
" />
<path d="M57700 24996
L57700 25403
" />
<path d="M57716 25088
L57716 25311
" />
<path d="M55587 24619
L55784 24619
" />
<path d="M55686 24520
L55686 24717
" />
<path d="M64113 25879
L64113 25682
" />
<path d="M64212 25780
L64015 25780
" />
<path d="M62083 25311
L62083 25088
" />
<path d="M62099 25403
L62099 24996
" />
<path d="M62115 25466
L62115 24933
" />
<path d="M62131 25516
L62131 24883
" />
<path d="M62146 25560
L62146 24839
" />
<path d="M62162 25598
L62162 24801
" />
<path d="M62178 25632
L62178 24767
" />
<path d="M62194 25663
L62194 24736
" />
<path d="M62209 24790
L62209 24707
" />
<path d="M62209 25692
L62209 25609
" />
<path d="M62225 24790
L62225 24680
" />
<path d="M62225 25719
L62225 25609
" />
<path d="M62241 24790
L62241 24655
" />
<path d="M62241 25744
L62241 25609
" />
<path d="M62257 24790
L62257 24631
" />
<path d="M62257 25768
L62257 25609
" />
<path d="M62272 24790
L62272 24609
" />
<path d="M62272 25790
L62272 25609
" />
<path d="M62288 24790
L62288 24588
" />
<path d="M62288 25811
L62288 25609
" />
<path d="M62304 24790
L62304 24568
" />
<path d="M62304 25831
L62304 25609
" />
<path d="M62320 24790
L62320 24549
" />
<path d="M62320 25850
L62320 25609
" />
<path d="M62335 24790
L62335 24531
" />
<path d="M62335 25868
L62335 25609
" />
<path d="M62351 24790
L62351 24513
" />
<path d="M62351 25886
L62351 25609
" />
<path d="M62367 24790
L62367 24497
" />
<path d="M62367 25902
L62367 25609
" />
<path d="M62383 24790
L62383 24481
" />
<path d="M62383 25918
L62383 25609
" />
<path d="M62398 24790
L62398 24466
" />
<path d="M62398 25933
L62398 25609
" />
<path d="M62414 24790
L62414 24451
" />
<path d="M62414 25948
L62414 25609
" />
<path d="M62430 24790
L62430 24437
" />
<path d="M62430 25962
L62430 25609
" />
<path d="M62446 24790
L62446 24424
" />
<path d="M62446 25975
L62446 25609
" />
<path d="M62461 24790
L62461 24411
" />
<path d="M62461 25988
L62461 25609
" />
<path d="M62477 24790
L62477 24398
" />
<path d="M62477 26001
L62477 25609
" />
<path d="M62493 24790
L62493 24387
" />
<path d="M62493 26012
L62493 25609
" />
<path d="M62509 24790
L62509 24375
" />
<path d="M62509 26024
L62509 25609
" />
<path d="M62524 24790
L62524 24364
" />
<path d="M62524 26035
L62524 25609
" />
<path d="M62540 24790
L62540 24353
" />
<path d="M62540 26046
L62540 25609
" />
<path d="M62556 24790
L62556 24343
" />
<path d="M62556 26056
L62556 25609
" />
<path d="M62572 24790
L62572 24333
" />
<path d="M62572 26066
L62572 25609
" />
<path d="M62587 24790
L62587 24324
" />
<path d="M62587 26075
L62587 25609
" />
<path d="M62603 24790
L62603 24315
" />
<path d="M62603 26084
L62603 25609
" />
<path d="M62619 24790
L62619 24307
" />
<path d="M62619 26092
L62619 25609
" />
<path d="M62635 24790
L62635 24298
" />
<path d="M62635 26101
L62635 25609
" />
<path d="M62650 24790
L62650 24290
" />
<path d="M62650 26109
L62650 25609
" />
<path d="M62666 24790
L62666 24283
" />
<path d="M62666 26116
L62666 25609
" />
<path d="M62682 24790
L62682 24275
" />
<path d="M62682 26124
L62682 25609
" />
<path d="M62698 24790
L62698 24268
" />
<path d="M62698 26131
L62698 25609
" />
<path d="M62713 24790
L62713 24262
" />
<path d="M62713 26137
L62713 25609
" />
<path d="M62729 24790
L62729 24255
" />
<path d="M62729 26144
L62729 25609
" />
<path d="M62745 24790
L62745 24249
" />
<path d="M62745 26150
L62745 25609
" />
<path d="M62761 24790
L62761 24244
" />
<path d="M62761 26155
L62761 25609
" />
<path d="M62776 24790
L62776 24238
" />
<path d="M62776 26161
L62776 25609
" />
<path d="M62792 24790
L62792 24233
" />
<path d="M62792 26166
L62792 25609
" />
<path d="M62808 24790
L62808 24228
" />
<path d="M62808 26171
L62808 25609
" />
<path d="M62824 24790
L62824 24223
" />
<path d="M62824 26176
L62824 25609
" />
<path d="M62840 24790
L62840 24219
" />
<path d="M62840 26180
L62840 25609
" />
<path d="M62855 24790
L62855 24215
" />
<path d="M62855 26184
L62855 25609
" />
<path d="M62871 24790
L62871 24211
" />
<path d="M62871 26188
L62871 25609
" />
<path d="M62887 24790
L62887 24207
" />
<path d="M62887 26192
L62887 25609
" />
<path d="M62903 24790
L62903 24204
" />
<path d="M62903 26195
L62903 25609
" />
<path d="M62918 24790
L62918 24201
" />
<path d="M62918 26198
L62918 25609
" />
<path d="M62934 24790
L62934 24198
" />
<path d="M62934 26201
L62934 25609
" />
<path d="M62950 24790
L62950 24196
" />
<path d="M62950 26203
L62950 25609
" />
<path d="M62966 24790
L62966 24193
" />
<path d="M62966 26206
L62966 25609
" />
<path d="M62981 24790
L62981 24191
" />
<path d="M62981 26208
L62981 25609
" />
<path d="M62997 24790
L62997 24190
" />
<path d="M62997 26209
L62997 25609
" />
<path d="M63013 24790
L63013 24188
" />
<path d="M63013 26211
L63013 25609
" />
<path d="M63029 26212
L63029 24187
" />
<path d="M63044 26214
L63044 24185
" />
<path d="M63060 26214
L63060 24185
" />
<path d="M63076 26215
L63076 24184
" />
<path d="M63092 26215
L63092 24184
" />
<path d="M63107 26215
L63107 24184
" />
<circle cx="63107.9" cy="25200" r="1031.5" /> 
<circle cx="50711" cy="43600" r="1622.05" /> 
<path d="M50711 45206
L50711 41993
" />
<path d="M50695 45206
L50695 41993
" />
<path d="M50679 45206
L50679 41993
" />
<path d="M50663 45205
L50663 41994
" />
<path d="M50648 45205
L50648 41994
" />
<path d="M50632 45204
L50632 41995
" />
<path d="M50616 45203
L50616 41996
" />
<path d="M50600 45202
L50600 41997
" />
<path d="M50585 45201
L50585 41998
" />
<path d="M50569 45200
L50569 41999
" />
<path d="M50553 45198
L50553 42001
" />
<path d="M50537 45197
L50537 42002
" />
<path d="M50522 45195
L50522 42004
" />
<path d="M50506 45193
L50506 42006
" />
<path d="M50490 45191
L50490 42008
" />
<path d="M50474 45189
L50474 42010
" />
<path d="M50459 45186
L50459 42013
" />
<path d="M50443 45184
L50443 42015
" />
<path d="M50427 45181
L50427 44009
" />
<path d="M50427 43190
L50427 42018
" />
<path d="M50411 45178
L50411 44009
" />
<path d="M50411 43190
L50411 42021
" />
<path d="M50395 45175
L50395 44009
" />
<path d="M50395 43190
L50395 42024
" />
<path d="M50379 45172
L50379 44009
" />
<path d="M50379 43190
L50379 42027
" />
<path d="M50364 45168
L50364 44009
" />
<path d="M50364 43190
L50364 42031
" />
<path d="M50348 45165
L50348 44009
" />
<path d="M50348 43190
L50348 42034
" />
<path d="M50332 45161
L50332 44009
" />
<path d="M50332 43190
L50332 42038
" />
<path d="M50316 45157
L50316 44009
" />
<path d="M50316 43190
L50316 42042
" />
<path d="M50301 45153
L50301 44009
" />
<path d="M50301 43190
L50301 42046
" />
<path d="M50285 45149
L50285 44009
" />
<path d="M50285 43190
L50285 42050
" />
<path d="M50269 45145
L50269 44009
" />
<path d="M50269 43190
L50269 42054
" />
<path d="M50253 45140
L50253 44009
" />
<path d="M50253 43190
L50253 42059
" />
<path d="M50238 45136
L50238 44009
" />
<path d="M50238 43190
L50238 42063
" />
<path d="M50222 45131
L50222 44009
" />
<path d="M50222 43190
L50222 42068
" />
<path d="M50206 45126
L50206 44009
" />
<path d="M50206 43190
L50206 42073
" />
<path d="M50190 45120
L50190 44009
" />
<path d="M50190 43190
L50190 42079
" />
<path d="M50175 45115
L50175 44009
" />
<path d="M50175 43190
L50175 42084
" />
<path d="M50159 45109
L50159 44009
" />
<path d="M50159 43190
L50159 42090
" />
<path d="M50143 45104
L50143 44009
" />
<path d="M50143 43190
L50143 42095
" />
<path d="M50127 45098
L50127 44009
" />
<path d="M50127 43190
L50127 42101
" />
<path d="M50112 45092
L50112 44009
" />
<path d="M50112 43190
L50112 42107
" />
<path d="M50096 45085
L50096 44009
" />
<path d="M50096 43190
L50096 42114
" />
<path d="M50080 45079
L50080 44009
" />
<path d="M50080 43190
L50080 42120
" />
<path d="M50064 45072
L50064 44009
" />
<path d="M50064 43190
L50064 42127
" />
<path d="M50049 45065
L50049 44009
" />
<path d="M50049 43190
L50049 42134
" />
<path d="M50033 45058
L50033 44009
" />
<path d="M50033 43190
L50033 42141
" />
<path d="M50017 45051
L50017 44009
" />
<path d="M50017 43190
L50017 42148
" />
<path d="M50001 45043
L50001 44009
" />
<path d="M50001 43190
L50001 42156
" />
<path d="M49986 45035
L49986 44009
" />
<path d="M49986 43190
L49986 42164
" />
<path d="M49970 45027
L49970 44009
" />
<path d="M49970 43190
L49970 42172
" />
<path d="M49954 45019
L49954 44009
" />
<path d="M49954 43190
L49954 42180
" />
<path d="M49938 45011
L49938 44009
" />
<path d="M49938 43190
L49938 42188
" />
<path d="M49923 45002
L49923 44009
" />
<path d="M49923 43190
L49923 42197
" />
<path d="M49907 44993
L49907 44009
" />
<path d="M49907 43190
L49907 42206
" />
<path d="M49891 44984
L49891 44009
" />
<path d="M49891 43190
L49891 42215
" />
<path d="M49875 44975
L49875 44009
" />
<path d="M49875 43190
L49875 42224
" />
<path d="M49860 44965
L49860 44009
" />
<path d="M49860 43190
L49860 42234
" />
<path d="M49844 44955
L49844 44009
" />
<path d="M49844 43190
L49844 42244
" />
<path d="M49828 44945
L49828 44009
" />
<path d="M49828 43190
L49828 42254
" />
<path d="M49812 44935
L49812 44009
" />
<path d="M49812 43190
L49812 42264
" />
<path d="M49797 44924
L49797 44009
" />
<path d="M49797 43190
L49797 42275
" />
<path d="M49781 44914
L49781 44009
" />
<path d="M49781 43190
L49781 42285
" />
<path d="M49765 44902
L49765 44009
" />
<path d="M49765 43190
L49765 42297
" />
<path d="M49750 44891
L49750 44009
" />
<path d="M49750 43190
L49750 42308
" />
<path d="M49734 44879
L49734 44009
" />
<path d="M49734 43190
L49734 42320
" />
<path d="M49718 44867
L49718 44009
" />
<path d="M49718 43190
L49718 42332
" />
<path d="M49702 44855
L49702 44009
" />
<path d="M49702 43190
L49702 42344
" />
<path d="M49687 44842
L49687 44009
" />
<path d="M49687 43190
L49687 42357
" />
<path d="M49671 44829
L49671 44009
" />
<path d="M49671 43190
L49671 42370
" />
<path d="M49655 44816
L49655 44009
" />
<path d="M49655 43190
L49655 42383
" />
<path d="M49639 44802
L49639 44009
" />
<path d="M49639 43190
L49639 42397
" />
<path d="M49624 44788
L49624 44009
" />
<path d="M49624 43190
L49624 42411
" />
<path d="M49608 44774
L49608 42425
" />
<path d="M49592 44759
L49592 42440
" />
<path d="M49576 44744
L49576 42455
" />
<path d="M49561 44728
L49561 42471
" />
<path d="M49545 44712
L49545 42487
" />
<path d="M49529 44696
L49529 42503
" />
<path d="M49513 44679
L49513 42520
" />
<path d="M49498 44661
L49498 42538
" />
<path d="M49482 44643
L49482 42556
" />
<path d="M49466 44625
L49466 42574
" />
<path d="M49450 44606
L49450 42593
" />
<path d="M49435 44586
L49435 42613
" />
<path d="M49419 44566
L49419 42633
" />
<path d="M49403 44544
L49403 42655
" />
<path d="M49387 44523
L49387 42676
" />
<path d="M49372 44500
L49372 42699
" />
<path d="M49356 44477
L49356 42722
" />
<path d="M49340 44452
L49340 42747
" />
<path d="M49324 44427
L49324 42772
" />
<path d="M49309 44400
L49309 42799
" />
<path d="M49293 44373
L49293 42826
" />
<path d="M49277 44344
L49277 42855
" />
<path d="M49261 44313
L49261 42886
" />
<path d="M49246 44281
L49246 42918
" />
<path d="M49230 44247
L49230 42952
" />
<path d="M49214 44211
L49214 42988
" />
<path d="M49198 44172
L49198 43027
" />
<path d="M49183 44129
L49183 43070
" />
<path d="M49167 44083
L49167 43116
" />
<path d="M49151 44032
L49151 43167
" />
<path d="M49135 43973
L49135 43226
" />
<path d="M49120 43902
L49120 43297
" />
<path d="M49104 43809
L49104 43390
" />
<path d="M52447 44511
L52132 44511
" />
<path d="M52289 44668
L52289 44353
" />
<path d="M54660 42060
L55739 42060
" />
<path d="M54660 45107
L55739 45107
" />
<path d="M55739 45107
L55739 42060
" />
<path d="M54660 45107
L54660 42060
" />
<path d="M62660 44939
L62660 41892
" />
<path d="M63739 44939
L63739 41892
" />
<path d="M62660 44939
L63739 44939
" />
<path d="M62660 41892
L63739 41892
" />
<path d="M77686 38120
L77686 38317
" />
<path d="M77587 38219
L77784 38219
" />
<path d="M79716 38688
L79716 38911
" />
<path d="M79700 38596
L79700 39003
" />
<path d="M79684 38533
L79684 39066
" />
<path d="M79668 38483
L79668 39116
" />
<path d="M79653 38439
L79653 39160
" />
<path d="M79637 38401
L79637 39198
" />
<path d="M79621 38367
L79621 39232
" />
<path d="M79605 38336
L79605 39263
" />
<path d="M79590 39209
L79590 39292
" />
<path d="M79590 38307
L79590 38390
" />
<path d="M79574 39209
L79574 39319
" />
<path d="M79574 38280
L79574 38390
" />
<path d="M79558 39209
L79558 39344
" />
<path d="M79558 38255
L79558 38390
" />
<path d="M79542 39209
L79542 39368
" />
<path d="M79542 38231
L79542 38390
" />
<path d="M79527 39209
L79527 39390
" />
<path d="M79527 38209
L79527 38390
" />
<path d="M79511 39209
L79511 39411
" />
<path d="M79511 38188
L79511 38390
" />
<path d="M79495 39209
L79495 39431
" />
<path d="M79495 38168
L79495 38390
" />
<path d="M79479 39209
L79479 39450
" />
<path d="M79479 38149
L79479 38390
" />
<path d="M79464 39209
L79464 39468
" />
<path d="M79464 38131
L79464 38390
" />
<path d="M79448 39209
L79448 39486
" />
<path d="M79448 38113
L79448 38390
" />
<path d="M79432 39209
L79432 39502
" />
<path d="M79432 38097
L79432 38390
" />
<path d="M79416 39209
L79416 39518
" />
<path d="M79416 38081
L79416 38390
" />
<path d="M79401 39209
L79401 39533
" />
<path d="M79401 38066
L79401 38390
" />
<path d="M79385 39209
L79385 39548
" />
<path d="M79385 38051
L79385 38390
" />
<path d="M79369 39209
L79369 39562
" />
<path d="M79369 38037
L79369 38390
" />
<path d="M79353 39209
L79353 39575
" />
<path d="M79353 38024
L79353 38390
" />
<path d="M79338 39209
L79338 39588
" />
<path d="M79338 38011
L79338 38390
" />
<path d="M79322 39209
L79322 39601
" />
<path d="M79322 37998
L79322 38390
" />
<path d="M79306 39209
L79306 39612
" />
<path d="M79306 37987
L79306 38390
" />
<path d="M79290 39209
L79290 39624
" />
<path d="M79290 37975
L79290 38390
" />
<path d="M79275 39209
L79275 39635
" />
<path d="M79275 37964
L79275 38390
" />
<path d="M79259 39209
L79259 39646
" />
<path d="M79259 37953
L79259 38390
" />
<path d="M79243 39209
L79243 39656
" />
<path d="M79243 37943
L79243 38390
" />
<path d="M79227 39209
L79227 39666
" />
<path d="M79227 37933
L79227 38390
" />
<path d="M79212 39209
L79212 39675
" />
<path d="M79212 37924
L79212 38390
" />
<path d="M79196 39209
L79196 39684
" />
<path d="M79196 37915
L79196 38390
" />
<path d="M79180 39209
L79180 39692
" />
<path d="M79180 37907
L79180 38390
" />
<path d="M79164 39209
L79164 39701
" />
<path d="M79164 37898
L79164 38390
" />
<path d="M79149 39209
L79149 39709
" />
<path d="M79149 37890
L79149 38390
" />
<path d="M79133 39209
L79133 39716
" />
<path d="M79133 37883
L79133 38390
" />
<path d="M79117 39209
L79117 39724
" />
<path d="M79117 37875
L79117 38390
" />
<path d="M79101 39209
L79101 39731
" />
<path d="M79101 37868
L79101 38390
" />
<path d="M79086 39209
L79086 39737
" />
<path d="M79086 37862
L79086 38390
" />
<path d="M79070 39209
L79070 39744
" />
<path d="M79070 37855
L79070 38390
" />
<path d="M79054 39209
L79054 39750
" />
<path d="M79054 37849
L79054 38390
" />
<path d="M79038 39209
L79038 39755
" />
<path d="M79038 37844
L79038 38390
" />
<path d="M79023 39209
L79023 39761
" />
<path d="M79023 37838
L79023 38390
" />
<path d="M79007 39209
L79007 39766
" />
<path d="M79007 37833
L79007 38390
" />
<path d="M78991 39209
L78991 39771
" />
<path d="M78991 37828
L78991 38390
" />
<path d="M78975 39209
L78975 39776
" />
<path d="M78975 37823
L78975 38390
" />
<path d="M78959 39209
L78959 39780
" />
<path d="M78959 37819
L78959 38390
" />
<path d="M78944 39209
L78944 39784
" />
<path d="M78944 37815
L78944 38390
" />
<path d="M78928 39209
L78928 39788
" />
<path d="M78928 37811
L78928 38390
" />
<path d="M78912 39209
L78912 39792
" />
<path d="M78912 37807
L78912 38390
" />
<path d="M78896 39209
L78896 39795
" />
<path d="M78896 37804
L78896 38390
" />
<path d="M78881 39209
L78881 39798
" />
<path d="M78881 37801
L78881 38390
" />
<path d="M78865 39209
L78865 39801
" />
<path d="M78865 37798
L78865 38390
" />
<path d="M78849 39209
L78849 39803
" />
<path d="M78849 37796
L78849 38390
" />
<path d="M78833 39209
L78833 39806
" />
<path d="M78833 37793
L78833 38390
" />
<path d="M78818 39209
L78818 39808
" />
<path d="M78818 37791
L78818 38390
" />
<path d="M78802 39209
L78802 39809
" />
<path d="M78802 37790
L78802 38390
" />
<path d="M78786 39209
L78786 39811
" />
<path d="M78786 37788
L78786 38390
" />
<path d="M78770 37787
L78770 39812
" />
<path d="M78755 37785
L78755 39814
" />
<path d="M78739 37785
L78739 39814
" />
<path d="M78723 37784
L78723 39815
" />
<path d="M78707 37784
L78707 39815
" />
<path d="M78692 37784
L78692 39815
" />
<circle cx="78692.1" cy="38800" r="1031.5" /> 
<circle cx="78692.1" cy="35200" r="1031.5" /> 
<path d="M78692 34184
L78692 36215
" />
<path d="M78707 34184
L78707 36215
" />
<path d="M78723 34184
L78723 36215
" />
<path d="M78739 34185
L78739 36214
" />
<path d="M78755 34185
L78755 36214
" />
<path d="M78770 34187
L78770 36212
" />
<path d="M78786 34188
L78786 34790
" />
<path d="M78786 35609
L78786 36211
" />
<path d="M78802 34190
L78802 34790
" />
<path d="M78802 35609
L78802 36209
" />
<path d="M78818 34191
L78818 34790
" />
<path d="M78818 35609
L78818 36208
" />
<path d="M78833 34193
L78833 34790
" />
<path d="M78833 35609
L78833 36206
" />
<path d="M78849 34196
L78849 34790
" />
<path d="M78849 35609
L78849 36203
" />
<path d="M78865 34198
L78865 34790
" />
<path d="M78865 35609
L78865 36201
" />
<path d="M78881 34201
L78881 34790
" />
<path d="M78881 35609
L78881 36198
" />
<path d="M78896 34204
L78896 34790
" />
<path d="M78896 35609
L78896 36195
" />
<path d="M78912 34207
L78912 34790
" />
<path d="M78912 35609
L78912 36192
" />
<path d="M78928 34211
L78928 34790
" />
<path d="M78928 35609
L78928 36188
" />
<path d="M78944 34215
L78944 34790
" />
<path d="M78944 35609
L78944 36184
" />
<path d="M78959 34219
L78959 34790
" />
<path d="M78959 35609
L78959 36180
" />
<path d="M78975 34223
L78975 34790
" />
<path d="M78975 35609
L78975 36176
" />
<path d="M78991 34228
L78991 34790
" />
<path d="M78991 35609
L78991 36171
" />
<path d="M79007 34233
L79007 34790
" />
<path d="M79007 35609
L79007 36166
" />
<path d="M79023 34238
L79023 34790
" />
<path d="M79023 35609
L79023 36161
" />
<path d="M79038 34244
L79038 34790
" />
<path d="M79038 35609
L79038 36155
" />
<path d="M79054 34249
L79054 34790
" />
<path d="M79054 35609
L79054 36150
" />
<path d="M79070 34255
L79070 34790
" />
<path d="M79070 35609
L79070 36144
" />
<path d="M79086 34262
L79086 34790
" />
<path d="M79086 35609
L79086 36137
" />
<path d="M79101 34268
L79101 34790
" />
<path d="M79101 35609
L79101 36131
" />
<path d="M79117 34275
L79117 34790
" />
<path d="M79117 35609
L79117 36124
" />
<path d="M79133 34283
L79133 34790
" />
<path d="M79133 35609
L79133 36116
" />
<path d="M79149 34290
L79149 34790
" />
<path d="M79149 35609
L79149 36109
" />
<path d="M79164 34298
L79164 34790
" />
<path d="M79164 35609
L79164 36101
" />
<path d="M79180 34307
L79180 34790
" />
<path d="M79180 35609
L79180 36092
" />
<path d="M79196 34315
L79196 34790
" />
<path d="M79196 35609
L79196 36084
" />
<path d="M79212 34324
L79212 34790
" />
<path d="M79212 35609
L79212 36075
" />
<path d="M79227 34333
L79227 34790
" />
<path d="M79227 35609
L79227 36066
" />
<path d="M79243 34343
L79243 34790
" />
<path d="M79243 35609
L79243 36056
" />
<path d="M79259 34353
L79259 34790
" />
<path d="M79259 35609
L79259 36046
" />
<path d="M79275 34364
L79275 34790
" />
<path d="M79275 35609
L79275 36035
" />
<path d="M79290 34375
L79290 34790
" />
<path d="M79290 35609
L79290 36024
" />
<path d="M79306 34387
L79306 34790
" />
<path d="M79306 35609
L79306 36012
" />
<path d="M79322 34398
L79322 34790
" />
<path d="M79322 35609
L79322 36001
" />
<path d="M79338 34411
L79338 34790
" />
<path d="M79338 35609
L79338 35988
" />
<path d="M79353 34424
L79353 34790
" />
<path d="M79353 35609
L79353 35975
" />
<path d="M79369 34437
L79369 34790
" />
<path d="M79369 35609
L79369 35962
" />
<path d="M79385 34451
L79385 34790
" />
<path d="M79385 35609
L79385 35948
" />
<path d="M79401 34466
L79401 34790
" />
<path d="M79401 35609
L79401 35933
" />
<path d="M79416 34481
L79416 34790
" />
<path d="M79416 35609
L79416 35918
" />
<path d="M79432 34497
L79432 34790
" />
<path d="M79432 35609
L79432 35902
" />
<path d="M79448 34513
L79448 34790
" />
<path d="M79448 35609
L79448 35886
" />
<path d="M79464 34531
L79464 34790
" />
<path d="M79464 35609
L79464 35868
" />
<path d="M79479 34549
L79479 34790
" />
<path d="M79479 35609
L79479 35850
" />
<path d="M79495 34568
L79495 34790
" />
<path d="M79495 35609
L79495 35831
" />
<path d="M79511 34588
L79511 34790
" />
<path d="M79511 35609
L79511 35811
" />
<path d="M79527 34609
L79527 34790
" />
<path d="M79527 35609
L79527 35790
" />
<path d="M79542 34631
L79542 34790
" />
<path d="M79542 35609
L79542 35768
" />
<path d="M79558 34655
L79558 34790
" />
<path d="M79558 35609
L79558 35744
" />
<path d="M79574 34680
L79574 34790
" />
<path d="M79574 35609
L79574 35719
" />
<path d="M79590 34707
L79590 34790
" />
<path d="M79590 35609
L79590 35692
" />
<path d="M79605 34736
L79605 35663
" />
<path d="M79621 34767
L79621 35632
" />
<path d="M79637 34801
L79637 35598
" />
<path d="M79653 34839
L79653 35560
" />
<path d="M79668 34883
L79668 35516
" />
<path d="M79684 34933
L79684 35466
" />
<path d="M79700 34996
L79700 35403
" />
<path d="M79716 35088
L79716 35311
" />
<path d="M77587 34619
L77784 34619
" />
<path d="M77686 34520
L77686 34717
" />
<path d="M53963 47978
L53963 46821
" />
<path d="M53869 47978
L53869 46821
" />
<path d="M53916 47978
L53916 46821
" />
<path d="M51727 47400
L52129 47400
" />
<path d="M54672 47400
L54270 47400
" />
<path d="M52129 47978
L54270 47978
" />
<path d="M52129 46821
L52129 47978
" />
<path d="M54270 46821
L52129 46821
" />
<path d="M54270 47978
L54270 46821
" />
<path d="M81286 43600
L81115 43698
" />
<path d="M81115 43501
L81286 43600
" />
<path d="M81115 43698
L81115 43501
" />
<path d="M81467 35322
L86325 35322
" />
<path d="M81467 47515
L81467 35322
" />
<path d="M86325 47515
L81467 47515
" />
<path d="M33678 37400
L34072 37006
" />
<path d="M33678 37400
L34072 37793
" />
<path d="M39505 40352
L33600 40352
" />
<path d="M39505 34447
L39505 40352
" />
<path d="M33600 34447
L39505 34447
" />
<path d="M33600 40352
L33600 34447
" />
<circle cx="46600" cy="48600" r="630.229" /> 
<circle cx="46500" cy="44700" r="630.229" /> 
<circle cx="45500" cy="38400" r="984.252" /> 
<path d="M44492 37791
L44492 39008
" />
<path d="M46677.2 38400.2 A1177.17 1177.17 0.0 0 0 44492.1 37791.8" />
<path d="M44492.1 39008.2 A1177.17 1177.17 0.0 0 0 46677.2 38399.8" />
<path d="M91248 28203
L91248 30660
" />
<path d="M87311 28203
L87311 30660
" />
<path d="M87311 30660
L91248 30660
" />
<path d="M87311 28203
L91248 28203
" />
<path d="M87311 28006
L87311 30856
" />
<path d="M85343 28006
L85343 30856
" />
<path d="M85343 30856
L87311 30856
" />
<path d="M85343 28006
L87311 28006
" />
<path d="M85343 25860
L85343 33002
" />
<path d="M81114 25860
L81114 33002
" />
<path d="M81114 33002
L85343 33002
" />
<path d="M81114 25860
L85343 25860
" />
<path d="M52076 29496
L52076 27500
" />
<path d="M55923 29496
L55923 27500
" />
<path d="M55923 27500
L52076 27500
" />
<path d="M55923 29496
L52076 29496
" />
<path d="M71896 39876
L71896 43723
" />
<path d="M69900 39876
L69900 43723
" />
<path d="M71896 39876
L69900 39876
" />
<path d="M71896 43723
L69900 43723
" />
<circle cx="78800" cy="47200" r="590.879" /> 
<circle cx="73800" cy="47200" r="590.879" /> 
<circle cx="76400" cy="47200" r="590.879" /> 
<circle cx="68800" cy="47400" r="590.879" /> 
<circle cx="42000" cy="34600" r="590.879" /> 
<circle cx="64200" cy="29200" r="590.879" /> 
<circle cx="42000" cy="36800" r="590.879" /> 
<path d="M74036 44469
L75551 44469
" />
<path d="M73885.6 44241.7 A1015.53 1015.53 0.0 0 0 74036.2 44469.3" />
<path d="M74800 42776.4 A1023.62 1023.62 0.0 0 0 73872.3 43367.4" />
<path d="M75727.7 43367.4 A1023.62 1023.62 0.0 0 0 74800 42776.4" />
<path d="M75552 44469.3 A1006.68 1006.68 0.0 0 0 75706.5 44237.9" />
<path d="M45669 35963
L45669 34448
" />
<path d="M45441.7 36114.4 A1015.53 1015.53 0.0 0 0 45669.3 35963.8" />
<path d="M43976.4 35200 A1023.62 1023.62 0.0 0 0 44567.4 36127.7" />
<path d="M44567.4 34272.3 A1023.62 1023.62 0.0 0 0 43976.4 35200" />
<path d="M45669.3 34448 A1006.68 1006.68 0.0 0 0 45437.9 34293.5" />
<path d="M74906 26676
L74414 26676
" />
<path d="M74414 26676
L74414 30723
" />
<path d="M74414 30723
L76185 30723
" />
<path d="M76185 30723
L76185 26676
" />
<path d="M76185 26676
L75693 26676
" />
<path d="M73233 26652
L73233 30747
" />
<path d="M73233 30747
L77366 30747
" />
<path d="M77366 30747
L77366 26652
" />
<path d="M77366 26652
L73233 26652
" />
<path d="M74906.3 26676.4 A393.701 393.701 0.0 0 0 75693.7 26676.4" />
<path d="M64693 36323
L65185 36323
" />
<path d="M65185 36323
L65185 32276
" />
<path d="M65185 32276
L63414 32276
" />
<path d="M63414 32276
L63414 36323
" />
<path d="M63414 36323
L63906 36323
" />
<path d="M66366 36347
L66366 32252
" />
<path d="M66366 32252
L62233 32252
" />
<path d="M62233 32252
L62233 36347
" />
<path d="M62233 36347
L66366 36347
" />
<path d="M64693.7 36323.6 A393.701 393.701 0.0 0 0 63906.3 36323.6" />
<path d="M54033 36347
L58166 36347
" />
<path d="M54033 32252
L54033 36347
" />
<path d="M58166 32252
L54033 32252
" />
<path d="M58166 36347
L58166 32252
" />
<path d="M55214 36323
L55706 36323
" />
<path d="M55214 32276
L55214 36323
" />
<path d="M56985 32276
L55214 32276
" />
<path d="M56985 36323
L56985 32276
" />
<path d="M56493 36323
L56985 36323
" />
<path d="M56493.7 36323.6 A393.701 393.701 0.0 0 0 55706.3 36323.6" />
<path d="M68009 30200
L68312 30200
" />
<path d="M71190 30200
L70887 30200
" />
<path d="M68312 30739
L70887 30739
" />
<path d="M68312 29660
L68312 30739
" />
<path d="M70887 29660
L68312 29660
" />
<path d="M70887 30739
L70887 29660
" />
<path d="M68009 27600
L68312 27600
" />
<path d="M71190 27600
L70887 27600
" />
<path d="M68312 28139
L70887 28139
" />
<path d="M68312 27060
L68312 28139
" />
<path d="M70887 27060
L68312 27060
" />
<path d="M70887 28139
L70887 27060
" />
<path d="M78260 30287
L79339 30287
" />
<path d="M79339 30287
L79339 27712
" />
<path d="M79339 27712
L78260 27712
" />
<path d="M78260 27712
L78260 30287
" />
<path d="M78800 30590
L78800 30287
" />
<path d="M78800 27409
L78800 27712
" />
<path d="M76190 33200
L75887 33200
" />
<path d="M73009 33200
L73312 33200
" />
<path d="M75887 32660
L73312 32660
" />
<path d="M75887 33739
L75887 32660
" />
<path d="M73312 33739
L75887 33739
" />
<path d="M73312 32660
L73312 33739
" />
<path d="M60200 29409
L60200 29712
" />
<path d="M60200 32590
L60200 32287
" />
<path d="M59660 29712
L59660 32287
" />
<path d="M60739 29712
L59660 29712
" />
<path d="M60739 32287
L60739 29712
" />
<path d="M59660 32287
L60739 32287
" />
<path d="M47712 34660
L47712 35739
" />
<path d="M47712 35739
L50287 35739
" />
<path d="M50287 35739
L50287 34660
" />
<path d="M50287 34660
L47712 34660
" />
<path d="M47409 35200
L47712 35200
" />
<path d="M50590 35200
L50287 35200
" />
<path d="M45712 32660
L45712 33739
" />
<path d="M45712 33739
L48287 33739
" />
<path d="M48287 33739
L48287 32660
" />
<path d="M48287 32660
L45712 32660
" />
<path d="M45409 33200
L45712 33200
" />
<path d="M48590 33200
L48287 33200
" />
<path d="M74091 40928
L75508 40928
" />
<path d="M75508.7 40928.3 A1016.21 1016.21 0.0 0 0 75715 40642" />
<path d="M75727.7 39767.4 A1023.62 1023.62 0.0 0 0 74800 39176.4" />
<path d="M74800 39176.4 A1023.62 1023.62 0.0 0 0 73872.3 39767.4" />
<path d="M73885 40642 A1016.21 1016.21 0.0 0 0 74091.3 40928.3" />
</g>
<g style="fill:#000000; fill-opacity:0.0; 
stroke:#000000; stroke-width:59.0551; stroke-opacity:1; 
stroke-linecap:round; stroke-linejoin:round;">
<text x="59400" y="39494.5"
textLength="864.173" font-size="524.934" lengthAdjust="spacingAndGlyphs"
text-anchor="middle" opacity="0">U5</text>
<path d="M59100 39082
L59100 39400
L59118 39438
L59137 39456
L59175 39475
L59250 39475
L59287 39456
L59306 39438
L59325 39400
L59325 39082
" />
<path d="M59699 39082
L59512 39082
L59493 39269
L59512 39250
L59549 39232
L59643 39232
L59681 39250
L59699 39269
L59718 39307
L59718 39400
L59699 39438
L59681 39456
L59643 39475
L59549 39475
L59512 39456
L59493 39438
" />
<text x="66711" y="45863.8"
textLength="845.426" font-size="524.934" lengthAdjust="spacingAndGlyphs"
text-anchor="middle" opacity="0">C9</text>
<path d="M66645 45807
L66626 45826
L66570 45845
L66532 45845
L66476 45826
L66439 45788
L66420 45751
L66401 45676
L66401 45620
L66420 45545
L66439 45507
L66476 45470
L66532 45451
L66570 45451
L66626 45470
L66645 45488
" />
<path d="M66832 45845
L66907 45845
L66945 45826
L66964 45807
L67001 45751
L67020 45676
L67020 45526
L67001 45488
L66982 45470
L66945 45451
L66870 45451
L66832 45470
L66814 45488
L66795 45526
L66795 45620
L66814 45657
L66832 45676
L66870 45695
L66945 45695
L66982 45676
L67001 45657
L67020 45620
" />
<text x="48800" y="21540.2"
textLength="864.173" font-size="524.934" lengthAdjust="spacingAndGlyphs"
text-anchor="middle" opacity="0">H1</text>
<path d="M48500 21521
L48500 21127
" />
<path d="M48500 21315
L48725 21315
" />
<path d="M48725 21521
L48725 21127
" />
<path d="M49118 21521
L48893 21521
" />
<path d="M49006 21521
L49006 21127
L48968 21183
L48931 21221
L48893 21240
" />
<text x="69600" y="21540.2"
textLength="864.173" font-size="524.934" lengthAdjust="spacingAndGlyphs"
text-anchor="middle" opacity="0">H2</text>
<path d="M69300 21521
L69300 21127
" />
<path d="M69300 21315
L69525 21315
" />
<path d="M69525 21521
L69525 21127
" />
<path d="M69693 21165
L69712 21146
L69749 21127
L69843 21127
L69881 21146
L69899 21165
L69918 21202
L69918 21240
L69899 21296
L69674 21521
L69918 21521
" />
<text x="48800" y="49940.2"
textLength="864.173" font-size="524.934" lengthAdjust="spacingAndGlyphs"
text-anchor="middle" opacity="0">H3</text>
<path d="M48500 49921
L48500 49527
" />
<path d="M48500 49715
L48725 49715
" />
<path d="M48725 49921
L48725 49527
" />
<path d="M48874 49527
L49118 49527
L48987 49677
L49043 49677
L49081 49696
L49099 49715
L49118 49752
L49118 49846
L49099 49883
L49081 49902
L49043 49921
L48931 49921
L48893 49902
L48874 49883
" />
<text x="69600" y="49940.2"
textLength="864.173" font-size="524.934" lengthAdjust="spacingAndGlyphs"
text-anchor="middle" opacity="0">H4</text>
<path d="M69300 49921
L69300 49527
" />
<path d="M69300 49715
L69525 49715
" />
<path d="M69525 49921
L69525 49527
" />
<path d="M69881 49658
L69881 49921
" />
<path d="M69787 49508
L69693 49790
L69937 49790
" />
<g transform="rotate(-90 50400 28400)">
<text x="50400" y="28596.9"
textLength="4519.97" font-size="524.934" lengthAdjust="spacingAndGlyphs"
text-anchor="middle" opacity="0">Arduino_NANO1</text>
</g>
<path d="M50465 30546
L50465 30359
" />
<path d="M50578 30584
L50184 30452
L50578 30321
" />
<path d="M50578 30190
L50315 30190
" />
<path d="M50390 30190
L50353 30171
L50334 30152
L50315 30115
L50315 30077
" />
<path d="M50578 29777
L50184 29777
" />
<path d="M50559 29777
L50578 29815
L50578 29890
L50559 29927
L50540 29946
L50503 29965
L50390 29965
L50353 29946
L50334 29927
L50315 29890
L50315 29815
L50334 29777
" />
<path d="M50315 29421
L50578 29421
" />
<path d="M50315 29590
L50521 29590
L50559 29571
L50578 29534
L50578 29477
L50559 29440
L50540 29421
" />
<path d="M50578 29234
L50315 29234
" />
<path d="M50184 29234
L50203 29253
L50221 29234
L50203 29215
L50184 29234
L50221 29234
" />
<path d="M50315 29046
L50578 29046
" />
<path d="M50353 29046
L50334 29028
L50315 28990
L50315 28934
L50334 28896
L50371 28878
L50578 28878
" />
<path d="M50578 28634
L50559 28671
L50540 28690
L50503 28709
L50390 28709
L50353 28690
L50334 28671
L50315 28634
L50315 28578
L50334 28540
L50353 28521
L50390 28503
L50503 28503
L50540 28521
L50559 28540
L50578 28578
L50578 28634
" />
<path d="M50615 28428
L50615 28128
" />
<path d="M50578 28034
L50184 28034
L50578 27809
L50184 27809
" />
<path d="M50465 27640
L50465 27453
" />
<path d="M50578 27678
L50184 27546
L50578 27415
" />
<path d="M50578 27284
L50184 27284
L50578 27059
L50184 27059
" />
<path d="M50184 26797
L50184 26722
L50203 26684
L50240 26647
L50315 26628
L50446 26628
L50521 26647
L50559 26684
L50578 26722
L50578 26797
L50559 26834
L50521 26872
L50446 26890
L50315 26890
L50240 26872
L50203 26834
L50184 26797
" />
<path d="M50578 26253
L50578 26478
" />
<path d="M50578 26365
L50184 26365
L50240 26403
L50278 26440
L50296 26478
" />
<text x="72907.9" y="37673.2"
textLength="845.426" font-size="524.934" lengthAdjust="spacingAndGlyphs"
text-anchor="middle" opacity="0">C2</text>
<path d="M72842 37616
L72823 37635
L72767 37654
L72729 37654
L72673 37635
L72636 37598
L72617 37560
L72598 37485
L72598 37429
L72617 37354
L72636 37317
L72673 37279
L72729 37260
L72767 37260
L72823 37279
L72842 37298
" />
<path d="M72992 37298
L73010 37279
L73048 37260
L73142 37260
L73179 37279
L73198 37298
L73217 37335
L73217 37373
L73198 37429
L72973 37654
L73217 37654
" />
<g transform="rotate(-90 67323.6 33307.9)">
<text x="67323.6" y="33504.7"
textLength="845.426" font-size="524.934" lengthAdjust="spacingAndGlyphs"
text-anchor="middle" opacity="0">C3</text>
</g>
<path d="M67464 33373
L67482 33392
L67501 33448
L67501 33485
L67482 33542
L67445 33579
L67407 33598
L67332 33617
L67276 33617
L67201 33598
L67164 33579
L67126 33542
L67108 33485
L67108 33448
L67126 33392
L67145 33373
" />
<path d="M67108 33242
L67108 32998
L67258 33129
L67258 33073
L67276 33036
L67295 33017
L67332 32998
L67426 32998
L67464 33017
L67482 33036
L67501 33073
L67501 33186
L67482 33223
L67464 33242
" />
<text x="56692.1" y="23920.5"
textLength="845.426" font-size="524.934" lengthAdjust="spacingAndGlyphs"
text-anchor="middle" opacity="0">C4</text>
<path d="M56626 23864
L56607 23882
L56551 23901
L56514 23901
L56457 23882
L56420 23845
L56401 23807
L56382 23732
L56382 23676
L56401 23601
L56420 23564
L56457 23526
L56514 23508
L56551 23508
L56607 23526
L56626 23545
" />
<path d="M56963 23639
L56963 23901
" />
<path d="M56870 23489
L56776 23770
L57020 23770
" />
<text x="63107.9" y="26873.2"
textLength="845.426" font-size="524.934" lengthAdjust="spacingAndGlyphs"
text-anchor="middle" opacity="0">C5</text>
<path d="M63042 26816
L63023 26835
L62967 26854
L62929 26854
L62873 26835
L62836 26798
L62817 26760
L62798 26685
L62798 26629
L62817 26554
L62836 26517
L62873 26479
L62929 26460
L62967 26460
L63023 26479
L63042 26498
" />
<path d="M63398 26460
L63210 26460
L63192 26648
L63210 26629
L63248 26610
L63342 26610
L63379 26629
L63398 26648
L63417 26685
L63417 26779
L63398 26816
L63379 26835
L63342 26854
L63248 26854
L63210 26835
L63192 26816
" />
<text x="50711" y="45863.8"
textLength="845.426" font-size="524.934" lengthAdjust="spacingAndGlyphs"
text-anchor="middle" opacity="0">C6</text>
<path d="M50645 45807
L50626 45826
L50570 45845
L50532 45845
L50476 45826
L50439 45788
L50420 45751
L50401 45676
L50401 45620
L50420 45545
L50439 45507
L50476 45470
L50532 45451
L50570 45451
L50626 45470
L50645 45488
" />
<path d="M50982 45451
L50907 45451
L50870 45470
L50851 45488
L50814 45545
L50795 45620
L50795 45770
L50814 45807
L50832 45826
L50870 45845
L50945 45845
L50982 45826
L51001 45807
L51020 45770
L51020 45676
L51001 45638
L50982 45620
L50945 45601
L50870 45601
L50832 45620
L50814 45638
L50795 45676
" />
<g transform="rotate(-90 54215.7 43584.3)">
<text x="54215.7" y="43781.1"
textLength="845.426" font-size="524.934" lengthAdjust="spacingAndGlyphs"
text-anchor="middle" opacity="0">C7</text>
</g>
<path d="M54356 43649
L54375 43668
L54393 43724
L54393 43762
L54375 43818
L54337 43856
L54300 43874
L54225 43893
L54168 43893
L54093 43874
L54056 43856
L54018 43818
L54000 43762
L54000 43724
L54018 43668
L54037 43649
" />
<path d="M54000 43518
L54000 43256
L54393 43424
" />
<g transform="rotate(-90 62215.7 43415.7)">
<text x="62215.7" y="43612.6"
textLength="845.426" font-size="524.934" lengthAdjust="spacingAndGlyphs"
text-anchor="middle" opacity="0">C8</text>
</g>
<path d="M62356 43481
L62375 43500
L62393 43556
L62393 43593
L62375 43650
L62337 43687
L62300 43706
L62225 43725
L62168 43725
L62093 43706
L62056 43687
L62018 43650
L62000 43593
L62000 43556
L62018 43500
L62037 43481
" />
<path d="M62168 43256
L62150 43293
L62131 43312
L62093 43331
L62075 43331
L62037 43312
L62018 43293
L62000 43256
L62000 43181
L62018 43143
L62037 43125
L62075 43106
L62093 43106
L62131 43125
L62150 43143
L62168 43181
L62168 43256
L62187 43293
L62206 43312
L62243 43331
L62318 43331
L62356 43312
L62375 43293
L62393 43256
L62393 43181
L62375 43143
L62356 43125
L62318 43106
L62243 43106
L62206 43125
L62187 43143
L62168 43181
" />
<text x="78692.1" y="37520.5"
textLength="1557.84" font-size="524.934" lengthAdjust="spacingAndGlyphs"
text-anchor="middle" opacity="0">C1A1</text>
<path d="M78270 37464
L78251 37482
L78195 37501
L78157 37501
L78101 37482
L78064 37445
L78045 37407
L78026 37332
L78026 37276
L78045 37201
L78064 37164
L78101 37126
L78157 37108
L78195 37108
L78251 37126
L78270 37145
" />
<path d="M78645 37501
L78420 37501
" />
<path d="M78532 37501
L78532 37108
L78495 37164
L78457 37201
L78420 37220
" />
<path d="M78795 37389
L78982 37389
" />
<path d="M78757 37501
L78888 37108
L79020 37501
" />
<path d="M79357 37501
L79132 37501
" />
<path d="M79245 37501
L79245 37108
L79207 37164
L79170 37201
L79132 37220
" />
<text x="78692.1" y="33920.5"
textLength="1614.08" font-size="524.934" lengthAdjust="spacingAndGlyphs"
text-anchor="middle" opacity="0">C1B1</text>
<path d="M78242 33864
L78223 33882
L78167 33901
L78129 33901
L78073 33882
L78035 33845
L78017 33807
L77998 33732
L77998 33676
L78017 33601
L78035 33564
L78073 33526
L78129 33508
L78167 33508
L78223 33526
L78242 33545
" />
<path d="M78617 33901
L78392 33901
" />
<path d="M78504 33901
L78504 33508
L78467 33564
L78429 33601
L78392 33620
" />
<path d="M78917 33695
L78973 33714
L78992 33732
L79010 33770
L79010 33826
L78992 33864
L78973 33882
L78935 33901
L78785 33901
L78785 33508
L78917 33508
L78954 33526
L78973 33545
L78992 33583
L78992 33620
L78973 33658
L78954 33676
L78917 33695
L78785 33695
" />
<path d="M79385 33901
L79160 33901
" />
<path d="M79273 33901
L79273 33508
L79235 33564
L79198 33601
L79160 33620
" />
<text x="53200" y="48569.3"
textLength="845.426" font-size="524.934" lengthAdjust="spacingAndGlyphs"
text-anchor="middle" opacity="0">D1</text>
<path d="M52909 48550
L52909 48156
L53003 48156
L53059 48175
L53096 48213
L53115 48250
L53134 48325
L53134 48381
L53115 48456
L53096 48494
L53059 48531
L53003 48550
L52909 48550
" />
<path d="M53509 48550
L53284 48550
" />
<path d="M53396 48550
L53396 48156
L53359 48213
L53321 48250
L53284 48269
" />
<text x="55200" y="48423.6"
textLength="470.472" font-size="524.934" lengthAdjust="spacingAndGlyphs"
text-anchor="middle" opacity="0">K</text>
<path d="M55096 48404
L55096 48011
" />
<path d="M55321 48404
L55153 48179
" />
<path d="M55321 48011
L55096 48236
" />
<g transform="rotate(-90 81097.6 41418.9)">
<text x="81097.6" y="41615.7"
textLength="751.687" font-size="524.934" lengthAdjust="spacingAndGlyphs"
text-anchor="middle" opacity="0">J1</text>
</g>
<path d="M80882 41550
L81163 41550
L81219 41568
L81256 41606
L81275 41662
L81275 41700
" />
<path d="M81275 41156
L81275 41381
" />
<path d="M81275 41268
L80882 41268
L80938 41306
L80975 41343
L80994 41381
" />
<g transform="rotate(-90 40174.8 37400)">
<text x="40174.8" y="37596.9"
textLength="751.687" font-size="524.934" lengthAdjust="spacingAndGlyphs"
text-anchor="middle" opacity="0">J2</text>
</g>
<path d="M39959 37531
L40240 37531
L40296 37549
L40334 37587
L40352 37643
L40352 37681
" />
<path d="M39996 37362
L39977 37343
L39959 37306
L39959 37212
L39977 37175
L39996 37156
L40034 37137
L40071 37137
L40127 37156
L40352 37381
L40352 37137
" />
<text x="46600" y="49741.7"
textLength="751.687" font-size="524.934" lengthAdjust="spacingAndGlyphs"
text-anchor="middle" opacity="0">J3</text>
<path d="M46468 49329
L46468 49610
L46450 49666
L46412 49704
L46356 49722
L46318 49722
" />
<path d="M46618 49329
L46862 49329
L46731 49479
L46787 49479
L46824 49498
L46843 49516
L46862 49554
L46862 49647
L46843 49685
L46824 49704
L46787 49722
L46674 49722
L46637 49704
L46618 49685
" />
<text x="46500" y="45841.7"
textLength="751.687" font-size="524.934" lengthAdjust="spacingAndGlyphs"
text-anchor="middle" opacity="0">J4</text>
<path d="M46368 45429
L46368 45710
L46350 45766
L46312 45804
L46256 45822
L46218 45822
" />
<path d="M46724 45560
L46724 45822
" />
<path d="M46631 45410
L46537 45691
L46781 45691
" />
<text x="45500" y="37037.8"
textLength="1164.14" font-size="524.934" lengthAdjust="spacingAndGlyphs"
text-anchor="middle" opacity="0">LD1</text>
<path d="M45237 37019
L45050 37019
L45050 36625
" />
<path d="M45368 37019
L45368 36625
L45462 36625
L45518 36644
L45556 36681
L45574 36719
L45593 36794
L45593 36850
L45574 36925
L45556 36962
L45518 37000
L45462 37019
L45368 37019
" />
<path d="M45968 37019
L45743 37019
" />
<path d="M45856 37019
L45856 36625
L45818 36681
L45781 36719
L45743 36737
" />
<text x="83800" y="25612.6"
textLength="845.426" font-size="524.934" lengthAdjust="spacingAndGlyphs"
text-anchor="middle" opacity="0">R3</text>
<path d="M83734 25593
L83603 25406
" />
<path d="M83509 25593
L83509 25200
L83659 25200
L83696 25218
L83715 25237
L83734 25275
L83734 25331
L83715 25368
L83696 25387
L83659 25406
L83509 25406
" />
<path d="M83865 25200
L84109 25200
L83978 25350
L84034 25350
L84071 25368
L84090 25387
L84109 25425
L84109 25518
L84090 25556
L84071 25575
L84034 25593
L83921 25593
L83884 25575
L83865 25556
" />
<text x="54000" y="30137.8"
textLength="845.426" font-size="524.934" lengthAdjust="spacingAndGlyphs"
text-anchor="middle" opacity="0">P1</text>
<path d="M53709 30119
L53709 29725
L53859 29725
L53896 29744
L53915 29762
L53934 29800
L53934 29856
L53915 29894
L53896 29912
L53859 29931
L53709 29931
" />
<path d="M54309 30119
L54084 30119
" />
<path d="M54196 30119
L54196 29725
L54159 29781
L54121 29819
L54084 29837
" />
<g transform="rotate(-90 72340.9 41800)">
<text x="72340.9" y="41996.9"
textLength="1182.88" font-size="524.934" lengthAdjust="spacingAndGlyphs"
text-anchor="middle" opacity="0">RV1</text>
</g>
<path d="M72519 42034
L72331 42165
" />
<path d="M72519 42259
L72125 42259
L72125 42109
L72144 42071
L72162 42053
L72200 42034
L72256 42034
L72294 42053
L72312 42071
L72331 42109
L72331 42259
" />
<path d="M72125 41921
L72519 41790
L72125 41659
" />
<path d="M72519 41321
L72519 41546
" />
<path d="M72519 41434
L72125 41434
L72181 41471
L72219 41509
L72237 41546
" />
<text x="78800" y="48282.7"
textLength="1370.36" font-size="524.934" lengthAdjust="spacingAndGlyphs"
text-anchor="middle" opacity="0">IRA1</text>
<path d="M78246 48263
L78246 47870
" />
<path d="M78659 48263
L78528 48076
" />
<path d="M78434 48263
L78434 47870
L78584 47870
L78621 47888
L78640 47907
L78659 47945
L78659 48001
L78640 48038
L78621 48057
L78584 48076
L78434 48076
" />
<path d="M78809 48151
L78996 48151
" />
<path d="M78771 48263
L78903 47870
L79034 48263
" />
<path d="M79371 48263
L79146 48263
" />
<path d="M79259 48263
L79259 47870
L79221 47926
L79184 47963
L79146 47982
" />
<text x="73800" y="48282.7"
textLength="845.426" font-size="524.934" lengthAdjust="spacingAndGlyphs"
text-anchor="middle" opacity="0">K1</text>
<path d="M73509 48263
L73509 47870
" />
<path d="M73734 48263
L73565 48038
" />
<path d="M73734 47870
L73509 48095
" />
<path d="M74109 48263
L73884 48263
" />
<path d="M73996 48263
L73996 47870
L73959 47926
L73921 47963
L73884 47982
" />
<text x="76400" y="48282.7"
textLength="1426.6" font-size="524.934" lengthAdjust="spacingAndGlyphs"
text-anchor="middle" opacity="0">IRK1</text>
<path d="M75818 48263
L75818 47870
" />
<path d="M76231 48263
L76100 48076
" />
<path d="M76006 48263
L76006 47870
L76156 47870
L76193 47888
L76212 47907
L76231 47945
L76231 48001
L76212 48038
L76193 48057
L76156 48076
L76006 48076
" />
<path d="M76400 48263
L76400 47870
" />
<path d="M76624 48263
L76456 48038
" />
<path d="M76624 47870
L76400 48095
" />
<path d="M76999 48263
L76774 48263
" />
<path d="M76887 48263
L76887 47870
L76849 47926
L76812 47963
L76774 47982
" />
<text x="68800" y="48482.7"
textLength="789.183" font-size="524.934" lengthAdjust="spacingAndGlyphs"
text-anchor="middle" opacity="0">A1</text>
<path d="M68518 48351
L68706 48351
" />
<path d="M68481 48463
L68612 48070
L68743 48463
" />
<path d="M69081 48463
L68856 48463
" />
<path d="M68968 48463
L68968 48070
L68931 48126
L68893 48163
L68856 48182
" />
<text x="42000" y="35682.7"
textLength="1314.12" font-size="524.934" lengthAdjust="spacingAndGlyphs"
text-anchor="middle" opacity="0">J2.1</text>
<path d="M41587 35270
L41587 35551
L41568 35607
L41531 35645
L41475 35663
L41437 35663
" />
<path d="M41756 35307
L41775 35288
L41812 35270
L41906 35270
L41943 35288
L41962 35307
L41981 35345
L41981 35382
L41962 35438
L41737 35663
L41981 35663
" />
<path d="M42149 35626
L42168 35645
L42149 35663
L42131 35645
L42149 35626
L42149 35663
" />
<path d="M42543 35663
L42318 35663
" />
<path d="M42431 35663
L42431 35270
L42393 35326
L42356 35363
L42318 35382
" />
<text x="64200" y="30282.7"
textLength="1314.12" font-size="524.934" lengthAdjust="spacingAndGlyphs"
text-anchor="middle" opacity="0">J2.3</text>
<path d="M63787 29870
L63787 30151
L63768 30207
L63731 30245
L63675 30263
L63637 30263
" />
<path d="M63956 29907
L63975 29888
L64012 29870
L64106 29870
L64143 29888
L64162 29907
L64181 29945
L64181 29982
L64162 30038
L63937 30263
L64181 30263
" />
<path d="M64349 30226
L64368 30245
L64349 30263
L64331 30245
L64349 30226
L64349 30263
" />
<path d="M64499 29870
L64743 29870
L64612 30020
L64668 30020
L64706 30038
L64724 30057
L64743 30095
L64743 30188
L64724 30226
L64706 30245
L64668 30263
L64556 30263
L64518 30245
L64499 30226
" />
<text x="42000" y="37882.7"
textLength="1314.12" font-size="524.934" lengthAdjust="spacingAndGlyphs"
text-anchor="middle" opacity="0">J2.2</text>
<path d="M41587 37470
L41587 37751
L41568 37807
L41531 37845
L41475 37863
L41437 37863
" />
<path d="M41756 37507
L41775 37488
L41812 37470
L41906 37470
L41943 37488
L41962 37507
L41981 37545
L41981 37582
L41962 37638
L41737 37863
L41981 37863
" />
<path d="M42149 37826
L42168 37845
L42149 37863
L42131 37845
L42149 37826
L42149 37863
" />
<path d="M42318 37507
L42337 37488
L42374 37470
L42468 37470
L42506 37488
L42524 37507
L42543 37545
L42543 37582
L42524 37638
L42299 37863
L42543 37863
" />
<text x="74800" y="42595.3"
textLength="864.173" font-size="524.934" lengthAdjust="spacingAndGlyphs"
text-anchor="middle" opacity="0">Q1</text>
<path d="M74762 42614
L74725 42595
L74687 42557
L74631 42501
L74593 42482
L74556 42482
" />
<path d="M74575 42576
L74537 42557
L74500 42520
L74481 42445
L74481 42314
L74500 42239
L74537 42201
L74575 42182
L74650 42182
L74687 42201
L74725 42239
L74743 42314
L74743 42445
L74725 42520
L74687 42557
L74650 42576
L74575 42576
" />
<path d="M75118 42576
L74893 42576
" />
<path d="M75006 42576
L75006 42182
L74968 42239
L74931 42276
L74893 42295
" />
<g transform="rotate(-90 43598.4 35200)">
<text x="43598.4" y="35396.9"
textLength="864.173" font-size="524.934" lengthAdjust="spacingAndGlyphs"
text-anchor="middle" opacity="0">Q2</text>
</g>
<path d="M43814 35237
L43795 35274
L43757 35312
L43701 35368
L43682 35406
L43682 35443
" />
<path d="M43776 35424
L43757 35462
L43720 35499
L43645 35518
L43514 35518
L43439 35499
L43401 35462
L43382 35424
L43382 35349
L43401 35312
L43439 35274
L43514 35256
L43645 35256
L43720 35274
L43757 35312
L43776 35349
L43776 35424
" />
<path d="M43420 35106
L43401 35087
L43382 35050
L43382 34956
L43401 34918
L43420 34900
L43457 34881
L43495 34881
L43551 34900
L43776 35125
L43776 34881
" />
<text x="75300" y="26479.5"
textLength="864.173" font-size="524.934" lengthAdjust="spacingAndGlyphs"
text-anchor="middle" opacity="0">U1</text>
<path d="M75000 26067
L75000 26385
L75018 26423
L75037 26442
L75075 26460
L75150 26460
L75187 26442
L75206 26423
L75225 26385
L75225 26067
" />
<path d="M75618 26460
L75393 26460
" />
<path d="M75506 26460
L75506 26067
L75468 26123
L75431 26160
L75393 26179
" />
<text x="64300" y="36914.2"
textLength="864.173" font-size="524.934" lengthAdjust="spacingAndGlyphs"
text-anchor="middle" opacity="0">U2</text>
<path d="M64000 36501
L64000 36820
L64018 36857
L64037 36876
L64075 36895
L64150 36895
L64187 36876
L64206 36857
L64225 36820
L64225 36501
" />
<path d="M64393 36539
L64412 36520
L64449 36501
L64543 36501
L64581 36520
L64599 36539
L64618 36576
L64618 36614
L64599 36670
L64374 36895
L64618 36895
" />
<text x="56100" y="36914.2"
textLength="864.173" font-size="524.934" lengthAdjust="spacingAndGlyphs"
text-anchor="middle" opacity="0">U3</text>
<path d="M55800 36501
L55800 36820
L55818 36857
L55837 36876
L55875 36895
L55950 36895
L55987 36876
L56006 36857
L56025 36820
L56025 36501
" />
<path d="M56174 36501
L56418 36501
L56287 36651
L56343 36651
L56381 36670
L56399 36689
L56418 36726
L56418 36820
L56399 36857
L56381 36876
L56343 36895
L56231 36895
L56193 36876
L56174 36857
" />
<text x="69600" y="31329.9"
textLength="845.426" font-size="524.934" lengthAdjust="spacingAndGlyphs"
text-anchor="middle" opacity="0">R1</text>
<path d="M69534 31311
L69403 31123
" />
<path d="M69309 31311
L69309 30917
L69459 30917
L69496 30936
L69515 30954
L69534 30992
L69534 31048
L69515 31086
L69496 31104
L69459 31123
L69309 31123
" />
<path d="M69909 31311
L69684 31311
" />
<path d="M69796 31311
L69796 30917
L69759 30973
L69721 31011
L69684 31029
" />
<text x="69600" y="28729.9"
textLength="845.426" font-size="524.934" lengthAdjust="spacingAndGlyphs"
text-anchor="middle" opacity="0">R2</text>
<path d="M69534 28711
L69403 28523
" />
<path d="M69309 28711
L69309 28317
L69459 28317
L69496 28336
L69515 28354
L69534 28392
L69534 28448
L69515 28486
L69496 28504
L69459 28523
L69309 28523
" />
<path d="M69684 28354
L69703 28336
L69740 28317
L69834 28317
L69871 28336
L69890 28354
L69909 28392
L69909 28429
L69890 28486
L69665 28711
L69909 28711
" />
<g transform="rotate(-90 77866.9 29000)">
<text x="77866.9" y="29196.9"
textLength="845.426" font-size="524.934" lengthAdjust="spacingAndGlyphs"
text-anchor="middle" opacity="0">R4</text>
</g>
<path d="M78045 29065
L77857 29196
" />
<path d="M78045 29290
L77651 29290
L77651 29140
L77670 29103
L77688 29084
L77726 29065
L77782 29065
L77820 29084
L77838 29103
L77857 29140
L77857 29290
" />
<path d="M77782 28728
L78045 28728
" />
<path d="M77632 28821
L77913 28915
L77913 28671
" />
<text x="74600" y="32463.8"
textLength="845.426" font-size="524.934" lengthAdjust="spacingAndGlyphs"
text-anchor="middle" opacity="0">R5</text>
<path d="M74534 32445
L74403 32257
" />
<path d="M74309 32445
L74309 32051
L74459 32051
L74496 32070
L74515 32088
L74534 32126
L74534 32182
L74515 32220
L74496 32238
L74459 32257
L74309 32257
" />
<path d="M74890 32051
L74703 32051
L74684 32238
L74703 32220
L74740 32201
L74834 32201
L74871 32220
L74890 32238
L74909 32276
L74909 32370
L74890 32407
L74871 32426
L74834 32445
L74740 32445
L74703 32426
L74684 32407
" />
<g transform="rotate(-90 59266.9 31000)">
<text x="59266.9" y="31196.9"
textLength="845.426" font-size="524.934" lengthAdjust="spacingAndGlyphs"
text-anchor="middle" opacity="0">R6</text>
</g>
<path d="M59445 31065
L59257 31196
" />
<path d="M59445 31290
L59051 31290
L59051 31140
L59070 31103
L59088 31084
L59126 31065
L59182 31065
L59220 31084
L59238 31103
L59257 31140
L59257 31290
" />
<path d="M59051 30728
L59051 30803
L59070 30840
L59088 30859
L59145 30896
L59220 30915
L59370 30915
L59407 30896
L59426 30878
L59445 30840
L59445 30765
L59426 30728
L59407 30709
L59370 30690
L59276 30690
L59238 30709
L59220 30728
L59201 30765
L59201 30840
L59220 30878
L59238 30896
L59276 30915
" />
<text x="49000" y="34463.8"
textLength="845.426" font-size="524.934" lengthAdjust="spacingAndGlyphs"
text-anchor="middle" opacity="0">R7</text>
<path d="M48934 34445
L48803 34257
" />
<path d="M48709 34445
L48709 34051
L48859 34051
L48896 34070
L48915 34088
L48934 34126
L48934 34182
L48915 34220
L48896 34238
L48859 34257
L48709 34257
" />
<path d="M49065 34051
L49328 34051
L49159 34445
" />
<text x="47000" y="32463.8"
textLength="845.426" font-size="524.934" lengthAdjust="spacingAndGlyphs"
text-anchor="middle" opacity="0">R8</text>
<path d="M46934 32445
L46803 32257
" />
<path d="M46709 32445
L46709 32051
L46859 32051
L46896 32070
L46915 32088
L46934 32126
L46934 32182
L46915 32220
L46896 32238
L46859 32257
L46709 32257
" />
<path d="M47159 32220
L47121 32201
L47103 32182
L47084 32145
L47084 32126
L47103 32088
L47121 32070
L47159 32051
L47234 32051
L47271 32070
L47290 32088
L47309 32126
L47309 32145
L47290 32182
L47271 32201
L47234 32220
L47159 32220
L47121 32238
L47103 32257
L47084 32295
L47084 32370
L47103 32407
L47121 32426
L47159 32445
L47234 32445
L47271 32426
L47290 32407
L47309 32370
L47309 32295
L47290 32257
L47271 32238
L47234 32220
" />
<text x="74800" y="38995.3"
textLength="864.173" font-size="524.934" lengthAdjust="spacingAndGlyphs"
text-anchor="middle" opacity="0">U4</text>
<path d="M74500 38582
L74500 38901
L74518 38939
L74537 38957
L74575 38976
L74650 38976
L74687 38957
L74706 38939
L74725 38901
L74725 38582
" />
<path d="M75081 38714
L75081 38976
" />
<path d="M74987 38564
L74893 38845
L75137 38845
" />
<g >
</g>
</g> 
</svg>
