<?xml version="1.0" standalone="no"?>
 <!DOCTYPE svg PUBLIC "-//W3C//DTD SVG 1.1//EN" 
 "http://www.w3.org/Graphics/SVG/1.1/DTD/svg11.dtd"> 
<svg
  xmlns:svg="http://www.w3.org/2000/svg"
  xmlns="http://www.w3.org/2000/svg"
  xmlns:xlink="http://www.w3.org/1999/xlink"
  version="1.1"
  width="29.700220cm" height="21.000720cm" viewBox="0 0 116930 82680">
<title>SVG Picture created as Bakalarska_prace-F_Fab.svg date 2021/05/25 20:15:34 </title>
  <desc>Picture generated by PCBNEW </desc>
<g style="fill:#000000; fill-opacity:1;stroke:#000000; stroke-opacity:1;
stroke-linecap:round; stroke-linejoin:round;"
 transform="translate(0 0) scale(1 1)">
</g>
<g style="fill:#000000; fill-opacity:0.0; 
stroke:#000000; stroke-width:-0.000393701; stroke-opacity:1; 
stroke-linecap:round; stroke-linejoin:round;">
</g>
<g style="fill:#000000; fill-opacity:0.0; 
stroke:#000000; stroke-width:39.3701; stroke-opacity:1; 
stroke-linecap:round; stroke-linejoin:round;">
<path d="M60400 45900
L60400 47400
" />
<path d="M59400 45900
L59400 47400
" />
<path d="M58400 45900
L58400 47400
" />
<path d="M61368 45900
L57431 45900
" />
<path d="M61368 42258
L61368 45900
" />
<path d="M57431 42258
L61368 42258
" />
<path d="M57431 45900
L57431 42258
" />
<path d="M61368 42258
L57431 42258
" />
<path d="M61368 39738
L61368 42258
" />
<path d="M57431 39738
L61368 39738
" />
<path d="M57431 42258
L57431 39738
" />
<circle cx="59400" cy="40840.9" r="728.346" /> 
<path d="M67902 44445
L67902 44130
" />
<path d="M68060 44287
L67745 44287
" />
<circle cx="66711" cy="43600" r="1574.8" /> 
<path d="M49900 31900
L32900 31900
" />
<path d="M49900 25400
L49900 31900
" />
<path d="M49400 24900
L49900 25400
" />
<path d="M32900 24900
L49400 24900
" />
<path d="M32900 31900
L32900 24900
" />
<path d="M31900 26900
L35900 26900
" />
<path d="M31900 29900
L31900 26900
" />
<path d="M35900 29900
L31900 29900
" />
<path d="M35900 26900
L35900 29900
" />
<circle cx="72907.9" cy="36000" r="984.252" /> 
<path d="M73747 36428
L73551 36428
" />
<path d="M73649 36526
L73649 36329
" />
<path d="M68273 34049
L68470 34049
" />
<path d="M68371 34147
L68371 33951
" />
<circle cx="68800" cy="33307.9" r="984.252" /> 
<circle cx="56692.1" cy="25200" r="984.252" /> 
<path d="M55852 24771
L56048 24771
" />
<path d="M55950 24673
L55950 24870
" />
<path d="M63849 25726
L63849 25529
" />
<path d="M63947 25628
L63751 25628
" />
<circle cx="63107.9" cy="25200" r="984.252" /> 
<circle cx="50711" cy="43600" r="1574.8" /> 
<path d="M52060 44287
L51745 44287
" />
<path d="M51902 44445
L51902 44130
" />
<path d="M54707 42107
L54707 45060
" />
<path d="M55692 42107
L54707 42107
" />
<path d="M55692 45060
L55692 42107
" />
<path d="M54707 45060
L55692 45060
" />
<path d="M62707 44892
L63692 44892
" />
<path d="M63692 44892
L63692 41939
" />
<path d="M63692 41939
L62707 41939
" />
<path d="M62707 41939
L62707 44892
" />
<path d="M77950 38273
L77950 38470
" />
<path d="M77852 38371
L78048 38371
" />
<circle cx="78692.1" cy="38800" r="984.252" /> 
<circle cx="78692.1" cy="35200" r="984.252" /> 
<path d="M77852 34771
L78048 34771
" />
<path d="M77950 34673
L77950 34870
" />
<path d="M53955 47931
L53955 46868
" />
<path d="M53877 47931
L53877 46868
" />
<path d="M53916 47931
L53916 46868
" />
<path d="M51200 47400
L52176 47400
" />
<path d="M55200 47400
L54223 47400
" />
<path d="M52176 47931
L54223 47931
" />
<path d="M52176 46868
L52176 47931
" />
<path d="M54223 46868
L52176 46868
" />
<path d="M54223 47931
L54223 46868
" />
<path d="M86349 35867
L82759 35867
" />
<path d="M86349 37127
L82759 37127
" />
<path d="M86349 45710
L82759 45710
" />
<path d="M86349 46970
L82759 46970
" />
<path d="M86507 35513
L86507 37481
" />
<path d="M88475 35513
L86507 35513
" />
<path d="M88475 37481
L88475 35513
" />
<path d="M86507 37481
L88475 37481
" />
<path d="M86507 45355
L86507 47324
" />
<path d="M88475 45355
L86507 45355
" />
<path d="M88475 47324
L88475 45355
" />
<path d="M86507 47324
L88475 47324
" />
<path d="M86507 38210
L86507 44627
" />
<path d="M88869 38210
L86507 38210
" />
<path d="M88869 44627
L88869 38210
" />
<path d="M86507 44627
L88869 44627
" />
<path d="M86349 35346
L86349 47491
" />
<path d="M86507 35346
L86349 35346
" />
<path d="M86507 47491
L86507 35346
" />
<path d="M86349 47491
L86507 47491
" />
<path d="M81491 35346
L81491 47491
" />
<path d="M86349 35346
L81491 35346
" />
<path d="M86349 47491
L86349 35346
" />
<path d="M81491 47491
L86349 47491
" />
<path d="M82759.1 45710.2 A629.921 629.921 0.0 0 0 82759.1 46970.1" />
<path d="M82759.1 35867.7 A629.921 629.921 0.0 0 0 82759.1 37127.6" />
<path d="M33088 39368
L32694 35431
" />
<path d="M33600 40293
L39466 40293
" />
<path d="M33600 34506
L33600 40293
" />
<path d="M39466 34506
L33600 34506
" />
<path d="M39466 40293
L39466 34506
" />
<path d="M30174 39900
L33600 39900
" />
<path d="M30174 34900
L30174 39900
" />
<path d="M33600 34900
L30174 34900
" />
<path d="M25489 39289
L30174 39289
" />
<path d="M25489 35510
L25489 39289
" />
<path d="M30174 35510
L25489 35510
" />
<circle cx="27548.8" cy="37400" r="393.701" /> 
<path d="M32694 39368
L32300 35431
" />
<path d="M32300 39368
L31907 35431
" />
<path d="M31907 39368
L31513 35431
" />
<path d="M31513 39368
L31119 35431
" />
<path d="M31119 39368
L30725 35431
" />
<path d="M30725 39368
L30332 35431
" />
</g>
<g style="fill:#000000; fill-opacity:0.0; 
stroke:#000000; stroke-width:47.2441; stroke-opacity:1; 
stroke-linecap:round; stroke-linejoin:round;">
<circle cx="46600" cy="48600" r="492.52" /> 
<circle cx="46600" cy="48600" r="256.661" /> 
<circle cx="46500" cy="44700" r="256.661" /> 
<circle cx="46500" cy="44700" r="492.52" /> 
</g>
<g style="fill:#000000; fill-opacity:0.0; 
stroke:#000000; stroke-width:39.3701; stroke-opacity:1; 
stroke-linecap:round; stroke-linejoin:round;">
<circle cx="45500" cy="38400" r="984.252" /> 
<path d="M44515 37821
L44515 38978
" />
<path d="M44515.7 38978.6 A1141.73 1141.73 0.0 1 0 44515.7 37821.4" />
<path d="M91201 28250
L87264 28250
" />
<path d="M91201 30612
L91201 28250
" />
<path d="M87264 30612
L91201 30612
" />
<path d="M87264 28250
L87264 30612
" />
<path d="M87264 28053
L85296 28053
" />
<path d="M87264 30809
L87264 28053
" />
<path d="M85296 30809
L87264 30809
" />
<path d="M85296 28053
L85296 30809
" />
<path d="M85296 25907
L81162 25907
" />
<path d="M85296 32955
L85296 25907
" />
<path d="M81162 32955
L85296 32955
" />
<path d="M81162 25907
L81162 32955
" />
<path d="M52624 27620
L52623 28474
" />
<path d="M52624 27620
L52623 28474
" />
<path d="M52124 29448
L55875 29448
" />
<path d="M52124 27547
L52124 29448
" />
<path d="M55875 27547
L52124 27547
" />
<path d="M55875 29448
L55875 27547
" />
<circle cx="52624" cy="28047.2" r="431.102" /> 
<circle cx="70447.2" cy="43176" r="431.102" /> 
<path d="M71848 39924
L69947 39924
" />
<path d="M69947 39924
L69947 43675
" />
<path d="M69947 43675
L71848 43675
" />
<path d="M71848 43675
L71848 39924
" />
<path d="M70020 43175
L70874 43176
" />
<path d="M70020 43175
L70874 43176
" />
</g>
<g style="fill:#000000; fill-opacity:0.0; 
stroke:#000000; stroke-width:47.2441; stroke-opacity:1; 
stroke-linecap:round; stroke-linejoin:round;">
<circle cx="78800" cy="47200" r="472.441" /> 
<circle cx="78800" cy="47200" r="196.85" /> 
<circle cx="73800" cy="47200" r="472.441" /> 
<circle cx="73800" cy="47200" r="196.85" /> 
<circle cx="76400" cy="47200" r="196.85" /> 
<circle cx="76400" cy="47200" r="472.441" /> 
<circle cx="68800" cy="47400" r="196.85" /> 
<circle cx="68800" cy="47400" r="472.441" /> 
<circle cx="42000" cy="34600" r="472.441" /> 
<circle cx="42000" cy="34600" r="196.85" /> 
<circle cx="64200" cy="29200" r="196.85" /> 
<circle cx="64200" cy="29200" r="472.441" /> 
<circle cx="42000" cy="36800" r="472.441" /> 
<circle cx="42000" cy="36800" r="196.85" /> 
</g>
<g style="fill:#000000; fill-opacity:0.0; 
stroke:#000000; stroke-width:39.3701; stroke-opacity:1; 
stroke-linecap:round; stroke-linejoin:round;">
<path d="M74055 44429
L75532 44429
" />
<path d="M75548.5 44427 A976.378 976.378 0.0 0 0 74800 42823.6" />
<path d="M74800 42823.6 A976.378 976.378 0.0 0 0 74054.8 44430.9" />
<path d="M45629 35944
L45629 34467
" />
<path d="M45627 34451.5 A976.378 976.378 0.0 0 0 44023.6 35200" />
<path d="M44023.6 35200 A976.378 976.378 0.0 0 0 45630.9 35945.2" />
<path d="M74443 26700
L76550 26700
" />
<path d="M76550 26700
L76550 30700
" />
<path d="M76550 30700
L74050 30700
" />
<path d="M74050 30700
L74050 27093
" />
<path d="M74050 27093
L74443 26700
" />
<path d="M73300 26676
L73300 30723
" />
<path d="M73300 30723
L77300 30723
" />
<path d="M77300 30723
L77300 26676
" />
<path d="M77300 26676
L73300 26676
" />
<path d="M65156 36300
L63050 36300
" />
<path d="M63050 36300
L63050 32300
" />
<path d="M63050 32300
L65550 32300
" />
<path d="M65550 32300
L65550 35906
" />
<path d="M65550 35906
L65156 36300
" />
<path d="M66300 36323
L66300 32276
" />
<path d="M66300 32276
L62300 32276
" />
<path d="M62300 32276
L62300 36323
" />
<path d="M62300 36323
L66300 36323
" />
<path d="M54100 36323
L58100 36323
" />
<path d="M54100 32276
L54100 36323
" />
<path d="M58100 32276
L54100 32276
" />
<path d="M58100 36323
L58100 32276
" />
<path d="M57350 35906
L56956 36300
" />
<path d="M57350 32300
L57350 35906
" />
<path d="M54850 32300
L57350 32300
" />
<path d="M54850 36300
L54850 32300
" />
<path d="M56956 36300
L54850 36300
" />
<path d="M67600 30200
L68359 30200
" />
<path d="M71600 30200
L70840 30200
" />
<path d="M68359 30692
L70840 30692
" />
<path d="M68359 29707
L68359 30692
" />
<path d="M70840 29707
L68359 29707
" />
<path d="M70840 30692
L70840 29707
" />
<path d="M67600 27600
L68359 27600
" />
<path d="M71600 27600
L70840 27600
" />
<path d="M68359 28092
L70840 28092
" />
<path d="M68359 27107
L68359 28092
" />
<path d="M70840 27107
L68359 27107
" />
<path d="M70840 28092
L70840 27107
" />
<path d="M78307 30240
L79292 30240
" />
<path d="M79292 30240
L79292 27759
" />
<path d="M79292 27759
L78307 27759
" />
<path d="M78307 27759
L78307 30240
" />
<path d="M78800 31000
L78800 30240
" />
<path d="M78800 27000
L78800 27759
" />
<path d="M76600 33200
L75840 33200
" />
<path d="M72600 33200
L73359 33200
" />
<path d="M75840 32707
L73359 32707
" />
<path d="M75840 33692
L75840 32707
" />
<path d="M73359 33692
L75840 33692
" />
<path d="M73359 32707
L73359 33692
" />
<path d="M60200 29000
L60200 29759
" />
<path d="M60200 33000
L60200 32240
" />
<path d="M59707 29759
L59707 32240
" />
<path d="M60692 29759
L59707 29759
" />
<path d="M60692 32240
L60692 29759
" />
<path d="M59707 32240
L60692 32240
" />
<path d="M47759 34707
L47759 35692
" />
<path d="M47759 35692
L50240 35692
" />
<path d="M50240 35692
L50240 34707
" />
<path d="M50240 34707
L47759 34707
" />
<path d="M47000 35200
L47759 35200
" />
<path d="M51000 35200
L50240 35200
" />
<path d="M45759 32707
L45759 33692
" />
<path d="M45759 33692
L48240 33692
" />
<path d="M48240 33692
L48240 32707
" />
<path d="M48240 32707
L45759 32707
" />
<path d="M45000 33200
L45759 33200
" />
<path d="M49000 33200
L48240 33200
" />
<path d="M74114 40888
L75492 40888
" />
<path d="M74800 39223.6 A976.378 976.378 0.0 0 0 74109.6 40890.4" />
<path d="M75490.4 40890.4 A976.378 976.378 0.0 0 0 74800 39223.6" />
<g >
</g>
<g >
</g>
<g >
</g>
<g >
</g>
<g >
</g>
<g >
</g>
<g >
</g>
<g >
</g>
<g >
</g>
<g >
</g>
<g >
</g>
<g >
</g>
<g >
</g>
<g >
</g>
<g >
</g>
<g >
</g>
<g >
</g>
<g >
</g>
<g >
</g>
<g >
</g>
<g >
</g>
<g >
</g>
<g >
</g>
<g >
</g>
<g >
</g>
<g >
</g>
<g >
</g>
<g >
</g>
<g >
</g>
<g >
</g>
<g >
</g>
<g >
</g>
<g >
</g>
<g >
</g>
<g >
</g>
<g >
</g>
<g >
</g>
<g >
</g>
<g >
</g>
<g >
</g>
<g >
</g>
<g >
</g>
<g >
</g>
<g >
</g>
<g >
</g>
</g>
<g style="fill:#000000; fill-opacity:0.0; 
stroke:#000000; stroke-width:39.3701; stroke-opacity:1; 
stroke-linecap:round; stroke-linejoin:round;">
</g>
<g style="fill:#000000; fill-opacity:0.0; 
stroke:#000000; stroke-width:59.0551; stroke-opacity:1; 
stroke-linecap:round; stroke-linejoin:round;">
<text x="59400" y="48384.3"
textLength="1895.29" font-size="524.934" lengthAdjust="spacingAndGlyphs"
text-anchor="middle" opacity="0">L7805</text>
<path d="M58771 48365
L58584 48365
L58584 47971
" />
<path d="M58865 47971
L59128 47971
L58959 48365
" />
<path d="M59334 48140
L59296 48121
L59278 48103
L59259 48065
L59259 48046
L59278 48009
L59296 47990
L59334 47971
L59409 47971
L59446 47990
L59465 48009
L59484 48046
L59484 48065
L59465 48103
L59446 48121
L59409 48140
L59334 48140
L59296 48159
L59278 48178
L59259 48215
L59259 48290
L59278 48328
L59296 48346
L59334 48365
L59409 48365
L59446 48346
L59465 48328
L59484 48290
L59484 48215
L59465 48178
L59446 48159
L59409 48140
" />
<path d="M59728 47971
L59765 47971
L59803 47990
L59821 48009
L59840 48046
L59859 48121
L59859 48215
L59840 48290
L59821 48328
L59803 48346
L59765 48365
L59728 48365
L59690 48346
L59671 48328
L59653 48290
L59634 48215
L59634 48121
L59653 48046
L59671 48009
L59690 47990
L59728 47971
" />
<path d="M60215 47971
L60028 47971
L60009 48159
L60028 48140
L60065 48121
L60159 48121
L60196 48140
L60215 48159
L60234 48196
L60234 48290
L60215 48328
L60196 48346
L60159 48365
L60065 48365
L60028 48346
L60009 48328
" />
<text x="59400" y="39494.5"
textLength="864.173" font-size="524.934" lengthAdjust="spacingAndGlyphs"
text-anchor="middle" opacity="0">U5</text>
<path d="M59100 39082
L59100 39400
L59118 39438
L59137 39456
L59175 39475
L59250 39475
L59287 39456
L59306 39438
L59325 39400
L59325 39082
" />
<path d="M59699 39082
L59512 39082
L59493 39269
L59512 39250
L59549 39232
L59643 39232
L59681 39250
L59699 39269
L59718 39307
L59718 39400
L59699 39438
L59681 39456
L59643 39475
L59549 39475
L59512 39456
L59493 39438
" />
<text x="66711" y="41729.9"
textLength="1557.84" font-size="524.934" lengthAdjust="spacingAndGlyphs"
text-anchor="middle" opacity="0">100u</text>
<path d="M66270 41711
L66045 41711
" />
<path d="M66157 41711
L66157 41317
L66120 41373
L66082 41411
L66045 41429
" />
<path d="M66514 41317
L66551 41317
L66589 41336
L66607 41354
L66626 41392
L66645 41467
L66645 41561
L66626 41636
L66607 41673
L66589 41692
L66551 41711
L66514 41711
L66476 41692
L66457 41673
L66439 41636
L66420 41561
L66420 41467
L66439 41392
L66457 41354
L66476 41336
L66514 41317
" />
<path d="M66889 41317
L66926 41317
L66964 41336
L66982 41354
L67001 41392
L67020 41467
L67020 41561
L67001 41636
L66982 41673
L66964 41692
L66926 41711
L66889 41711
L66851 41692
L66832 41673
L66814 41636
L66795 41561
L66795 41467
L66814 41392
L66832 41354
L66851 41336
L66889 41317
" />
<path d="M67357 41448
L67357 41711
" />
<path d="M67189 41448
L67189 41654
L67207 41692
L67245 41711
L67301 41711
L67339 41692
L67357 41673
" />
<text x="66711" y="43796.9"
textLength="845.426" font-size="524.934" lengthAdjust="spacingAndGlyphs"
text-anchor="middle" opacity="0">C9</text>
<path d="M66645 43740
L66626 43759
L66570 43778
L66532 43778
L66476 43759
L66439 43721
L66420 43684
L66401 43609
L66401 43553
L66420 43478
L66439 43440
L66476 43403
L66532 43384
L66570 43384
L66626 43403
L66645 43421
" />
<path d="M66832 43778
L66907 43778
L66945 43759
L66964 43740
L67001 43684
L67020 43609
L67020 43459
L67001 43421
L66982 43403
L66945 43384
L66870 43384
L66832 43403
L66814 43421
L66795 43459
L66795 43553
L66814 43590
L66832 43609
L66870 43628
L66945 43628
L66982 43609
L67001 43590
L67020 43553
" />
<text x="48800" y="24453.5"
textLength="4032.53" font-size="524.934" lengthAdjust="spacingAndGlyphs"
text-anchor="middle" opacity="0">MountingHole</text>
<path d="M46915 24434
L46915 24041
L47047 24322
L47178 24041
L47178 24434
" />
<path d="M47422 24434
L47384 24416
L47365 24397
L47347 24359
L47347 24247
L47365 24209
L47384 24191
L47422 24172
L47478 24172
L47515 24191
L47534 24209
L47553 24247
L47553 24359
L47534 24397
L47515 24416
L47478 24434
L47422 24434
" />
<path d="M47890 24172
L47890 24434
" />
<path d="M47722 24172
L47722 24378
L47740 24416
L47778 24434
L47834 24434
L47871 24416
L47890 24397
" />
<path d="M48078 24172
L48078 24434
" />
<path d="M48078 24209
L48096 24191
L48134 24172
L48190 24172
L48228 24191
L48246 24228
L48246 24434
" />
<path d="M48378 24172
L48528 24172
" />
<path d="M48434 24041
L48434 24378
L48453 24416
L48490 24434
L48528 24434
" />
<path d="M48659 24434
L48659 24172
" />
<path d="M48659 24041
L48640 24059
L48659 24078
L48678 24059
L48659 24041
L48659 24078
" />
<path d="M48846 24172
L48846 24434
" />
<path d="M48846 24209
L48865 24191
L48903 24172
L48959 24172
L48996 24191
L49015 24228
L49015 24434
" />
<path d="M49371 24172
L49371 24491
L49353 24528
L49334 24547
L49296 24566
L49240 24566
L49203 24547
" />
<path d="M49371 24416
L49334 24434
L49259 24434
L49221 24416
L49203 24397
L49184 24359
L49184 24247
L49203 24209
L49221 24191
L49259 24172
L49334 24172
L49371 24191
" />
<path d="M49559 24434
L49559 24041
" />
<path d="M49559 24228
L49784 24228
" />
<path d="M49784 24434
L49784 24041
" />
<path d="M50027 24434
L49990 24416
L49971 24397
L49952 24359
L49952 24247
L49971 24209
L49990 24191
L50027 24172
L50084 24172
L50121 24191
L50140 24209
L50159 24247
L50159 24359
L50140 24397
L50121 24416
L50084 24434
L50027 24434
" />
<path d="M50384 24434
L50346 24416
L50327 24378
L50327 24041
" />
<path d="M50684 24416
L50646 24434
L50571 24434
L50534 24416
L50515 24378
L50515 24228
L50534 24191
L50571 24172
L50646 24172
L50684 24191
L50702 24228
L50702 24266
L50515 24303
" />
<text x="48918.1" y="22996.9"
textLength="864.173" font-size="524.934" lengthAdjust="spacingAndGlyphs"
text-anchor="middle" opacity="0">H1</text>
<path d="M48618 22978
L48618 22584
" />
<path d="M48618 22771
L48843 22771
" />
<path d="M48843 22978
L48843 22584
" />
<path d="M49236 22978
L49011 22978
" />
<path d="M49124 22978
L49124 22584
L49086 22640
L49049 22678
L49011 22696
" />
<text x="69600" y="24453.5"
textLength="4032.53" font-size="524.934" lengthAdjust="spacingAndGlyphs"
text-anchor="middle" opacity="0">MountingHole</text>
<path d="M67715 24434
L67715 24041
L67847 24322
L67978 24041
L67978 24434
" />
<path d="M68222 24434
L68184 24416
L68165 24397
L68147 24359
L68147 24247
L68165 24209
L68184 24191
L68222 24172
L68278 24172
L68315 24191
L68334 24209
L68353 24247
L68353 24359
L68334 24397
L68315 24416
L68278 24434
L68222 24434
" />
<path d="M68690 24172
L68690 24434
" />
<path d="M68522 24172
L68522 24378
L68540 24416
L68578 24434
L68634 24434
L68671 24416
L68690 24397
" />
<path d="M68878 24172
L68878 24434
" />
<path d="M68878 24209
L68896 24191
L68934 24172
L68990 24172
L69028 24191
L69046 24228
L69046 24434
" />
<path d="M69178 24172
L69328 24172
" />
<path d="M69234 24041
L69234 24378
L69253 24416
L69290 24434
L69328 24434
" />
<path d="M69459 24434
L69459 24172
" />
<path d="M69459 24041
L69440 24059
L69459 24078
L69478 24059
L69459 24041
L69459 24078
" />
<path d="M69646 24172
L69646 24434
" />
<path d="M69646 24209
L69665 24191
L69703 24172
L69759 24172
L69796 24191
L69815 24228
L69815 24434
" />
<path d="M70171 24172
L70171 24491
L70153 24528
L70134 24547
L70096 24566
L70040 24566
L70003 24547
" />
<path d="M70171 24416
L70134 24434
L70059 24434
L70021 24416
L70003 24397
L69984 24359
L69984 24247
L70003 24209
L70021 24191
L70059 24172
L70134 24172
L70171 24191
" />
<path d="M70359 24434
L70359 24041
" />
<path d="M70359 24228
L70584 24228
" />
<path d="M70584 24434
L70584 24041
" />
<path d="M70827 24434
L70790 24416
L70771 24397
L70752 24359
L70752 24247
L70771 24209
L70790 24191
L70827 24172
L70884 24172
L70921 24191
L70940 24209
L70959 24247
L70959 24359
L70940 24397
L70921 24416
L70884 24434
L70827 24434
" />
<path d="M71184 24434
L71146 24416
L71127 24378
L71127 24041
" />
<path d="M71484 24416
L71446 24434
L71371 24434
L71334 24416
L71315 24378
L71315 24228
L71334 24191
L71371 24172
L71446 24172
L71484 24191
L71502 24228
L71502 24266
L71315 24303
" />
<text x="69718.1" y="22996.9"
textLength="864.173" font-size="524.934" lengthAdjust="spacingAndGlyphs"
text-anchor="middle" opacity="0">H2</text>
<path d="M69418 22978
L69418 22584
" />
<path d="M69418 22771
L69643 22771
" />
<path d="M69643 22978
L69643 22584
" />
<path d="M69811 22621
L69830 22603
L69868 22584
L69961 22584
L69999 22603
L70018 22621
L70036 22659
L70036 22696
L70018 22753
L69793 22978
L70036 22978
" />
<text x="48800" y="52853.5"
textLength="4032.53" font-size="524.934" lengthAdjust="spacingAndGlyphs"
text-anchor="middle" opacity="0">MountingHole</text>
<path d="M46915 52834
L46915 52441
L47047 52722
L47178 52441
L47178 52834
" />
<path d="M47422 52834
L47384 52816
L47365 52797
L47347 52759
L47347 52647
L47365 52609
L47384 52591
L47422 52572
L47478 52572
L47515 52591
L47534 52609
L47553 52647
L47553 52759
L47534 52797
L47515 52816
L47478 52834
L47422 52834
" />
<path d="M47890 52572
L47890 52834
" />
<path d="M47722 52572
L47722 52778
L47740 52816
L47778 52834
L47834 52834
L47871 52816
L47890 52797
" />
<path d="M48078 52572
L48078 52834
" />
<path d="M48078 52609
L48096 52591
L48134 52572
L48190 52572
L48228 52591
L48246 52628
L48246 52834
" />
<path d="M48378 52572
L48528 52572
" />
<path d="M48434 52441
L48434 52778
L48453 52816
L48490 52834
L48528 52834
" />
<path d="M48659 52834
L48659 52572
" />
<path d="M48659 52441
L48640 52459
L48659 52478
L48678 52459
L48659 52441
L48659 52478
" />
<path d="M48846 52572
L48846 52834
" />
<path d="M48846 52609
L48865 52591
L48903 52572
L48959 52572
L48996 52591
L49015 52628
L49015 52834
" />
<path d="M49371 52572
L49371 52891
L49353 52928
L49334 52947
L49296 52966
L49240 52966
L49203 52947
" />
<path d="M49371 52816
L49334 52834
L49259 52834
L49221 52816
L49203 52797
L49184 52759
L49184 52647
L49203 52609
L49221 52591
L49259 52572
L49334 52572
L49371 52591
" />
<path d="M49559 52834
L49559 52441
" />
<path d="M49559 52628
L49784 52628
" />
<path d="M49784 52834
L49784 52441
" />
<path d="M50027 52834
L49990 52816
L49971 52797
L49952 52759
L49952 52647
L49971 52609
L49990 52591
L50027 52572
L50084 52572
L50121 52591
L50140 52609
L50159 52647
L50159 52759
L50140 52797
L50121 52816
L50084 52834
L50027 52834
" />
<path d="M50384 52834
L50346 52816
L50327 52778
L50327 52441
" />
<path d="M50684 52816
L50646 52834
L50571 52834
L50534 52816
L50515 52778
L50515 52628
L50534 52591
L50571 52572
L50646 52572
L50684 52591
L50702 52628
L50702 52666
L50515 52703
" />
<text x="48918.1" y="51396.9"
textLength="864.173" font-size="524.934" lengthAdjust="spacingAndGlyphs"
text-anchor="middle" opacity="0">H3</text>
<path d="M48618 51378
L48618 50984
" />
<path d="M48618 51171
L48843 51171
" />
<path d="M48843 51378
L48843 50984
" />
<path d="M48993 50984
L49236 50984
L49105 51134
L49161 51134
L49199 51153
L49218 51171
L49236 51209
L49236 51303
L49218 51340
L49199 51359
L49161 51378
L49049 51378
L49011 51359
L48993 51340
" />
<text x="69600" y="52853.5"
textLength="4032.53" font-size="524.934" lengthAdjust="spacingAndGlyphs"
text-anchor="middle" opacity="0">MountingHole</text>
<path d="M67715 52834
L67715 52441
L67847 52722
L67978 52441
L67978 52834
" />
<path d="M68222 52834
L68184 52816
L68165 52797
L68147 52759
L68147 52647
L68165 52609
L68184 52591
L68222 52572
L68278 52572
L68315 52591
L68334 52609
L68353 52647
L68353 52759
L68334 52797
L68315 52816
L68278 52834
L68222 52834
" />
<path d="M68690 52572
L68690 52834
" />
<path d="M68522 52572
L68522 52778
L68540 52816
L68578 52834
L68634 52834
L68671 52816
L68690 52797
" />
<path d="M68878 52572
L68878 52834
" />
<path d="M68878 52609
L68896 52591
L68934 52572
L68990 52572
L69028 52591
L69046 52628
L69046 52834
" />
<path d="M69178 52572
L69328 52572
" />
<path d="M69234 52441
L69234 52778
L69253 52816
L69290 52834
L69328 52834
" />
<path d="M69459 52834
L69459 52572
" />
<path d="M69459 52441
L69440 52459
L69459 52478
L69478 52459
L69459 52441
L69459 52478
" />
<path d="M69646 52572
L69646 52834
" />
<path d="M69646 52609
L69665 52591
L69703 52572
L69759 52572
L69796 52591
L69815 52628
L69815 52834
" />
<path d="M70171 52572
L70171 52891
L70153 52928
L70134 52947
L70096 52966
L70040 52966
L70003 52947
" />
<path d="M70171 52816
L70134 52834
L70059 52834
L70021 52816
L70003 52797
L69984 52759
L69984 52647
L70003 52609
L70021 52591
L70059 52572
L70134 52572
L70171 52591
" />
<path d="M70359 52834
L70359 52441
" />
<path d="M70359 52628
L70584 52628
" />
<path d="M70584 52834
L70584 52441
" />
<path d="M70827 52834
L70790 52816
L70771 52797
L70752 52759
L70752 52647
L70771 52609
L70790 52591
L70827 52572
L70884 52572
L70921 52591
L70940 52609
L70959 52647
L70959 52759
L70940 52797
L70921 52816
L70884 52834
L70827 52834
" />
<path d="M71184 52834
L71146 52816
L71127 52778
L71127 52441
" />
<path d="M71484 52816
L71446 52834
L71371 52834
L71334 52816
L71315 52778
L71315 52628
L71334 52591
L71371 52572
L71446 52572
L71484 52591
L71502 52628
L71502 52666
L71315 52703
" />
<text x="69718.1" y="51396.9"
textLength="864.173" font-size="524.934" lengthAdjust="spacingAndGlyphs"
text-anchor="middle" opacity="0">H4</text>
<path d="M69418 51378
L69418 50984
" />
<path d="M69418 51171
L69643 51171
" />
<path d="M69643 51378
L69643 50984
" />
<path d="M69999 51115
L69999 51378
" />
<path d="M69905 50965
L69811 51246
L70055 51246
" />
<text x="40900" y="29096.9"
textLength="5888.55" font-size="524.934" lengthAdjust="spacingAndGlyphs"
text-anchor="middle" opacity="0">Arduino_Nano_Every</text>
<path d="M38069 28965
L38256 28965
" />
<path d="M38031 29078
L38162 28684
L38294 29078
" />
<path d="M38425 29078
L38425 28815
" />
<path d="M38425 28890
L38444 28853
L38462 28834
L38500 28815
L38537 28815
" />
<path d="M38837 29078
L38837 28684
" />
<path d="M38837 29059
L38800 29078
L38725 29078
L38687 29059
L38669 29040
L38650 29003
L38650 28890
L38669 28853
L38687 28834
L38725 28815
L38800 28815
L38837 28834
" />
<path d="M39193 28815
L39193 29078
" />
<path d="M39025 28815
L39025 29021
L39043 29059
L39081 29078
L39137 29078
L39175 29059
L39193 29040
" />
<path d="M39381 29078
L39381 28815
" />
<path d="M39381 28684
L39362 28703
L39381 28721
L39400 28703
L39381 28684
L39381 28721
" />
<path d="M39568 28815
L39568 29078
" />
<path d="M39568 28853
L39587 28834
L39625 28815
L39681 28815
L39718 28834
L39737 28871
L39737 29078
" />
<path d="M39981 29078
L39943 29059
L39925 29040
L39906 29003
L39906 28890
L39925 28853
L39943 28834
L39981 28815
L40037 28815
L40075 28834
L40093 28853
L40112 28890
L40112 29003
L40093 29040
L40075 29059
L40037 29078
L39981 29078
" />
<path d="M40187 29115
L40487 29115
" />
<path d="M40581 29078
L40581 28684
L40806 29078
L40806 28684
" />
<path d="M41162 29078
L41162 28871
L41143 28834
L41106 28815
L41031 28815
L40993 28834
" />
<path d="M41162 29059
L41124 29078
L41031 29078
L40993 29059
L40974 29021
L40974 28984
L40993 28946
L41031 28928
L41124 28928
L41162 28909
" />
<path d="M41349 28815
L41349 29078
" />
<path d="M41349 28853
L41368 28834
L41406 28815
L41462 28815
L41499 28834
L41518 28871
L41518 29078
" />
<path d="M41762 29078
L41724 29059
L41706 29040
L41687 29003
L41687 28890
L41706 28853
L41724 28834
L41762 28815
L41818 28815
L41856 28834
L41874 28853
L41893 28890
L41893 29003
L41874 29040
L41856 29059
L41818 29078
L41762 29078
" />
<path d="M41968 29115
L42268 29115
" />
<path d="M42362 28871
L42493 28871
" />
<path d="M42549 29078
L42362 29078
L42362 28684
L42549 28684
" />
<path d="M42681 28815
L42774 29078
L42868 28815
" />
<path d="M43168 29059
L43130 29078
L43055 29078
L43018 29059
L42999 29021
L42999 28871
L43018 28834
L43055 28815
L43130 28815
L43168 28834
L43187 28871
L43187 28909
L42999 28946
" />
<path d="M43355 29078
L43355 28815
" />
<path d="M43355 28890
L43374 28853
L43393 28834
L43430 28815
L43468 28815
" />
<path d="M43562 28815
L43655 29078
" />
<path d="M43749 28815
L43655 29078
L43618 29171
L43599 29190
L43562 29209
" />
<text x="40900" y="28096.9"
textLength="4519.97" font-size="524.934" lengthAdjust="spacingAndGlyphs"
text-anchor="middle" opacity="0">Arduino_NANO1</text>
<path d="M38753 27965
L38940 27965
" />
<path d="M38715 28078
L38847 27684
L38978 28078
" />
<path d="M39109 28078
L39109 27815
" />
<path d="M39109 27890
L39128 27853
L39147 27834
L39184 27815
L39222 27815
" />
<path d="M39522 28078
L39522 27684
" />
<path d="M39522 28059
L39484 28078
L39409 28078
L39372 28059
L39353 28040
L39334 28003
L39334 27890
L39353 27853
L39372 27834
L39409 27815
L39484 27815
L39522 27834
" />
<path d="M39878 27815
L39878 28078
" />
<path d="M39709 27815
L39709 28021
L39728 28059
L39765 28078
L39822 28078
L39859 28059
L39878 28040
" />
<path d="M40065 28078
L40065 27815
" />
<path d="M40065 27684
L40046 27703
L40065 27721
L40084 27703
L40065 27684
L40065 27721
" />
<path d="M40253 27815
L40253 28078
" />
<path d="M40253 27853
L40271 27834
L40309 27815
L40365 27815
L40403 27834
L40421 27871
L40421 28078
" />
<path d="M40665 28078
L40628 28059
L40609 28040
L40590 28003
L40590 27890
L40609 27853
L40628 27834
L40665 27815
L40721 27815
L40759 27834
L40778 27853
L40796 27890
L40796 28003
L40778 28040
L40759 28059
L40721 28078
L40665 28078
" />
<path d="M40871 28115
L41171 28115
" />
<path d="M41265 28078
L41265 27684
L41490 28078
L41490 27684
" />
<path d="M41659 27965
L41846 27965
" />
<path d="M41621 28078
L41753 27684
L41884 28078
" />
<path d="M42015 28078
L42015 27684
L42240 28078
L42240 27684
" />
<path d="M42502 27684
L42577 27684
L42615 27703
L42652 27740
L42671 27815
L42671 27946
L42652 28021
L42615 28059
L42577 28078
L42502 28078
L42465 28059
L42427 28021
L42409 27946
L42409 27815
L42427 27740
L42465 27703
L42502 27684
" />
<path d="M43046 28078
L42821 28078
" />
<path d="M42934 28078
L42934 27684
L42896 27740
L42859 27778
L42821 27796
" />
<text x="72907.9" y="34720.5"
textLength="1182.88" font-size="524.934" lengthAdjust="spacingAndGlyphs"
text-anchor="middle" opacity="0">22u</text>
<path d="M72429 34345
L72448 34326
L72486 34308
L72579 34308
L72617 34326
L72636 34345
L72654 34383
L72654 34420
L72636 34476
L72411 34701
L72654 34701
" />
<path d="M72804 34345
L72823 34326
L72861 34308
L72954 34308
L72992 34326
L73010 34345
L73029 34383
L73029 34420
L73010 34476
L72786 34701
L73029 34701
" />
<path d="M73367 34439
L73367 34701
" />
<path d="M73198 34439
L73198 34645
L73217 34682
L73254 34701
L73310 34701
L73348 34682
L73367 34664
" />
<text x="72907.9" y="36196.9"
textLength="845.426" font-size="524.934" lengthAdjust="spacingAndGlyphs"
text-anchor="middle" opacity="0">C2</text>
<path d="M72842 36140
L72823 36159
L72767 36178
L72729 36178
L72673 36159
L72636 36121
L72617 36084
L72598 36009
L72598 35953
L72617 35878
L72636 35840
L72673 35803
L72729 35784
L72767 35784
L72823 35803
L72842 35821
" />
<path d="M72992 35821
L73010 35803
L73048 35784
L73142 35784
L73179 35803
L73198 35821
L73217 35859
L73217 35896
L73198 35953
L72973 36178
L73217 36178
" />
<g transform="rotate(-90 70276.4 33307.9)">
<text x="70276.4" y="33504.7"
textLength="1182.88" font-size="524.934" lengthAdjust="spacingAndGlyphs"
text-anchor="middle" opacity="0">22u</text>
</g>
<path d="M70098 33785
L70079 33767
L70060 33729
L70060 33635
L70079 33598
L70098 33579
L70135 33560
L70173 33560
L70229 33579
L70454 33804
L70454 33560
" />
<path d="M70098 33410
L70079 33392
L70060 33354
L70060 33261
L70079 33223
L70098 33204
L70135 33186
L70173 33186
L70229 33204
L70454 33429
L70454 33186
" />
<path d="M70192 32848
L70454 32848
" />
<path d="M70192 33017
L70398 33017
L70435 32998
L70454 32961
L70454 32904
L70435 32867
L70416 32848
" />
<g transform="rotate(-90 68800 33307.9)">
<text x="68800" y="33504.7"
textLength="845.426" font-size="524.934" lengthAdjust="spacingAndGlyphs"
text-anchor="middle" opacity="0">C3</text>
</g>
<path d="M68940 33373
L68959 33392
L68978 33448
L68978 33485
L68959 33542
L68921 33579
L68884 33598
L68809 33617
L68753 33617
L68678 33598
L68640 33579
L68603 33542
L68584 33485
L68584 33448
L68603 33392
L68621 33373
" />
<path d="M68584 33242
L68584 32998
L68734 33129
L68734 33073
L68753 33036
L68771 33017
L68809 32998
L68903 32998
L68940 33017
L68959 33036
L68978 33073
L68978 33186
L68959 33223
L68940 33242
" />
<text x="56692.1" y="26873.2"
textLength="1370.36" font-size="524.934" lengthAdjust="spacingAndGlyphs"
text-anchor="middle" opacity="0">4.7u</text>
<path d="M56307 26592
L56307 26854
" />
<path d="M56214 26442
L56120 26723
L56364 26723
" />
<path d="M56514 26816
L56532 26835
L56514 26854
L56495 26835
L56514 26816
L56514 26854
" />
<path d="M56664 26460
L56926 26460
L56757 26854
" />
<path d="M57245 26592
L57245 26854
" />
<path d="M57076 26592
L57076 26798
L57095 26835
L57132 26854
L57188 26854
L57226 26835
L57245 26816
" />
<text x="56692.1" y="25396.9"
textLength="845.426" font-size="524.934" lengthAdjust="spacingAndGlyphs"
text-anchor="middle" opacity="0">C4</text>
<path d="M56626 25340
L56607 25359
L56551 25378
L56514 25378
L56457 25359
L56420 25321
L56401 25284
L56382 25209
L56382 25153
L56401 25078
L56420 25040
L56457 25003
L56514 24984
L56551 24984
L56607 25003
L56626 25021
" />
<path d="M56963 25115
L56963 25378
" />
<path d="M56870 24965
L56776 25246
L57020 25246
" />
<text x="63107.9" y="23920.5"
textLength="807.93" font-size="524.934" lengthAdjust="spacingAndGlyphs"
text-anchor="middle" opacity="0">1u</text>
<path d="M63042 23901
L62817 23901
" />
<path d="M62929 23901
L62929 23508
L62892 23564
L62854 23601
L62817 23620
" />
<path d="M63379 23639
L63379 23901
" />
<path d="M63210 23639
L63210 23845
L63229 23882
L63267 23901
L63323 23901
L63360 23882
L63379 23864
" />
<text x="63107.9" y="25396.9"
textLength="845.426" font-size="524.934" lengthAdjust="spacingAndGlyphs"
text-anchor="middle" opacity="0">C5</text>
<path d="M63042 25340
L63023 25359
L62967 25378
L62929 25378
L62873 25359
L62836 25321
L62817 25284
L62798 25209
L62798 25153
L62817 25078
L62836 25040
L62873 25003
L62929 24984
L62967 24984
L63023 25003
L63042 25021
" />
<path d="M63398 24984
L63210 24984
L63192 25171
L63210 25153
L63248 25134
L63342 25134
L63379 25153
L63398 25171
L63417 25209
L63417 25303
L63398 25340
L63379 25359
L63342 25378
L63248 25378
L63210 25359
L63192 25340
" />
<text x="50711" y="41729.9"
textLength="1557.84" font-size="524.934" lengthAdjust="spacingAndGlyphs"
text-anchor="middle" opacity="0">100u</text>
<path d="M50270 41711
L50045 41711
" />
<path d="M50157 41711
L50157 41317
L50120 41373
L50082 41411
L50045 41429
" />
<path d="M50514 41317
L50551 41317
L50589 41336
L50607 41354
L50626 41392
L50645 41467
L50645 41561
L50626 41636
L50607 41673
L50589 41692
L50551 41711
L50514 41711
L50476 41692
L50457 41673
L50439 41636
L50420 41561
L50420 41467
L50439 41392
L50457 41354
L50476 41336
L50514 41317
" />
<path d="M50889 41317
L50926 41317
L50964 41336
L50982 41354
L51001 41392
L51020 41467
L51020 41561
L51001 41636
L50982 41673
L50964 41692
L50926 41711
L50889 41711
L50851 41692
L50832 41673
L50814 41636
L50795 41561
L50795 41467
L50814 41392
L50832 41354
L50851 41336
L50889 41317
" />
<path d="M51357 41448
L51357 41711
" />
<path d="M51189 41448
L51189 41654
L51207 41692
L51245 41711
L51301 41711
L51339 41692
L51357 41673
" />
<text x="50711" y="43796.9"
textLength="845.426" font-size="524.934" lengthAdjust="spacingAndGlyphs"
text-anchor="middle" opacity="0">C6</text>
<path d="M50645 43740
L50626 43759
L50570 43778
L50532 43778
L50476 43759
L50439 43721
L50420 43684
L50401 43609
L50401 43553
L50420 43478
L50439 43440
L50476 43403
L50532 43384
L50570 43384
L50626 43403
L50645 43421
" />
<path d="M50982 43384
L50907 43384
L50870 43403
L50851 43421
L50814 43478
L50795 43553
L50795 43703
L50814 43740
L50832 43759
L50870 43778
L50945 43778
L50982 43759
L51001 43740
L51020 43703
L51020 43609
L51001 43571
L50982 43553
L50945 43534
L50870 43534
L50832 43553
L50814 43571
L50795 43609
" />
<g transform="rotate(-90 56184.3 43584.3)">
<text x="56184.3" y="43781.1"
textLength="1557.84" font-size="524.934" lengthAdjust="spacingAndGlyphs"
text-anchor="middle" opacity="0">100n</text>
</g>
<path d="M56362 44024
L56362 44249
" />
<path d="M56362 44137
L55968 44137
L56024 44174
L56062 44212
L56081 44249
" />
<path d="M55968 43781
L55968 43743
L55987 43706
L56006 43687
L56043 43668
L56118 43649
L56212 43649
L56287 43668
L56324 43687
L56343 43706
L56362 43743
L56362 43781
L56343 43818
L56324 43837
L56287 43856
L56212 43874
L56118 43874
L56043 43856
L56006 43837
L55987 43818
L55968 43781
" />
<path d="M55968 43406
L55968 43368
L55987 43331
L56006 43312
L56043 43293
L56118 43274
L56212 43274
L56287 43293
L56324 43312
L56343 43331
L56362 43368
L56362 43406
L56343 43443
L56324 43462
L56287 43481
L56212 43499
L56118 43499
L56043 43481
L56006 43462
L55987 43443
L55968 43406
" />
<path d="M56099 43106
L56362 43106
" />
<path d="M56137 43106
L56118 43087
L56099 43049
L56099 42993
L56118 42956
L56156 42937
L56362 42937
" />
<g transform="rotate(-90 55200 43584.3)">
<text x="55200" y="43781.1"
textLength="845.426" font-size="524.934" lengthAdjust="spacingAndGlyphs"
text-anchor="middle" opacity="0">C7</text>
</g>
<path d="M55340 43649
L55359 43668
L55378 43724
L55378 43762
L55359 43818
L55321 43856
L55284 43874
L55209 43893
L55153 43893
L55078 43874
L55040 43856
L55003 43818
L54984 43762
L54984 43724
L55003 43668
L55021 43649
" />
<path d="M54984 43518
L54984 43256
L55378 43424
" />
<g transform="rotate(-90 64184.3 43415.7)">
<text x="64184.3" y="43612.6"
textLength="1557.84" font-size="524.934" lengthAdjust="spacingAndGlyphs"
text-anchor="middle" opacity="0">100n</text>
</g>
<path d="M64362 43856
L64362 44081
" />
<path d="M64362 43968
L63968 43968
L64024 44006
L64062 44043
L64081 44081
" />
<path d="M63968 43612
L63968 43575
L63987 43537
L64006 43518
L64043 43500
L64118 43481
L64212 43481
L64287 43500
L64324 43518
L64343 43537
L64362 43575
L64362 43612
L64343 43650
L64324 43668
L64287 43687
L64212 43706
L64118 43706
L64043 43687
L64006 43668
L63987 43650
L63968 43612
" />
<path d="M63968 43237
L63968 43200
L63987 43162
L64006 43143
L64043 43125
L64118 43106
L64212 43106
L64287 43125
L64324 43143
L64343 43162
L64362 43200
L64362 43237
L64343 43275
L64324 43293
L64287 43312
L64212 43331
L64118 43331
L64043 43312
L64006 43293
L63987 43275
L63968 43237
" />
<path d="M64099 42937
L64362 42937
" />
<path d="M64137 42937
L64118 42918
L64099 42881
L64099 42825
L64118 42787
L64156 42768
L64362 42768
" />
<g transform="rotate(-90 63200 43415.7)">
<text x="63200" y="43612.6"
textLength="845.426" font-size="524.934" lengthAdjust="spacingAndGlyphs"
text-anchor="middle" opacity="0">C8</text>
</g>
<path d="M63340 43481
L63359 43500
L63378 43556
L63378 43593
L63359 43650
L63321 43687
L63284 43706
L63209 43725
L63153 43725
L63078 43706
L63040 43687
L63003 43650
L62984 43593
L62984 43556
L63003 43500
L63021 43481
" />
<path d="M63153 43256
L63134 43293
L63115 43312
L63078 43331
L63059 43331
L63021 43312
L63003 43293
L62984 43256
L62984 43181
L63003 43143
L63021 43125
L63059 43106
L63078 43106
L63115 43125
L63134 43143
L63153 43181
L63153 43256
L63171 43293
L63190 43312
L63228 43331
L63303 43331
L63340 43312
L63359 43293
L63378 43256
L63378 43181
L63359 43143
L63340 43125
L63303 43106
L63228 43106
L63190 43125
L63171 43143
L63153 43181
" />
<text x="78692.1" y="40473.2"
textLength="1370.36" font-size="524.934" lengthAdjust="spacingAndGlyphs"
text-anchor="middle" opacity="0">4.7u</text>
<path d="M78307 40192
L78307 40454
" />
<path d="M78214 40042
L78120 40323
L78364 40323
" />
<path d="M78514 40416
L78532 40435
L78514 40454
L78495 40435
L78514 40416
L78514 40454
" />
<path d="M78664 40060
L78926 40060
L78757 40454
" />
<path d="M79245 40192
L79245 40454
" />
<path d="M79076 40192
L79076 40398
L79095 40435
L79132 40454
L79188 40454
L79226 40435
L79245 40416
" />
<text x="78692.1" y="38996.9"
textLength="1557.84" font-size="524.934" lengthAdjust="spacingAndGlyphs"
text-anchor="middle" opacity="0">C1A1</text>
<path d="M78270 38940
L78251 38959
L78195 38978
L78157 38978
L78101 38959
L78064 38921
L78045 38884
L78026 38809
L78026 38753
L78045 38678
L78064 38640
L78101 38603
L78157 38584
L78195 38584
L78251 38603
L78270 38621
" />
<path d="M78645 38978
L78420 38978
" />
<path d="M78532 38978
L78532 38584
L78495 38640
L78457 38678
L78420 38696
" />
<path d="M78795 38865
L78982 38865
" />
<path d="M78757 38978
L78888 38584
L79020 38978
" />
<path d="M79357 38978
L79132 38978
" />
<path d="M79245 38978
L79245 38584
L79207 38640
L79170 38678
L79132 38696
" />
<text x="78692.1" y="36873.2"
textLength="1370.36" font-size="524.934" lengthAdjust="spacingAndGlyphs"
text-anchor="middle" opacity="0">4.7u</text>
<path d="M78307 36592
L78307 36854
" />
<path d="M78214 36442
L78120 36723
L78364 36723
" />
<path d="M78514 36816
L78532 36835
L78514 36854
L78495 36835
L78514 36816
L78514 36854
" />
<path d="M78664 36460
L78926 36460
L78757 36854
" />
<path d="M79245 36592
L79245 36854
" />
<path d="M79076 36592
L79076 36798
L79095 36835
L79132 36854
L79188 36854
L79226 36835
L79245 36816
" />
<text x="78692.1" y="35396.9"
textLength="1614.08" font-size="524.934" lengthAdjust="spacingAndGlyphs"
text-anchor="middle" opacity="0">C1B1</text>
<path d="M78242 35340
L78223 35359
L78167 35378
L78129 35378
L78073 35359
L78035 35321
L78017 35284
L77998 35209
L77998 35153
L78017 35078
L78035 35040
L78073 35003
L78129 34984
L78167 34984
L78223 35003
L78242 35021
" />
<path d="M78617 35378
L78392 35378
" />
<path d="M78504 35378
L78504 34984
L78467 35040
L78429 35078
L78392 35096
" />
<path d="M78917 35171
L78973 35190
L78992 35209
L79010 35246
L79010 35303
L78992 35340
L78973 35359
L78935 35378
L78785 35378
L78785 34984
L78917 34984
L78954 35003
L78973 35021
L78992 35059
L78992 35096
L78973 35134
L78954 35153
L78917 35171
L78785 35171
" />
<path d="M79385 35378
L79160 35378
" />
<path d="M79273 35378
L79273 34984
L79235 35040
L79198 35078
L79160 35096
" />
<text x="53200" y="46624.4"
textLength="2363.99" font-size="524.934" lengthAdjust="spacingAndGlyphs"
text-anchor="middle" opacity="0">1N4007</text>
<path d="M52356 46605
L52131 46605
" />
<path d="M52243 46605
L52243 46211
L52206 46268
L52168 46305
L52131 46324
" />
<path d="M52525 46605
L52525 46211
L52750 46605
L52750 46211
" />
<path d="M53106 46343
L53106 46605
" />
<path d="M53012 46193
L52918 46474
L53162 46474
" />
<path d="M53387 46211
L53424 46211
L53462 46230
L53481 46249
L53499 46286
L53518 46361
L53518 46455
L53499 46530
L53481 46568
L53462 46586
L53424 46605
L53387 46605
L53349 46586
L53331 46568
L53312 46530
L53293 46455
L53293 46361
L53312 46286
L53331 46249
L53349 46230
L53387 46211
" />
<path d="M53762 46211
L53799 46211
L53837 46230
L53856 46249
L53874 46286
L53893 46361
L53893 46455
L53874 46530
L53856 46568
L53837 46586
L53799 46605
L53762 46605
L53724 46586
L53706 46568
L53687 46530
L53668 46455
L53668 46361
L53687 46286
L53706 46249
L53724 46230
L53762 46211
" />
<path d="M54024 46211
L54287 46211
L54118 46605
" />
<text x="53046.5" y="47596.9"
textLength="845.426" font-size="524.934" lengthAdjust="spacingAndGlyphs"
text-anchor="middle" opacity="0">D1</text>
<path d="M52755 47578
L52755 47184
L52849 47184
L52905 47203
L52943 47240
L52962 47278
L52980 47353
L52980 47409
L52962 47484
L52943 47521
L52905 47559
L52849 47578
L52755 47578
" />
<path d="M53355 47578
L53130 47578
" />
<path d="M53243 47578
L53243 47184
L53205 47240
L53168 47278
L53130 47296
" />
<text x="55200" y="48423.6"
textLength="470.472" font-size="524.934" lengthAdjust="spacingAndGlyphs"
text-anchor="middle" opacity="0">K</text>
<path d="M55096 48404
L55096 48011
" />
<path d="M55321 48404
L55153 48179
" />
<path d="M55321 48011
L55096 48236
" />
<g transform="rotate(-90 89459.8 41418.9)">
<text x="89459.8" y="41615.7"
textLength="1239.13" font-size="524.934" lengthAdjust="spacingAndGlyphs"
text-anchor="middle" opacity="0">DB9</text>
</g>
<path d="M89637 41906
L89244 41906
L89244 41812
L89262 41756
L89300 41718
L89337 41700
L89412 41681
L89469 41681
L89544 41700
L89581 41718
L89619 41756
L89637 41812
L89637 41906
" />
<path d="M89431 41381
L89450 41325
L89469 41306
L89506 41287
L89562 41287
L89600 41306
L89619 41325
L89637 41362
L89637 41512
L89244 41512
L89244 41381
L89262 41343
L89281 41325
L89319 41306
L89356 41306
L89394 41325
L89412 41343
L89431 41381
L89431 41512
" />
<path d="M89637 41100
L89637 41025
L89619 40987
L89600 40968
L89544 40931
L89469 40912
L89319 40912
L89281 40931
L89262 40950
L89244 40987
L89244 41062
L89262 41100
L89281 41118
L89319 41137
L89412 41137
L89450 41118
L89469 41100
L89487 41062
L89487 40987
L89469 40950
L89450 40931
L89412 40912
" />
<g transform="rotate(-90 87688.2 41418.9)">
<text x="87688.2" y="41615.7"
textLength="751.687" font-size="524.934" lengthAdjust="spacingAndGlyphs"
text-anchor="middle" opacity="0">J1</text>
</g>
<path d="M87472 41550
L87753 41550
L87810 41568
L87847 41606
L87866 41662
L87866 41700
" />
<path d="M87866 41156
L87866 41381
" />
<path d="M87866 41268
L87472 41268
L87528 41306
L87566 41343
L87585 41381
" />
<g transform="rotate(-90 40962.2 37400)">
<text x="40962.2" y="37596.9"
textLength="1276.62" font-size="524.934" lengthAdjust="spacingAndGlyphs"
text-anchor="middle" opacity="0">BNC</text>
</g>
<path d="M40934 37774
L40952 37718
L40971 37699
L41009 37681
L41065 37681
L41102 37699
L41121 37718
L41140 37756
L41140 37906
L40746 37906
L40746 37774
L40765 37737
L40784 37718
L40821 37699
L40859 37699
L40896 37718
L40915 37737
L40934 37774
L40934 37906
" />
<path d="M41140 37512
L40746 37512
L41140 37287
L40746 37287
" />
<path d="M41102 36875
L41121 36893
L41140 36950
L41140 36987
L41121 37043
L41084 37081
L41046 37100
L40971 37118
L40915 37118
L40840 37100
L40802 37081
L40765 37043
L40746 36987
L40746 36950
L40765 36893
L40784 36875
" />
<g transform="rotate(-90 38600 37400)">
<text x="38600" y="37596.9"
textLength="751.687" font-size="524.934" lengthAdjust="spacingAndGlyphs"
text-anchor="middle" opacity="0">J2</text>
</g>
<path d="M38384 37531
L38665 37531
L38721 37549
L38759 37587
L38778 37643
L38778 37681
" />
<path d="M38421 37362
L38403 37343
L38384 37306
L38384 37212
L38403 37175
L38421 37156
L38459 37137
L38496 37137
L38553 37156
L38778 37381
L38778 37137
" />
<text x="46600" y="47989.8"
textLength="564.211" font-size="524.934" lengthAdjust="spacingAndGlyphs"
text-anchor="middle" opacity="0">+</text>
<path d="M46450 47821
L46749 47821
" />
<path d="M46600 47971
L46600 47671
" />
<text x="46600" y="49741.7"
textLength="751.687" font-size="524.934" lengthAdjust="spacingAndGlyphs"
text-anchor="middle" opacity="0">J3</text>
<path d="M46468 49329
L46468 49610
L46450 49666
L46412 49704
L46356 49722
L46318 49722
" />
<path d="M46618 49329
L46862 49329
L46731 49479
L46787 49479
L46824 49498
L46843 49516
L46862 49554
L46862 49647
L46843 49685
L46824 49704
L46787 49722
L46674 49722
L46637 49704
L46618 49685
" />
<text x="46500" y="44089.8"
textLength="564.211" font-size="524.934" lengthAdjust="spacingAndGlyphs"
text-anchor="middle" opacity="0">-</text>
<path d="M46350 43921
L46649 43921
" />
<text x="46500" y="45841.7"
textLength="751.687" font-size="524.934" lengthAdjust="spacingAndGlyphs"
text-anchor="middle" opacity="0">J4</text>
<path d="M46368 45429
L46368 45710
L46350 45766
L46312 45804
L46256 45822
L46218 45822
" />
<path d="M46724 45560
L46724 45822
" />
<path d="M46631 45410
L46537 45691
L46781 45691
" />
<text x="45500" y="40155.9"
textLength="3357.61" font-size="524.934" lengthAdjust="spacingAndGlyphs"
text-anchor="middle" opacity="0">GREEN LED</text>
<path d="M44159 39762
L44122 39743
L44065 39743
L44009 39762
L43972 39799
L43953 39837
L43934 39912
L43934 39968
L43953 40043
L43972 40080
L44009 40118
L44065 40137
L44103 40137
L44159 40118
L44178 40099
L44178 39968
L44103 39968
" />
<path d="M44571 40137
L44440 39949
" />
<path d="M44347 40137
L44347 39743
L44497 39743
L44534 39762
L44553 39780
L44571 39818
L44571 39874
L44553 39912
L44534 39930
L44497 39949
L44347 39949
" />
<path d="M44740 39930
L44871 39930
" />
<path d="M44928 40137
L44740 40137
L44740 39743
L44928 39743
" />
<path d="M45096 39930
L45228 39930
" />
<path d="M45284 40137
L45096 40137
L45096 39743
L45284 39743
" />
<path d="M45453 40137
L45453 39743
L45678 40137
L45678 39743
" />
<path d="M46353 40137
L46165 40137
L46165 39743
" />
<path d="M46484 39930
L46615 39930
" />
<path d="M46671 40137
L46484 40137
L46484 39743
L46671 39743
" />
<path d="M46840 40137
L46840 39743
L46934 39743
L46990 39762
L47027 39799
L47046 39837
L47065 39912
L47065 39968
L47046 40043
L47027 40080
L46990 40118
L46934 40137
L46840 40137
" />
</g>
<g style="fill:#000000; fill-opacity:0.0; 
stroke:#000000; stroke-width:78.7402; stroke-opacity:1; 
stroke-linecap:round; stroke-linejoin:round;">
<text x="45492.1" y="38557.5"
textLength="946.663" font-size="419.947" lengthAdjust="spacingAndGlyphs"
text-anchor="middle" opacity="0">LD1</text>
<path d="M45282 38542
L45132 38542
L45132 38227
" />
<path d="M45387 38542
L45387 38227
L45462 38227
L45507 38242
L45537 38272
L45552 38302
L45567 38362
L45567 38407
L45552 38467
L45537 38497
L45507 38527
L45462 38542
L45387 38542
" />
<path d="M45867 38542
L45687 38542
" />
<path d="M45777 38542
L45777 38227
L45747 38272
L45717 38302
L45687 38317
" />
</g>
<g style="fill:#000000; fill-opacity:0.0; 
stroke:#000000; stroke-width:59.0551; stroke-opacity:1; 
stroke-linecap:round; stroke-linejoin:round;">
<text x="83800" y="33644.1"
textLength="927.259" font-size="524.934" lengthAdjust="spacingAndGlyphs"
text-anchor="middle" opacity="0">1M</text>
<path d="M83687 33625
L83462 33625
" />
<path d="M83575 33625
L83575 33231
L83537 33287
L83500 33325
L83462 33344
" />
<path d="M83856 33625
L83856 33231
L83987 33512
L84118 33231
L84118 33625
" />
<text x="83229.1" y="29628.3"
textLength="845.426" font-size="524.934" lengthAdjust="spacingAndGlyphs"
text-anchor="middle" opacity="0">R3</text>
<path d="M83163 29609
L83032 29422
" />
<path d="M82938 29609
L82938 29215
L83088 29215
L83126 29234
L83144 29253
L83163 29290
L83163 29347
L83144 29384
L83126 29403
L83088 29422
L82938 29422
" />
<path d="M83294 29215
L83538 29215
L83407 29365
L83463 29365
L83500 29384
L83519 29403
L83538 29440
L83538 29534
L83519 29572
L83500 29590
L83463 29609
L83350 29609
L83313 29590
L83294 29572
" />
<text x="54000" y="27252"
textLength="1145.39" font-size="524.934" lengthAdjust="spacingAndGlyphs"
text-anchor="middle" opacity="0">50k</text>
<path d="M53746 26839
L53559 26839
L53540 27026
L53559 27008
L53596 26989
L53690 26989
L53728 27008
L53746 27026
L53765 27064
L53765 27158
L53746 27195
L53728 27214
L53690 27233
L53596 27233
L53559 27214
L53540 27195
" />
<path d="M54009 26839
L54046 26839
L54084 26858
L54103 26877
L54121 26914
L54140 26989
L54140 27083
L54121 27158
L54103 27195
L54084 27214
L54046 27233
L54009 27233
L53971 27214
L53953 27195
L53934 27158
L53915 27083
L53915 26989
L53934 26914
L53953 26877
L53971 26858
L54009 26839
" />
<path d="M54309 27233
L54309 26839
" />
<path d="M54346 27083
L54459 27233
" />
<path d="M54459 26970
L54309 27120
" />
<text x="54250" y="28694.9"
textLength="845.426" font-size="524.934" lengthAdjust="spacingAndGlyphs"
text-anchor="middle" opacity="0">P1</text>
<path d="M53959 28676
L53959 28282
L54109 28282
L54146 28301
L54165 28319
L54184 28357
L54184 28413
L54165 28451
L54146 28469
L54109 28488
L53959 28488
" />
<path d="M54559 28676
L54334 28676
" />
<path d="M54446 28676
L54446 28282
L54409 28338
L54371 28376
L54334 28394
" />
<g transform="rotate(-90 69455.1 41800)">
<text x="69455.1" y="41996.9"
textLength="1332.86" font-size="524.934" lengthAdjust="spacingAndGlyphs"
text-anchor="middle" opacity="0">4.7k</text>
</g>
<path d="M69370 42165
L69633 42165
" />
<path d="M69220 42259
L69501 42353
L69501 42109
" />
<path d="M69595 41959
L69614 41940
L69633 41959
L69614 41978
L69595 41959
L69633 41959
" />
<path d="M69239 41809
L69239 41546
L69633 41715
" />
<path d="M69633 41396
L69239 41396
" />
<path d="M69483 41359
L69633 41246
" />
<path d="M69370 41246
L69520 41396
" />
<g transform="rotate(-90 70898 41550)">
<text x="70898" y="41746.9"
textLength="1182.88" font-size="524.934" lengthAdjust="spacingAndGlyphs"
text-anchor="middle" opacity="0">RV1</text>
</g>
<path d="M71076 41784
L70888 41915
" />
<path d="M71076 42009
L70682 42009
L70682 41859
L70701 41821
L70719 41803
L70757 41784
L70813 41784
L70851 41803
L70869 41821
L70888 41859
L70888 42009
" />
<path d="M70682 41671
L71076 41540
L70682 41409
" />
<path d="M71076 41071
L71076 41296
" />
<path d="M71076 41184
L70682 41184
L70738 41221
L70776 41259
L70794 41296
" />
<text x="78800" y="46589.8"
textLength="6057.27" font-size="524.934" lengthAdjust="spacingAndGlyphs"
text-anchor="middle" opacity="0">Conn_01x01_Female</text>
<path d="M76128 46533
L76109 46552
L76053 46571
L76015 46571
L75959 46552
L75922 46514
L75903 46477
L75884 46402
L75884 46346
L75903 46271
L75922 46233
L75959 46196
L76015 46177
L76053 46177
L76109 46196
L76128 46214
" />
<path d="M76353 46571
L76315 46552
L76297 46533
L76278 46496
L76278 46383
L76297 46346
L76315 46327
L76353 46308
L76409 46308
L76447 46327
L76465 46346
L76484 46383
L76484 46496
L76465 46533
L76447 46552
L76409 46571
L76353 46571
" />
<path d="M76653 46308
L76653 46571
" />
<path d="M76653 46346
L76672 46327
L76709 46308
L76765 46308
L76803 46327
L76822 46364
L76822 46571
" />
<path d="M77009 46308
L77009 46571
" />
<path d="M77009 46346
L77028 46327
L77065 46308
L77122 46308
L77159 46327
L77178 46364
L77178 46571
" />
<path d="M77272 46608
L77572 46608
" />
<path d="M77740 46177
L77778 46177
L77815 46196
L77834 46214
L77853 46252
L77871 46327
L77871 46421
L77853 46496
L77834 46533
L77815 46552
L77778 46571
L77740 46571
L77703 46552
L77684 46533
L77665 46496
L77647 46421
L77647 46327
L77665 46252
L77684 46214
L77703 46196
L77740 46177
" />
<path d="M78246 46571
L78021 46571
" />
<path d="M78134 46571
L78134 46177
L78096 46233
L78059 46271
L78021 46289
" />
<path d="M78378 46571
L78584 46308
" />
<path d="M78378 46308
L78584 46571
" />
<path d="M78809 46177
L78846 46177
L78884 46196
L78903 46214
L78921 46252
L78940 46327
L78940 46421
L78921 46496
L78903 46533
L78884 46552
L78846 46571
L78809 46571
L78771 46552
L78753 46533
L78734 46496
L78715 46421
L78715 46327
L78734 46252
L78753 46214
L78771 46196
L78809 46177
" />
<path d="M79315 46571
L79090 46571
" />
<path d="M79203 46571
L79203 46177
L79165 46233
L79128 46271
L79090 46289
" />
<path d="M79390 46608
L79690 46608
" />
<path d="M79915 46364
L79784 46364
" />
<path d="M79784 46571
L79784 46177
L79971 46177
" />
<path d="M80271 46552
L80234 46571
L80159 46571
L80121 46552
L80102 46514
L80102 46364
L80121 46327
L80159 46308
L80234 46308
L80271 46327
L80290 46364
L80290 46402
L80102 46439
" />
<path d="M80459 46571
L80459 46308
" />
<path d="M80459 46346
L80477 46327
L80515 46308
L80571 46308
L80609 46327
L80627 46364
L80627 46571
" />
<path d="M80627 46364
L80646 46327
L80684 46308
L80740 46308
L80777 46327
L80796 46364
L80796 46571
" />
<path d="M81152 46571
L81152 46364
L81134 46327
L81096 46308
L81021 46308
L80984 46327
" />
<path d="M81152 46552
L81115 46571
L81021 46571
L80984 46552
L80965 46514
L80965 46477
L80984 46439
L81021 46421
L81115 46421
L81152 46402
" />
<path d="M81396 46571
L81359 46552
L81340 46514
L81340 46177
" />
<path d="M81696 46552
L81659 46571
L81584 46571
L81546 46552
L81527 46514
L81527 46364
L81546 46327
L81584 46308
L81659 46308
L81696 46327
L81715 46364
L81715 46402
L81527 46439
" />
<text x="78800" y="48282.7"
textLength="1370.36" font-size="524.934" lengthAdjust="spacingAndGlyphs"
text-anchor="middle" opacity="0">IRA1</text>
<path d="M78246 48263
L78246 47870
" />
<path d="M78659 48263
L78528 48076
" />
<path d="M78434 48263
L78434 47870
L78584 47870
L78621 47888
L78640 47907
L78659 47945
L78659 48001
L78640 48038
L78621 48057
L78584 48076
L78434 48076
" />
<path d="M78809 48151
L78996 48151
" />
<path d="M78771 48263
L78903 47870
L79034 48263
" />
<path d="M79371 48263
L79146 48263
" />
<path d="M79259 48263
L79259 47870
L79221 47926
L79184 47963
L79146 47982
" />
<text x="73800" y="46589.8"
textLength="6057.27" font-size="524.934" lengthAdjust="spacingAndGlyphs"
text-anchor="middle" opacity="0">Conn_01x01_Female</text>
<path d="M71128 46533
L71109 46552
L71053 46571
L71015 46571
L70959 46552
L70922 46514
L70903 46477
L70884 46402
L70884 46346
L70903 46271
L70922 46233
L70959 46196
L71015 46177
L71053 46177
L71109 46196
L71128 46214
" />
<path d="M71353 46571
L71315 46552
L71297 46533
L71278 46496
L71278 46383
L71297 46346
L71315 46327
L71353 46308
L71409 46308
L71447 46327
L71465 46346
L71484 46383
L71484 46496
L71465 46533
L71447 46552
L71409 46571
L71353 46571
" />
<path d="M71653 46308
L71653 46571
" />
<path d="M71653 46346
L71672 46327
L71709 46308
L71765 46308
L71803 46327
L71822 46364
L71822 46571
" />
<path d="M72009 46308
L72009 46571
" />
<path d="M72009 46346
L72028 46327
L72065 46308
L72122 46308
L72159 46327
L72178 46364
L72178 46571
" />
<path d="M72272 46608
L72572 46608
" />
<path d="M72740 46177
L72778 46177
L72815 46196
L72834 46214
L72853 46252
L72871 46327
L72871 46421
L72853 46496
L72834 46533
L72815 46552
L72778 46571
L72740 46571
L72703 46552
L72684 46533
L72665 46496
L72647 46421
L72647 46327
L72665 46252
L72684 46214
L72703 46196
L72740 46177
" />
<path d="M73246 46571
L73021 46571
" />
<path d="M73134 46571
L73134 46177
L73096 46233
L73059 46271
L73021 46289
" />
<path d="M73378 46571
L73584 46308
" />
<path d="M73378 46308
L73584 46571
" />
<path d="M73809 46177
L73846 46177
L73884 46196
L73903 46214
L73921 46252
L73940 46327
L73940 46421
L73921 46496
L73903 46533
L73884 46552
L73846 46571
L73809 46571
L73771 46552
L73753 46533
L73734 46496
L73715 46421
L73715 46327
L73734 46252
L73753 46214
L73771 46196
L73809 46177
" />
<path d="M74315 46571
L74090 46571
" />
<path d="M74203 46571
L74203 46177
L74165 46233
L74128 46271
L74090 46289
" />
<path d="M74390 46608
L74690 46608
" />
<path d="M74915 46364
L74784 46364
" />
<path d="M74784 46571
L74784 46177
L74971 46177
" />
<path d="M75271 46552
L75234 46571
L75159 46571
L75121 46552
L75102 46514
L75102 46364
L75121 46327
L75159 46308
L75234 46308
L75271 46327
L75290 46364
L75290 46402
L75102 46439
" />
<path d="M75459 46571
L75459 46308
" />
<path d="M75459 46346
L75477 46327
L75515 46308
L75571 46308
L75609 46327
L75627 46364
L75627 46571
" />
<path d="M75627 46364
L75646 46327
L75684 46308
L75740 46308
L75777 46327
L75796 46364
L75796 46571
" />
<path d="M76152 46571
L76152 46364
L76134 46327
L76096 46308
L76021 46308
L75984 46327
" />
<path d="M76152 46552
L76115 46571
L76021 46571
L75984 46552
L75965 46514
L75965 46477
L75984 46439
L76021 46421
L76115 46421
L76152 46402
" />
<path d="M76396 46571
L76359 46552
L76340 46514
L76340 46177
" />
<path d="M76696 46552
L76659 46571
L76584 46571
L76546 46552
L76527 46514
L76527 46364
L76546 46327
L76584 46308
L76659 46308
L76696 46327
L76715 46364
L76715 46402
L76527 46439
" />
<text x="73800" y="48282.7"
textLength="845.426" font-size="524.934" lengthAdjust="spacingAndGlyphs"
text-anchor="middle" opacity="0">K1</text>
<path d="M73509 48263
L73509 47870
" />
<path d="M73734 48263
L73565 48038
" />
<path d="M73734 47870
L73509 48095
" />
<path d="M74109 48263
L73884 48263
" />
<path d="M73996 48263
L73996 47870
L73959 47926
L73921 47963
L73884 47982
" />
<text x="76400" y="46589.8"
textLength="6057.27" font-size="524.934" lengthAdjust="spacingAndGlyphs"
text-anchor="middle" opacity="0">Conn_01x01_Female</text>
<path d="M73728 46533
L73709 46552
L73653 46571
L73615 46571
L73559 46552
L73522 46514
L73503 46477
L73484 46402
L73484 46346
L73503 46271
L73522 46233
L73559 46196
L73615 46177
L73653 46177
L73709 46196
L73728 46214
" />
<path d="M73953 46571
L73915 46552
L73897 46533
L73878 46496
L73878 46383
L73897 46346
L73915 46327
L73953 46308
L74009 46308
L74047 46327
L74065 46346
L74084 46383
L74084 46496
L74065 46533
L74047 46552
L74009 46571
L73953 46571
" />
<path d="M74253 46308
L74253 46571
" />
<path d="M74253 46346
L74272 46327
L74309 46308
L74365 46308
L74403 46327
L74422 46364
L74422 46571
" />
<path d="M74609 46308
L74609 46571
" />
<path d="M74609 46346
L74628 46327
L74665 46308
L74722 46308
L74759 46327
L74778 46364
L74778 46571
" />
<path d="M74872 46608
L75172 46608
" />
<path d="M75340 46177
L75378 46177
L75415 46196
L75434 46214
L75453 46252
L75471 46327
L75471 46421
L75453 46496
L75434 46533
L75415 46552
L75378 46571
L75340 46571
L75303 46552
L75284 46533
L75265 46496
L75247 46421
L75247 46327
L75265 46252
L75284 46214
L75303 46196
L75340 46177
" />
<path d="M75846 46571
L75621 46571
" />
<path d="M75734 46571
L75734 46177
L75696 46233
L75659 46271
L75621 46289
" />
<path d="M75978 46571
L76184 46308
" />
<path d="M75978 46308
L76184 46571
" />
<path d="M76409 46177
L76446 46177
L76484 46196
L76503 46214
L76521 46252
L76540 46327
L76540 46421
L76521 46496
L76503 46533
L76484 46552
L76446 46571
L76409 46571
L76371 46552
L76353 46533
L76334 46496
L76315 46421
L76315 46327
L76334 46252
L76353 46214
L76371 46196
L76409 46177
" />
<path d="M76915 46571
L76690 46571
" />
<path d="M76803 46571
L76803 46177
L76765 46233
L76728 46271
L76690 46289
" />
<path d="M76990 46608
L77290 46608
" />
<path d="M77515 46364
L77384 46364
" />
<path d="M77384 46571
L77384 46177
L77571 46177
" />
<path d="M77871 46552
L77834 46571
L77759 46571
L77721 46552
L77702 46514
L77702 46364
L77721 46327
L77759 46308
L77834 46308
L77871 46327
L77890 46364
L77890 46402
L77702 46439
" />
<path d="M78059 46571
L78059 46308
" />
<path d="M78059 46346
L78077 46327
L78115 46308
L78171 46308
L78209 46327
L78227 46364
L78227 46571
" />
<path d="M78227 46364
L78246 46327
L78284 46308
L78340 46308
L78377 46327
L78396 46364
L78396 46571
" />
<path d="M78752 46571
L78752 46364
L78734 46327
L78696 46308
L78621 46308
L78584 46327
" />
<path d="M78752 46552
L78715 46571
L78621 46571
L78584 46552
L78565 46514
L78565 46477
L78584 46439
L78621 46421
L78715 46421
L78752 46402
" />
<path d="M78996 46571
L78959 46552
L78940 46514
L78940 46177
" />
<path d="M79296 46552
L79259 46571
L79184 46571
L79146 46552
L79127 46514
L79127 46364
L79146 46327
L79184 46308
L79259 46308
L79296 46327
L79315 46364
L79315 46402
L79127 46439
" />
<text x="76400" y="48282.7"
textLength="1426.6" font-size="524.934" lengthAdjust="spacingAndGlyphs"
text-anchor="middle" opacity="0">IRK1</text>
<path d="M75818 48263
L75818 47870
" />
<path d="M76231 48263
L76100 48076
" />
<path d="M76006 48263
L76006 47870
L76156 47870
L76193 47888
L76212 47907
L76231 47945
L76231 48001
L76212 48038
L76193 48057
L76156 48076
L76006 48076
" />
<path d="M76400 48263
L76400 47870
" />
<path d="M76624 48263
L76456 48038
" />
<path d="M76624 47870
L76400 48095
" />
<path d="M76999 48263
L76774 48263
" />
<path d="M76887 48263
L76887 47870
L76849 47926
L76812 47963
L76774 47982
" />
<text x="68800" y="46789.8"
textLength="6057.27" font-size="524.934" lengthAdjust="spacingAndGlyphs"
text-anchor="middle" opacity="0">Conn_01x01_Female</text>
<path d="M66128 46733
L66109 46752
L66053 46771
L66015 46771
L65959 46752
L65922 46714
L65903 46677
L65884 46602
L65884 46546
L65903 46471
L65922 46433
L65959 46396
L66015 46377
L66053 46377
L66109 46396
L66128 46414
" />
<path d="M66353 46771
L66315 46752
L66297 46733
L66278 46696
L66278 46583
L66297 46546
L66315 46527
L66353 46508
L66409 46508
L66447 46527
L66465 46546
L66484 46583
L66484 46696
L66465 46733
L66447 46752
L66409 46771
L66353 46771
" />
<path d="M66653 46508
L66653 46771
" />
<path d="M66653 46546
L66672 46527
L66709 46508
L66765 46508
L66803 46527
L66822 46564
L66822 46771
" />
<path d="M67009 46508
L67009 46771
" />
<path d="M67009 46546
L67028 46527
L67065 46508
L67122 46508
L67159 46527
L67178 46564
L67178 46771
" />
<path d="M67272 46808
L67572 46808
" />
<path d="M67740 46377
L67778 46377
L67815 46396
L67834 46414
L67853 46452
L67871 46527
L67871 46621
L67853 46696
L67834 46733
L67815 46752
L67778 46771
L67740 46771
L67703 46752
L67684 46733
L67665 46696
L67647 46621
L67647 46527
L67665 46452
L67684 46414
L67703 46396
L67740 46377
" />
<path d="M68246 46771
L68021 46771
" />
<path d="M68134 46771
L68134 46377
L68096 46433
L68059 46471
L68021 46489
" />
<path d="M68378 46771
L68584 46508
" />
<path d="M68378 46508
L68584 46771
" />
<path d="M68809 46377
L68846 46377
L68884 46396
L68903 46414
L68921 46452
L68940 46527
L68940 46621
L68921 46696
L68903 46733
L68884 46752
L68846 46771
L68809 46771
L68771 46752
L68753 46733
L68734 46696
L68715 46621
L68715 46527
L68734 46452
L68753 46414
L68771 46396
L68809 46377
" />
<path d="M69315 46771
L69090 46771
" />
<path d="M69203 46771
L69203 46377
L69165 46433
L69128 46471
L69090 46489
" />
<path d="M69390 46808
L69690 46808
" />
<path d="M69915 46564
L69784 46564
" />
<path d="M69784 46771
L69784 46377
L69971 46377
" />
<path d="M70271 46752
L70234 46771
L70159 46771
L70121 46752
L70102 46714
L70102 46564
L70121 46527
L70159 46508
L70234 46508
L70271 46527
L70290 46564
L70290 46602
L70102 46639
" />
<path d="M70459 46771
L70459 46508
" />
<path d="M70459 46546
L70477 46527
L70515 46508
L70571 46508
L70609 46527
L70627 46564
L70627 46771
" />
<path d="M70627 46564
L70646 46527
L70684 46508
L70740 46508
L70777 46527
L70796 46564
L70796 46771
" />
<path d="M71152 46771
L71152 46564
L71134 46527
L71096 46508
L71021 46508
L70984 46527
" />
<path d="M71152 46752
L71115 46771
L71021 46771
L70984 46752
L70965 46714
L70965 46677
L70984 46639
L71021 46621
L71115 46621
L71152 46602
" />
<path d="M71396 46771
L71359 46752
L71340 46714
L71340 46377
" />
<path d="M71696 46752
L71659 46771
L71584 46771
L71546 46752
L71527 46714
L71527 46564
L71546 46527
L71584 46508
L71659 46508
L71696 46527
L71715 46564
L71715 46602
L71527 46639
" />
<text x="68800" y="48482.7"
textLength="789.183" font-size="524.934" lengthAdjust="spacingAndGlyphs"
text-anchor="middle" opacity="0">A1</text>
<path d="M68518 48351
L68706 48351
" />
<path d="M68481 48463
L68612 48070
L68743 48463
" />
<path d="M69081 48463
L68856 48463
" />
<path d="M68968 48463
L68968 48070
L68931 48126
L68893 48163
L68856 48182
" />
<text x="42000" y="33989.8"
textLength="6057.27" font-size="524.934" lengthAdjust="spacingAndGlyphs"
text-anchor="middle" opacity="0">Conn_01x01_Female</text>
<path d="M39328 33933
L39309 33952
L39253 33971
L39215 33971
L39159 33952
L39122 33914
L39103 33877
L39084 33802
L39084 33746
L39103 33671
L39122 33633
L39159 33596
L39215 33577
L39253 33577
L39309 33596
L39328 33614
" />
<path d="M39553 33971
L39515 33952
L39497 33933
L39478 33896
L39478 33783
L39497 33746
L39515 33727
L39553 33708
L39609 33708
L39647 33727
L39665 33746
L39684 33783
L39684 33896
L39665 33933
L39647 33952
L39609 33971
L39553 33971
" />
<path d="M39853 33708
L39853 33971
" />
<path d="M39853 33746
L39872 33727
L39909 33708
L39965 33708
L40003 33727
L40022 33764
L40022 33971
" />
<path d="M40209 33708
L40209 33971
" />
<path d="M40209 33746
L40228 33727
L40265 33708
L40322 33708
L40359 33727
L40378 33764
L40378 33971
" />
<path d="M40472 34008
L40772 34008
" />
<path d="M40940 33577
L40978 33577
L41015 33596
L41034 33614
L41053 33652
L41071 33727
L41071 33821
L41053 33896
L41034 33933
L41015 33952
L40978 33971
L40940 33971
L40903 33952
L40884 33933
L40865 33896
L40847 33821
L40847 33727
L40865 33652
L40884 33614
L40903 33596
L40940 33577
" />
<path d="M41446 33971
L41221 33971
" />
<path d="M41334 33971
L41334 33577
L41296 33633
L41259 33671
L41221 33689
" />
<path d="M41578 33971
L41784 33708
" />
<path d="M41578 33708
L41784 33971
" />
<path d="M42009 33577
L42046 33577
L42084 33596
L42103 33614
L42121 33652
L42140 33727
L42140 33821
L42121 33896
L42103 33933
L42084 33952
L42046 33971
L42009 33971
L41971 33952
L41953 33933
L41934 33896
L41915 33821
L41915 33727
L41934 33652
L41953 33614
L41971 33596
L42009 33577
" />
<path d="M42515 33971
L42290 33971
" />
<path d="M42403 33971
L42403 33577
L42365 33633
L42328 33671
L42290 33689
" />
<path d="M42590 34008
L42890 34008
" />
<path d="M43115 33764
L42984 33764
" />
<path d="M42984 33971
L42984 33577
L43171 33577
" />
<path d="M43471 33952
L43434 33971
L43359 33971
L43321 33952
L43302 33914
L43302 33764
L43321 33727
L43359 33708
L43434 33708
L43471 33727
L43490 33764
L43490 33802
L43302 33839
" />
<path d="M43659 33971
L43659 33708
" />
<path d="M43659 33746
L43677 33727
L43715 33708
L43771 33708
L43809 33727
L43827 33764
L43827 33971
" />
<path d="M43827 33764
L43846 33727
L43884 33708
L43940 33708
L43977 33727
L43996 33764
L43996 33971
" />
<path d="M44352 33971
L44352 33764
L44334 33727
L44296 33708
L44221 33708
L44184 33727
" />
<path d="M44352 33952
L44315 33971
L44221 33971
L44184 33952
L44165 33914
L44165 33877
L44184 33839
L44221 33821
L44315 33821
L44352 33802
" />
<path d="M44596 33971
L44559 33952
L44540 33914
L44540 33577
" />
<path d="M44896 33952
L44859 33971
L44784 33971
L44746 33952
L44727 33914
L44727 33764
L44746 33727
L44784 33708
L44859 33708
L44896 33727
L44915 33764
L44915 33802
L44727 33839
" />
<text x="42000" y="35682.7"
textLength="1314.12" font-size="524.934" lengthAdjust="spacingAndGlyphs"
text-anchor="middle" opacity="0">J2.1</text>
<path d="M41587 35270
L41587 35551
L41568 35607
L41531 35645
L41475 35663
L41437 35663
" />
<path d="M41756 35307
L41775 35288
L41812 35270
L41906 35270
L41943 35288
L41962 35307
L41981 35345
L41981 35382
L41962 35438
L41737 35663
L41981 35663
" />
<path d="M42149 35626
L42168 35645
L42149 35663
L42131 35645
L42149 35626
L42149 35663
" />
<path d="M42543 35663
L42318 35663
" />
<path d="M42431 35663
L42431 35270
L42393 35326
L42356 35363
L42318 35382
" />
<text x="64200" y="28589.8"
textLength="6057.27" font-size="524.934" lengthAdjust="spacingAndGlyphs"
text-anchor="middle" opacity="0">Conn_01x01_Female</text>
<path d="M61528 28533
L61509 28552
L61453 28571
L61415 28571
L61359 28552
L61322 28514
L61303 28477
L61284 28402
L61284 28346
L61303 28271
L61322 28233
L61359 28196
L61415 28177
L61453 28177
L61509 28196
L61528 28214
" />
<path d="M61753 28571
L61715 28552
L61697 28533
L61678 28496
L61678 28383
L61697 28346
L61715 28327
L61753 28308
L61809 28308
L61847 28327
L61865 28346
L61884 28383
L61884 28496
L61865 28533
L61847 28552
L61809 28571
L61753 28571
" />
<path d="M62053 28308
L62053 28571
" />
<path d="M62053 28346
L62072 28327
L62109 28308
L62165 28308
L62203 28327
L62222 28364
L62222 28571
" />
<path d="M62409 28308
L62409 28571
" />
<path d="M62409 28346
L62428 28327
L62465 28308
L62522 28308
L62559 28327
L62578 28364
L62578 28571
" />
<path d="M62672 28608
L62972 28608
" />
<path d="M63140 28177
L63178 28177
L63215 28196
L63234 28214
L63253 28252
L63271 28327
L63271 28421
L63253 28496
L63234 28533
L63215 28552
L63178 28571
L63140 28571
L63103 28552
L63084 28533
L63065 28496
L63047 28421
L63047 28327
L63065 28252
L63084 28214
L63103 28196
L63140 28177
" />
<path d="M63646 28571
L63421 28571
" />
<path d="M63534 28571
L63534 28177
L63496 28233
L63459 28271
L63421 28289
" />
<path d="M63778 28571
L63984 28308
" />
<path d="M63778 28308
L63984 28571
" />
<path d="M64209 28177
L64246 28177
L64284 28196
L64303 28214
L64321 28252
L64340 28327
L64340 28421
L64321 28496
L64303 28533
L64284 28552
L64246 28571
L64209 28571
L64171 28552
L64153 28533
L64134 28496
L64115 28421
L64115 28327
L64134 28252
L64153 28214
L64171 28196
L64209 28177
" />
<path d="M64715 28571
L64490 28571
" />
<path d="M64603 28571
L64603 28177
L64565 28233
L64528 28271
L64490 28289
" />
<path d="M64790 28608
L65090 28608
" />
<path d="M65315 28364
L65184 28364
" />
<path d="M65184 28571
L65184 28177
L65371 28177
" />
<path d="M65671 28552
L65634 28571
L65559 28571
L65521 28552
L65502 28514
L65502 28364
L65521 28327
L65559 28308
L65634 28308
L65671 28327
L65690 28364
L65690 28402
L65502 28439
" />
<path d="M65859 28571
L65859 28308
" />
<path d="M65859 28346
L65877 28327
L65915 28308
L65971 28308
L66009 28327
L66027 28364
L66027 28571
" />
<path d="M66027 28364
L66046 28327
L66084 28308
L66140 28308
L66177 28327
L66196 28364
L66196 28571
" />
<path d="M66552 28571
L66552 28364
L66534 28327
L66496 28308
L66421 28308
L66384 28327
" />
<path d="M66552 28552
L66515 28571
L66421 28571
L66384 28552
L66365 28514
L66365 28477
L66384 28439
L66421 28421
L66515 28421
L66552 28402
" />
<path d="M66796 28571
L66759 28552
L66740 28514
L66740 28177
" />
<path d="M67096 28552
L67059 28571
L66984 28571
L66946 28552
L66927 28514
L66927 28364
L66946 28327
L66984 28308
L67059 28308
L67096 28327
L67115 28364
L67115 28402
L66927 28439
" />
<text x="64200" y="30282.7"
textLength="1314.12" font-size="524.934" lengthAdjust="spacingAndGlyphs"
text-anchor="middle" opacity="0">J2.3</text>
<path d="M63787 29870
L63787 30151
L63768 30207
L63731 30245
L63675 30263
L63637 30263
" />
<path d="M63956 29907
L63975 29888
L64012 29870
L64106 29870
L64143 29888
L64162 29907
L64181 29945
L64181 29982
L64162 30038
L63937 30263
L64181 30263
" />
<path d="M64349 30226
L64368 30245
L64349 30263
L64331 30245
L64349 30226
L64349 30263
" />
<path d="M64499 29870
L64743 29870
L64612 30020
L64668 30020
L64706 30038
L64724 30057
L64743 30095
L64743 30188
L64724 30226
L64706 30245
L64668 30263
L64556 30263
L64518 30245
L64499 30226
" />
<text x="42000" y="36189.8"
textLength="6057.27" font-size="524.934" lengthAdjust="spacingAndGlyphs"
text-anchor="middle" opacity="0">Conn_01x01_Female</text>
<path d="M39328 36133
L39309 36152
L39253 36171
L39215 36171
L39159 36152
L39122 36114
L39103 36077
L39084 36002
L39084 35946
L39103 35871
L39122 35833
L39159 35796
L39215 35777
L39253 35777
L39309 35796
L39328 35814
" />
<path d="M39553 36171
L39515 36152
L39497 36133
L39478 36096
L39478 35983
L39497 35946
L39515 35927
L39553 35908
L39609 35908
L39647 35927
L39665 35946
L39684 35983
L39684 36096
L39665 36133
L39647 36152
L39609 36171
L39553 36171
" />
<path d="M39853 35908
L39853 36171
" />
<path d="M39853 35946
L39872 35927
L39909 35908
L39965 35908
L40003 35927
L40022 35964
L40022 36171
" />
<path d="M40209 35908
L40209 36171
" />
<path d="M40209 35946
L40228 35927
L40265 35908
L40322 35908
L40359 35927
L40378 35964
L40378 36171
" />
<path d="M40472 36208
L40772 36208
" />
<path d="M40940 35777
L40978 35777
L41015 35796
L41034 35814
L41053 35852
L41071 35927
L41071 36021
L41053 36096
L41034 36133
L41015 36152
L40978 36171
L40940 36171
L40903 36152
L40884 36133
L40865 36096
L40847 36021
L40847 35927
L40865 35852
L40884 35814
L40903 35796
L40940 35777
" />
<path d="M41446 36171
L41221 36171
" />
<path d="M41334 36171
L41334 35777
L41296 35833
L41259 35871
L41221 35889
" />
<path d="M41578 36171
L41784 35908
" />
<path d="M41578 35908
L41784 36171
" />
<path d="M42009 35777
L42046 35777
L42084 35796
L42103 35814
L42121 35852
L42140 35927
L42140 36021
L42121 36096
L42103 36133
L42084 36152
L42046 36171
L42009 36171
L41971 36152
L41953 36133
L41934 36096
L41915 36021
L41915 35927
L41934 35852
L41953 35814
L41971 35796
L42009 35777
" />
<path d="M42515 36171
L42290 36171
" />
<path d="M42403 36171
L42403 35777
L42365 35833
L42328 35871
L42290 35889
" />
<path d="M42590 36208
L42890 36208
" />
<path d="M43115 35964
L42984 35964
" />
<path d="M42984 36171
L42984 35777
L43171 35777
" />
<path d="M43471 36152
L43434 36171
L43359 36171
L43321 36152
L43302 36114
L43302 35964
L43321 35927
L43359 35908
L43434 35908
L43471 35927
L43490 35964
L43490 36002
L43302 36039
" />
<path d="M43659 36171
L43659 35908
" />
<path d="M43659 35946
L43677 35927
L43715 35908
L43771 35908
L43809 35927
L43827 35964
L43827 36171
" />
<path d="M43827 35964
L43846 35927
L43884 35908
L43940 35908
L43977 35927
L43996 35964
L43996 36171
" />
<path d="M44352 36171
L44352 35964
L44334 35927
L44296 35908
L44221 35908
L44184 35927
" />
<path d="M44352 36152
L44315 36171
L44221 36171
L44184 36152
L44165 36114
L44165 36077
L44184 36039
L44221 36021
L44315 36021
L44352 36002
" />
<path d="M44596 36171
L44559 36152
L44540 36114
L44540 35777
" />
<path d="M44896 36152
L44859 36171
L44784 36171
L44746 36152
L44727 36114
L44727 35964
L44746 35927
L44784 35908
L44859 35908
L44896 35927
L44915 35964
L44915 36002
L44727 36039
" />
<text x="42000" y="37882.7"
textLength="1314.12" font-size="524.934" lengthAdjust="spacingAndGlyphs"
text-anchor="middle" opacity="0">J2.2</text>
<path d="M41587 37470
L41587 37751
L41568 37807
L41531 37845
L41475 37863
L41437 37863
" />
<path d="M41756 37507
L41775 37488
L41812 37470
L41906 37470
L41943 37488
L41962 37507
L41981 37545
L41981 37582
L41962 37638
L41737 37863
L41981 37863
" />
<path d="M42149 37826
L42168 37845
L42149 37863
L42131 37845
L42149 37826
L42149 37863
" />
<path d="M42318 37507
L42337 37488
L42374 37470
L42468 37470
L42506 37488
L42524 37507
L42543 37545
L42543 37582
L42524 37638
L42299 37863
L42543 37863
" />
<text x="74800" y="45095.3"
textLength="1989.03" font-size="524.934" lengthAdjust="spacingAndGlyphs"
text-anchor="middle" opacity="0">BC557</text>
<path d="M74068 44870
L74125 44889
L74143 44907
L74162 44945
L74162 45001
L74143 45039
L74125 45057
L74087 45076
L73937 45076
L73937 44682
L74068 44682
L74106 44701
L74125 44720
L74143 44757
L74143 44795
L74125 44832
L74106 44851
L74068 44870
L73937 44870
" />
<path d="M74556 45039
L74537 45057
L74481 45076
L74443 45076
L74387 45057
L74350 45020
L74331 44982
L74312 44907
L74312 44851
L74331 44776
L74350 44739
L74387 44701
L74443 44682
L74481 44682
L74537 44701
L74556 44720
" />
<path d="M74912 44682
L74725 44682
L74706 44870
L74725 44851
L74762 44832
L74856 44832
L74893 44851
L74912 44870
L74931 44907
L74931 45001
L74912 45039
L74893 45057
L74856 45076
L74762 45076
L74725 45057
L74706 45039
" />
<path d="M75287 44682
L75099 44682
L75081 44870
L75099 44851
L75137 44832
L75231 44832
L75268 44851
L75287 44870
L75306 44907
L75306 45001
L75287 45039
L75268 45057
L75231 45076
L75137 45076
L75099 45057
L75081 45039
" />
<path d="M75437 44682
L75699 44682
L75531 45076
" />
<text x="74800" y="43996.9"
textLength="864.173" font-size="524.934" lengthAdjust="spacingAndGlyphs"
text-anchor="middle" opacity="0">Q1</text>
<path d="M74762 44015
L74725 43996
L74687 43959
L74631 43903
L74593 43884
L74556 43884
" />
<path d="M74575 43978
L74537 43959
L74500 43921
L74481 43846
L74481 43715
L74500 43640
L74537 43603
L74575 43584
L74650 43584
L74687 43603
L74725 43640
L74743 43715
L74743 43846
L74725 43921
L74687 43959
L74650 43978
L74575 43978
" />
<path d="M75118 43978
L74893 43978
" />
<path d="M75006 43978
L75006 43584
L74968 43640
L74931 43678
L74893 43696
" />
<g transform="rotate(-90 46098.4 35200)">
<text x="46098.4" y="35396.9"
textLength="1989.03" font-size="524.934" lengthAdjust="spacingAndGlyphs"
text-anchor="middle" opacity="0">BC337</text>
</g>
<path d="M46070 35931
L46089 35874
L46107 35856
L46145 35837
L46201 35837
L46239 35856
L46257 35874
L46276 35912
L46276 36062
L45882 36062
L45882 35931
L45901 35893
L45920 35874
L45957 35856
L45995 35856
L46032 35874
L46051 35893
L46070 35931
L46070 36062
" />
<path d="M46239 35443
L46257 35462
L46276 35518
L46276 35556
L46257 35612
L46220 35649
L46182 35668
L46107 35687
L46051 35687
L45976 35668
L45939 35649
L45901 35612
L45882 35556
L45882 35518
L45901 35462
L45920 35443
" />
<path d="M45882 35312
L45882 35068
L46032 35200
L46032 35143
L46051 35106
L46070 35087
L46107 35068
L46201 35068
L46239 35087
L46257 35106
L46276 35143
L46276 35256
L46257 35293
L46239 35312
" />
<path d="M45882 34937
L45882 34693
L46032 34825
L46032 34768
L46051 34731
L46070 34712
L46107 34693
L46201 34693
L46239 34712
L46257 34731
L46276 34768
L46276 34881
L46257 34918
L46239 34937
" />
<path d="M45882 34562
L45882 34300
L46276 34468
" />
<g transform="rotate(-90 45000 35200)">
<text x="45000" y="35396.9"
textLength="864.173" font-size="524.934" lengthAdjust="spacingAndGlyphs"
text-anchor="middle" opacity="0">Q2</text>
</g>
<path d="M45215 35237
L45196 35274
L45159 35312
L45103 35368
L45084 35406
L45084 35443
" />
<path d="M45178 35424
L45159 35462
L45121 35499
L45046 35518
L44915 35518
L44840 35499
L44803 35462
L44784 35424
L44784 35349
L44803 35312
L44840 35274
L44915 35256
L45046 35256
L45121 35274
L45159 35312
L45178 35349
L45178 35424
" />
<path d="M44821 35106
L44803 35087
L44784 35050
L44784 34956
L44803 34918
L44821 34900
L44859 34881
L44896 34881
L44953 34900
L45178 35125
L45178 34881
" />
<text x="75300" y="31314.2"
textLength="2307.74" font-size="524.934" lengthAdjust="spacingAndGlyphs"
text-anchor="middle" opacity="0">CA3140</text>
<path d="M74503 31257
L74484 31276
L74428 31295
L74390 31295
L74334 31276
L74297 31239
L74278 31201
L74259 31126
L74259 31070
L74278 30995
L74297 30957
L74334 30920
L74390 30901
L74428 30901
L74484 30920
L74503 30939
" />
<path d="M74653 31182
L74840 31182
" />
<path d="M74615 31295
L74746 30901
L74878 31295
" />
<path d="M74971 30901
L75215 30901
L75084 31051
L75140 31051
L75178 31070
L75196 31089
L75215 31126
L75215 31220
L75196 31257
L75178 31276
L75140 31295
L75028 31295
L74990 31276
L74971 31257
" />
<path d="M75590 31295
L75365 31295
" />
<path d="M75478 31295
L75478 30901
L75440 30957
L75403 30995
L75365 31014
" />
<path d="M75928 31032
L75928 31295
" />
<path d="M75834 30882
L75740 31164
L75984 31164
" />
<path d="M76209 30901
L76246 30901
L76284 30920
L76302 30939
L76321 30976
L76340 31051
L76340 31145
L76321 31220
L76302 31257
L76284 31276
L76246 31295
L76209 31295
L76171 31276
L76153 31257
L76134 31220
L76115 31145
L76115 31051
L76134 30976
L76153 30939
L76171 30920
L76209 30901
" />
<text x="75300" y="28896.9"
textLength="864.173" font-size="524.934" lengthAdjust="spacingAndGlyphs"
text-anchor="middle" opacity="0">U1</text>
<path d="M75000 28484
L75000 28803
L75018 28840
L75037 28859
L75075 28878
L75150 28878
L75187 28859
L75206 28840
L75225 28803
L75225 28484
" />
<path d="M75618 28878
L75393 28878
" />
<path d="M75506 28878
L75506 28484
L75468 28540
L75431 28578
L75393 28596
" />
<text x="64300" y="32079.5"
textLength="2438.98" font-size="524.934" lengthAdjust="spacingAndGlyphs"
text-anchor="middle" opacity="0">MCP601</text>
<path d="M63212 32060
L63212 31667
L63343 31948
L63475 31667
L63475 32060
" />
<path d="M63887 32023
L63868 32042
L63812 32060
L63775 32060
L63718 32042
L63681 32004
L63662 31967
L63643 31892
L63643 31835
L63662 31760
L63681 31723
L63718 31685
L63775 31667
L63812 31667
L63868 31685
L63887 31704
" />
<path d="M64056 32060
L64056 31667
L64206 31667
L64243 31685
L64262 31704
L64281 31742
L64281 31798
L64262 31835
L64243 31854
L64206 31873
L64056 31873
" />
<path d="M64618 31667
L64543 31667
L64506 31685
L64487 31704
L64449 31760
L64431 31835
L64431 31985
L64449 32023
L64468 32042
L64506 32060
L64581 32060
L64618 32042
L64637 32023
L64656 31985
L64656 31892
L64637 31854
L64618 31835
L64581 31817
L64506 31817
L64468 31835
L64449 31854
L64431 31892
" />
<path d="M64899 31667
L64937 31667
L64974 31685
L64993 31704
L65012 31742
L65031 31817
L65031 31910
L65012 31985
L64993 32023
L64974 32042
L64937 32060
L64899 32060
L64862 32042
L64843 32023
L64824 31985
L64806 31910
L64806 31817
L64824 31742
L64843 31704
L64862 31685
L64899 31667
" />
<path d="M65406 32060
L65181 32060
" />
<path d="M65293 32060
L65293 31667
L65256 31723
L65218 31760
L65181 31779
" />
<text x="64300" y="34496.9"
textLength="864.173" font-size="524.934" lengthAdjust="spacingAndGlyphs"
text-anchor="middle" opacity="0">U2</text>
<path d="M64000 34084
L64000 34403
L64018 34440
L64037 34459
L64075 34478
L64150 34478
L64187 34459
L64206 34440
L64225 34403
L64225 34084
" />
<path d="M64393 34121
L64412 34103
L64449 34084
L64543 34084
L64581 34103
L64599 34121
L64618 34159
L64618 34196
L64599 34253
L64374 34478
L64618 34478
" />
<text x="56100" y="32079.5"
textLength="2438.98" font-size="524.934" lengthAdjust="spacingAndGlyphs"
text-anchor="middle" opacity="0">MCP601</text>
<path d="M55012 32060
L55012 31667
L55143 31948
L55275 31667
L55275 32060
" />
<path d="M55687 32023
L55668 32042
L55612 32060
L55575 32060
L55518 32042
L55481 32004
L55462 31967
L55443 31892
L55443 31835
L55462 31760
L55481 31723
L55518 31685
L55575 31667
L55612 31667
L55668 31685
L55687 31704
" />
<path d="M55856 32060
L55856 31667
L56006 31667
L56043 31685
L56062 31704
L56081 31742
L56081 31798
L56062 31835
L56043 31854
L56006 31873
L55856 31873
" />
<path d="M56418 31667
L56343 31667
L56306 31685
L56287 31704
L56249 31760
L56231 31835
L56231 31985
L56249 32023
L56268 32042
L56306 32060
L56381 32060
L56418 32042
L56437 32023
L56456 31985
L56456 31892
L56437 31854
L56418 31835
L56381 31817
L56306 31817
L56268 31835
L56249 31854
L56231 31892
" />
<path d="M56699 31667
L56737 31667
L56774 31685
L56793 31704
L56812 31742
L56831 31817
L56831 31910
L56812 31985
L56793 32023
L56774 32042
L56737 32060
L56699 32060
L56662 32042
L56643 32023
L56624 31985
L56606 31910
L56606 31817
L56624 31742
L56643 31704
L56662 31685
L56699 31667
" />
<path d="M57206 32060
L56981 32060
" />
<path d="M57093 32060
L57093 31667
L57056 31723
L57018 31760
L56981 31779
" />
<text x="56100" y="34496.9"
textLength="864.173" font-size="524.934" lengthAdjust="spacingAndGlyphs"
text-anchor="middle" opacity="0">U3</text>
<path d="M55800 34084
L55800 34403
L55818 34440
L55837 34459
L55875 34478
L55950 34478
L55987 34459
L56006 34440
L56025 34403
L56025 34084
" />
<path d="M56174 34084
L56418 34084
L56287 34234
L56343 34234
L56381 34253
L56399 34271
L56418 34309
L56418 34403
L56399 34440
L56381 34459
L56343 34478
L56231 34478
L56193 34459
L56174 34440
" />
<text x="69600" y="29463.8"
textLength="1520.34" font-size="524.934" lengthAdjust="spacingAndGlyphs"
text-anchor="middle" opacity="0">100k</text>
<path d="M69178 29445
L68953 29445
" />
<path d="M69065 29445
L69065 29051
L69028 29107
L68990 29145
L68953 29163
" />
<path d="M69421 29051
L69459 29051
L69496 29070
L69515 29088
L69534 29126
L69553 29201
L69553 29295
L69534 29370
L69515 29407
L69496 29426
L69459 29445
L69421 29445
L69384 29426
L69365 29407
L69346 29370
L69328 29295
L69328 29201
L69346 29126
L69365 29088
L69384 29070
L69421 29051
" />
<path d="M69796 29051
L69834 29051
L69871 29070
L69890 29088
L69909 29126
L69928 29201
L69928 29295
L69909 29370
L69890 29407
L69871 29426
L69834 29445
L69796 29445
L69759 29426
L69740 29407
L69721 29370
L69703 29295
L69703 29201
L69721 29126
L69740 29088
L69759 29070
L69796 29051
" />
<path d="M70096 29445
L70096 29051
" />
<path d="M70134 29295
L70246 29445
" />
<path d="M70246 29182
L70096 29332
" />
<text x="69600" y="30396.9"
textLength="845.426" font-size="524.934" lengthAdjust="spacingAndGlyphs"
text-anchor="middle" opacity="0">R1</text>
<path d="M69534 30378
L69403 30190
" />
<path d="M69309 30378
L69309 29984
L69459 29984
L69496 30003
L69515 30021
L69534 30059
L69534 30115
L69515 30153
L69496 30171
L69459 30190
L69309 30190
" />
<path d="M69909 30378
L69684 30378
" />
<path d="M69796 30378
L69796 29984
L69759 30040
L69721 30078
L69684 30096
" />
<text x="69600" y="26863.8"
textLength="770.435" font-size="524.934" lengthAdjust="spacingAndGlyphs"
text-anchor="middle" opacity="0">1k</text>
<path d="M69553 26845
L69328 26845
" />
<path d="M69440 26845
L69440 26451
L69403 26507
L69365 26545
L69328 26563
" />
<path d="M69721 26845
L69721 26451
" />
<path d="M69759 26695
L69871 26845
" />
<path d="M69871 26582
L69721 26732
" />
<text x="69600" y="27796.9"
textLength="845.426" font-size="524.934" lengthAdjust="spacingAndGlyphs"
text-anchor="middle" opacity="0">R2</text>
<path d="M69534 27778
L69403 27590
" />
<path d="M69309 27778
L69309 27384
L69459 27384
L69496 27403
L69515 27421
L69534 27459
L69534 27515
L69515 27553
L69496 27571
L69459 27590
L69309 27590
" />
<path d="M69684 27421
L69703 27403
L69740 27384
L69834 27384
L69871 27403
L69890 27421
L69909 27459
L69909 27496
L69890 27553
L69665 27778
L69909 27778
" />
<g transform="rotate(-90 79733.1 29000)">
<text x="79733.1" y="29196.9"
textLength="770.435" font-size="524.934" lengthAdjust="spacingAndGlyphs"
text-anchor="middle" opacity="0">1k</text>
</g>
<path d="M79911 29046
L79911 29271
" />
<path d="M79911 29159
L79517 29159
L79573 29196
L79611 29234
L79629 29271
" />
<path d="M79911 28878
L79517 28878
" />
<path d="M79761 28840
L79911 28728
" />
<path d="M79648 28728
L79798 28878
" />
<g transform="rotate(-90 78800 29000)">
<text x="78800" y="29196.9"
textLength="845.426" font-size="524.934" lengthAdjust="spacingAndGlyphs"
text-anchor="middle" opacity="0">R4</text>
</g>
<path d="M78978 29065
L78790 29196
" />
<path d="M78978 29290
L78584 29290
L78584 29140
L78603 29103
L78621 29084
L78659 29065
L78715 29065
L78753 29084
L78771 29103
L78790 29140
L78790 29290
" />
<path d="M78715 28728
L78978 28728
" />
<path d="M78565 28821
L78846 28915
L78846 28671
" />
<text x="74600" y="34329.9"
textLength="770.435" font-size="524.934" lengthAdjust="spacingAndGlyphs"
text-anchor="middle" opacity="0">1k</text>
<path d="M74553 34311
L74328 34311
" />
<path d="M74440 34311
L74440 33917
L74403 33973
L74365 34011
L74328 34029
" />
<path d="M74721 34311
L74721 33917
" />
<path d="M74759 34161
L74871 34311
" />
<path d="M74871 34048
L74721 34198
" />
<text x="74600" y="33396.9"
textLength="845.426" font-size="524.934" lengthAdjust="spacingAndGlyphs"
text-anchor="middle" opacity="0">R5</text>
<path d="M74534 33378
L74403 33190
" />
<path d="M74309 33378
L74309 32984
L74459 32984
L74496 33003
L74515 33021
L74534 33059
L74534 33115
L74515 33153
L74496 33171
L74459 33190
L74309 33190
" />
<path d="M74890 32984
L74703 32984
L74684 33171
L74703 33153
L74740 33134
L74834 33134
L74871 33153
L74890 33171
L74909 33209
L74909 33303
L74890 33340
L74871 33359
L74834 33378
L74740 33378
L74703 33359
L74684 33340
" />
<g transform="rotate(-90 61133.1 31000)">
<text x="61133.1" y="31196.9"
textLength="1520.34" font-size="524.934" lengthAdjust="spacingAndGlyphs"
text-anchor="middle" opacity="0">100k</text>
</g>
<path d="M61311 31421
L61311 31646
" />
<path d="M61311 31534
L60917 31534
L60973 31571
L61011 31609
L61029 31646
" />
<path d="M60917 31178
L60917 31140
L60936 31103
L60954 31084
L60992 31065
L61067 31046
L61161 31046
L61236 31065
L61273 31084
L61292 31103
L61311 31140
L61311 31178
L61292 31215
L61273 31234
L61236 31253
L61161 31271
L61067 31271
L60992 31253
L60954 31234
L60936 31215
L60917 31178
" />
<path d="M60917 30803
L60917 30765
L60936 30728
L60954 30709
L60992 30690
L61067 30671
L61161 30671
L61236 30690
L61273 30709
L61292 30728
L61311 30765
L61311 30803
L61292 30840
L61273 30859
L61236 30878
L61161 30896
L61067 30896
L60992 30878
L60954 30859
L60936 30840
L60917 30803
" />
<path d="M61311 30503
L60917 30503
" />
<path d="M61161 30465
L61311 30353
" />
<path d="M61048 30353
L61198 30503
" />
<g transform="rotate(-90 60200 31000)">
<text x="60200" y="31196.9"
textLength="845.426" font-size="524.934" lengthAdjust="spacingAndGlyphs"
text-anchor="middle" opacity="0">R6</text>
</g>
<path d="M60378 31065
L60190 31196
" />
<path d="M60378 31290
L59984 31290
L59984 31140
L60003 31103
L60021 31084
L60059 31065
L60115 31065
L60153 31084
L60171 31103
L60190 31140
L60190 31290
" />
<path d="M59984 30728
L59984 30803
L60003 30840
L60021 30859
L60078 30896
L60153 30915
L60303 30915
L60340 30896
L60359 30878
L60378 30840
L60378 30765
L60359 30728
L60340 30709
L60303 30690
L60209 30690
L60171 30709
L60153 30728
L60134 30765
L60134 30840
L60153 30878
L60171 30896
L60209 30915
" />
<text x="49000" y="36329.9"
textLength="1595.33" font-size="524.934" lengthAdjust="spacingAndGlyphs"
text-anchor="middle" opacity="0">120R</text>
<path d="M48540 36311
L48315 36311
" />
<path d="M48428 36311
L48428 35917
L48390 35973
L48353 36011
L48315 36029
" />
<path d="M48690 35954
L48709 35936
L48746 35917
L48840 35917
L48878 35936
L48896 35954
L48915 35992
L48915 36029
L48896 36086
L48671 36311
L48915 36311
" />
<path d="M49159 35917
L49196 35917
L49234 35936
L49253 35954
L49271 35992
L49290 36067
L49290 36161
L49271 36236
L49253 36273
L49234 36292
L49196 36311
L49159 36311
L49121 36292
L49103 36273
L49084 36236
L49065 36161
L49065 36067
L49084 35992
L49103 35954
L49121 35936
L49159 35917
" />
<path d="M49684 36311
L49553 36123
" />
<path d="M49459 36311
L49459 35917
L49609 35917
L49646 35936
L49665 35954
L49684 35992
L49684 36048
L49665 36086
L49646 36104
L49609 36123
L49459 36123
" />
<text x="49000" y="35396.9"
textLength="845.426" font-size="524.934" lengthAdjust="spacingAndGlyphs"
text-anchor="middle" opacity="0">R7</text>
<path d="M48934 35378
L48803 35190
" />
<path d="M48709 35378
L48709 34984
L48859 34984
L48896 35003
L48915 35021
L48934 35059
L48934 35115
L48915 35153
L48896 35171
L48859 35190
L48709 35190
" />
<path d="M49065 34984
L49328 34984
L49159 35378
" />
<text x="47000" y="34329.9"
textLength="1201.63" font-size="524.934" lengthAdjust="spacingAndGlyphs"
text-anchor="middle" opacity="0">220</text>
<path d="M46512 33954
L46531 33936
L46568 33917
L46662 33917
L46700 33936
L46718 33954
L46737 33992
L46737 34029
L46718 34086
L46493 34311
L46737 34311
" />
<path d="M46887 33954
L46906 33936
L46943 33917
L47037 33917
L47074 33936
L47093 33954
L47112 33992
L47112 34029
L47093 34086
L46868 34311
L47112 34311
" />
<path d="M47356 33917
L47393 33917
L47431 33936
L47449 33954
L47468 33992
L47487 34067
L47487 34161
L47468 34236
L47449 34273
L47431 34292
L47393 34311
L47356 34311
L47318 34292
L47299 34273
L47281 34236
L47262 34161
L47262 34067
L47281 33992
L47299 33954
L47318 33936
L47356 33917
" />
<text x="47000" y="33396.9"
textLength="845.426" font-size="524.934" lengthAdjust="spacingAndGlyphs"
text-anchor="middle" opacity="0">R8</text>
<path d="M46934 33378
L46803 33190
" />
<path d="M46709 33378
L46709 32984
L46859 32984
L46896 33003
L46915 33021
L46934 33059
L46934 33115
L46915 33153
L46896 33171
L46859 33190
L46709 33190
" />
<path d="M47159 33153
L47121 33134
L47103 33115
L47084 33078
L47084 33059
L47103 33021
L47121 33003
L47159 32984
L47234 32984
L47271 33003
L47290 33021
L47309 33059
L47309 33078
L47290 33115
L47271 33134
L47234 33153
L47159 33153
L47121 33171
L47103 33190
L47084 33228
L47084 33303
L47103 33340
L47121 33359
L47159 33378
L47234 33378
L47271 33359
L47290 33340
L47309 33303
L47309 33228
L47290 33190
L47271 33171
L47234 33153
" />
<text x="74800" y="41495.3"
textLength="2795.18" font-size="524.934" lengthAdjust="spacingAndGlyphs"
text-anchor="middle" opacity="0">LM334SM</text>
<path d="M73722 41476
L73534 41476
L73534 41082
" />
<path d="M73853 41476
L73853 41082
L73984 41364
L74115 41082
L74115 41476
" />
<path d="M74265 41082
L74509 41082
L74378 41232
L74434 41232
L74471 41251
L74490 41270
L74509 41307
L74509 41401
L74490 41439
L74471 41457
L74434 41476
L74321 41476
L74284 41457
L74265 41439
" />
<path d="M74640 41082
L74884 41082
L74753 41232
L74809 41232
L74846 41251
L74865 41270
L74884 41307
L74884 41401
L74865 41439
L74846 41457
L74809 41476
L74696 41476
L74659 41457
L74640 41439
" />
<path d="M75221 41214
L75221 41476
" />
<path d="M75128 41064
L75034 41345
L75278 41345
" />
<path d="M75409 41457
L75465 41476
L75559 41476
L75596 41457
L75615 41439
L75634 41401
L75634 41364
L75615 41326
L75596 41307
L75559 41289
L75484 41270
L75446 41251
L75428 41232
L75409 41195
L75409 41157
L75428 41120
L75446 41101
L75484 41082
L75578 41082
L75634 41101
" />
<path d="M75802 41476
L75802 41082
L75934 41364
L76065 41082
L76065 41476
" />
<text x="74800" y="40396.9"
textLength="864.173" font-size="524.934" lengthAdjust="spacingAndGlyphs"
text-anchor="middle" opacity="0">U4</text>
<path d="M74500 39984
L74500 40303
L74518 40340
L74537 40359
L74575 40378
L74650 40378
L74687 40359
L74706 40340
L74725 40303
L74725 39984
" />
<path d="M75081 40115
L75081 40378
" />
<path d="M74987 39965
L74893 40246
L75137 40246
" />
<g >
</g>
</g> 
</svg>
